<?xml version="1.0" encoding="UTF-8"?>
<svg version="1.1" xmlns="http://www.w3.org/2000/svg" width="225" height="225">
<path d="M0 0 C74.25 0 148.5 0 225 0 C225 74.25 225 148.5 225 225 C150.75 225 76.5 225 0 225 C0 150.75 0 76.5 0 0 Z " fill="#FCFDFD" transform="translate(0,0)"/>
<path d="M0 0 C74.25 0 148.5 0 225 0 C225 74.25 225 148.5 225 225 C150.75 225 76.5 225 0 225 C0 150.75 0 76.5 0 0 Z M27 33 C19.84364551 42.76899184 17.54761556 51.97291872 17.58007812 63.9387207 C17.57160858 65.10094147 17.56313904 66.26316223 17.55441284 67.46060181 C17.53111538 71.28244125 17.53001907 75.10387632 17.53125 78.92578125 C17.52594186 80.9211017 17.52062632 82.91642227 17.51438284 84.91174001 C17.49520433 91.1800482 17.49224428 97.44822326 17.49902344 103.71655273 C17.50565734 110.15316176 17.48281401 116.58919674 17.44570971 123.02568942 C17.41487757 128.57848732 17.40366727 134.13110187 17.40754652 139.6839835 C17.4096005 142.98873037 17.40206475 146.29293472 17.37965393 149.59762001 C17.35737023 153.28990034 17.36721626 156.98081762 17.38476562 160.6730957 C17.37150238 161.74725235 17.35823914 162.821409 17.34457397 163.92811584 C17.46634165 175.02636939 21.80884851 185.51770995 29 194 C37.03855052 201.65208174 46.7414489 207.11145852 57.98248291 207.13371277 C58.96080582 207.13797775 59.93912872 207.14224274 60.94709778 207.14663696 C62.0090184 207.14618378 63.07093903 207.14573059 64.16503906 207.14526367 C65.29248032 207.14862228 66.41992157 207.1519809 67.58152771 207.15544128 C71.30957135 207.1649417 75.03757001 207.16689404 78.765625 207.16796875 C81.36008726 207.1711823 83.95454935 207.17454645 86.54901123 207.17805481 C91.9895477 207.18404405 97.43006636 207.1859378 102.87060547 207.18530273 C109.14226581 207.18470276 115.41383991 207.19524073 121.68547845 207.2110464 C127.73549526 207.22574565 133.78546559 207.22928947 139.83550262 207.22869301 C142.4014496 207.22987111 144.96739726 207.23428335 147.53333282 207.24202538 C151.12808826 207.25185478 154.72262361 207.24893525 158.31738281 207.24291992 C159.37120651 207.24853943 160.42503021 207.25415894 161.51078796 207.25994873 C174.48214655 207.20496885 185.55287663 203.98157156 195.1875 194.9296875 C208.75753487 180.48227969 207.57438122 162.99116264 207.4609375 144.41796875 C207.45854954 141.8325459 207.4576485 139.24712129 207.4581604 136.66169739 C207.45504485 131.26466059 207.43906665 125.86790975 207.41162109 120.47094727 C207.38010129 114.25020163 207.36962827 108.02970358 207.3710922 101.80888385 C207.3723164 95.79192076 207.36185709 89.77505739 207.34550858 83.75811195 C207.33915993 81.21088452 207.33520622 78.66364993 207.33372116 76.11641502 C207.3293725 72.55819856 207.31183976 69.00028888 207.29052734 65.44213867 C207.2918869 63.87486275 207.2918869 63.87486275 207.29327393 62.27592468 C207.18030501 49.34118426 203.24559641 38.55969467 194.296875 29.0390625 C184.35363495 20.21190041 172.18800667 17.53308065 159.26733398 17.62768555 C158.1391626 17.62403488 157.01099121 17.62038422 155.84863281 17.61662292 C152.14762969 17.60856718 148.44707125 17.62208573 144.74609375 17.63671875 C142.15877788 17.63723792 139.5714616 17.63671803 136.98414612 17.63520813 C131.57343138 17.63529763 126.16287717 17.64533924 120.75219727 17.66381836 C114.51733916 17.68499181 108.28266534 17.68849164 102.04777855 17.6822564 C96.02175901 17.67654107 89.9958205 17.68233991 83.96980476 17.69342995 C81.41781943 17.69726836 78.86582859 17.69843582 76.31384087 17.6968441 C72.74354519 17.69647171 69.17352554 17.70914239 65.60327148 17.7253418 C64.55730301 17.72286438 63.51133453 17.72038696 62.43367004 17.71783447 C48.17701755 17.82065214 36.81396379 22.32071897 27 33 Z " fill="#005666" transform="translate(0,0)"/>
<path d="M0 0 C3.5 0.5625 3.5 0.5625 5.9375 2.3125 C7.5 4.5625 7.5 4.5625 7.5 8.5625 C8.4075 8.35625 9.315 8.15 10.25 7.9375 C13.62036846 7.54861133 14.78161375 7.64956153 17.5 9.5625 C18.76237731 12.08725462 18.59856404 13.87450466 18.5625 16.6875 C18.55347656 17.59757812 18.54445312 18.50765625 18.53515625 19.4453125 C18.52355469 20.14398438 18.51195312 20.84265625 18.5 21.5625 C20.453125 21.39973958 22.40625 21.23697917 24.359375 21.07421875 C26.5 21.5625 26.5 21.5625 28.71875 23.3125 C31.47596498 28.34320804 31.18388548 33.21951768 31.25 38.875 C31.29012207 40.74490601 31.29012207 40.74490601 31.33105469 42.65258789 C31.40164067 46.17334843 31.44100605 49.69392548 31.47460938 53.21520996 C31.50128966 55.6817256 31.53872916 58.14791388 31.578125 60.61425781 C31.64687797 65.03364629 31.69467036 69.45285719 31.72814941 73.87265015 C31.74254018 75.60301876 31.76122982 77.33335779 31.7845459 79.06362915 C31.91590484 89.75549448 31.0691049 99.10000035 28.5 109.5625 C27.51 114.8425 26.52 120.1225 25.5 125.5625 C12.3 125.5625 -0.9 125.5625 -14.5 125.5625 C-14.5 121.89125 -14.5 118.22 -14.5 114.4375 C-14.88443359 99.53894188 -19.57677162 91.55781903 -29.609375 80.65625 C-40.1609869 68.97099385 -39.51060442 54.50621573 -39.61962891 39.47851562 C-39.5 37.5625 -39.5 37.5625 -38.5 36.5625 C-33.51448365 36.17899874 -30.51220165 36.4943458 -26.5 39.5625 C-25.26715589 42.02818822 -25.21120482 43.96743001 -25 46.71875 C-24.9175 47.74097656 -24.835 48.76320312 -24.75 49.81640625 C-24.5 53.0625 -24.5 53.0625 -24.25 56.30859375 C-24.1675 57.33082031 -24.085 58.35304687 -24 59.40625 C-23.89171875 60.81680664 -23.89171875 60.81680664 -23.78125 62.25585938 C-23.62809338 64.5860379 -23.62809338 64.5860379 -22.5 66.5625 C-21.51 66.5625 -20.52 66.5625 -19.5 66.5625 C-19.49635437 65.9722554 -19.49270874 65.3820108 -19.48895264 64.77388 C-19.44711175 58.62530272 -19.3777551 52.47747081 -19.29248047 46.3293457 C-19.26427118 44.03547626 -19.24305647 41.74150962 -19.22900391 39.44750977 C-19.20757449 36.14809407 -19.16092217 32.84984698 -19.109375 29.55078125 C-19.10814636 28.52664627 -19.10691772 27.50251129 -19.10565186 26.44734192 C-19.01520649 22.04117898 -18.90695684 19.27709814 -16.69628906 15.39526367 C-14.5 13.5625 -14.5 13.5625 -10.75 13.25 C-9.6775 13.353125 -8.605 13.45625 -7.5 13.5625 C-7.5825 12.345625 -7.665 11.12875 -7.75 9.875 C-7.73302184 6.68876607 -7.46727062 5.49965958 -5.9375 2.5625 C-3.5 0.5625 -3.5 0.5625 0 0 Z " fill="#026778" transform="translate(116.5,40.4375)"/>
<path d="M0 0 C0.66 0 1.32 0 2 0 C2.94599642 5.56094387 3.13181599 10.91268402 3.09765625 16.546875 C3.0962413 17.43989319 3.09482635 18.33291138 3.09336853 19.25299072 C3.08780739 22.08536236 3.07527135 24.91765262 3.0625 27.75 C3.05747914 29.66796759 3.05291726 31.58593644 3.04882812 33.50390625 C3.0406787 37.00489916 3.03002908 40.50586217 3.01586914 44.00683594 C3.0066054 46.33787822 3 48.66893931 3 51 C3 53 3 55 3 57 C5.31 57 7.62 57 10 57 C9.484375 57.825 8.96875 58.65 8.4375 59.5 C6.70598587 63.7158605 6.72182529 66.72123221 8 71 C10.02513982 75.5877206 12.55836289 79.62710014 15.8125 83.4375 C18 86 18 86 18 88 C16.0085944 88.38133299 14.00720923 88.71325582 12 89 C10.03177114 87.03177114 10.33751619 83.65191291 10 81 C6.535 81.495 6.535 81.495 3 82 C1.93453047 85.1964086 1.92572162 87.65747276 2 91 C1.74476562 90.47792969 1.48953125 89.95585937 1.2265625 89.41796875 C-4.47193104 78.18082212 -4.47193104 78.18082212 -12.125 68.25 C-23.98886684 55.35855414 -23.99718347 41.79362922 -24.11962891 24.91601562 C-24 23 -24 23 -23 22 C-18.01448365 21.61649874 -15.01220165 21.9318458 -11 25 C-9.76715589 27.46568822 -9.71120482 29.40493001 -9.5 32.15625 C-9.4175 33.17847656 -9.335 34.20070312 -9.25 35.25390625 C-9 38.5 -9 38.5 -8.75 41.74609375 C-8.6675 42.76832031 -8.585 43.79054687 -8.5 44.84375 C-8.39171875 46.25430664 -8.39171875 46.25430664 -8.28125 47.69335938 C-8.12809338 50.0235379 -8.12809338 50.0235379 -7 52 C-6.01 52 -5.02 52 -4 52 C-3.99413376 51.40753479 -3.98826752 50.81506958 -3.98222351 50.20465088 C-3.91830627 44.0400899 -3.83389098 37.8760518 -3.73754883 31.71191406 C-3.70428749 29.41120292 -3.67625937 27.11040994 -3.65356445 24.80957031 C-3.62004127 21.50290032 -3.5677254 18.19698112 -3.51171875 14.890625 C-3.50213387 13.3466806 -3.50213387 13.3466806 -3.49235535 11.77154541 C-3.47256119 10.81085144 -3.45276703 9.85015747 -3.43237305 8.86035156 C-3.42126999 8.01651917 -3.41016693 7.17268677 -3.39872742 6.30328369 C-2.91123391 3.48723495 -1.94697017 2.06667932 0 0 Z " fill="#034351" transform="translate(101,55)"/>
<path d="M0 0 C17.49 0 34.98 0 53 0 C53 5.28 53 10.56 53 16 C35.51 16 18.02 16 0 16 C0 10.72 0 5.44 0 0 Z " fill="#016373" transform="translate(95,168)"/>
<path d="M0 0 C0.33 0 0.66 0 1 0 C1 14.85 1 29.7 1 45 C-13.85 45 -28.7 45 -44 45 C-44 44.67 -44 44.34 -44 44 C-43.17757812 43.84144531 -42.35515625 43.68289062 -41.5078125 43.51953125 C-26.68122036 40.42067077 -15.58567713 34.34760654 -7.0625 21.4375 C-2.92751219 14.45180294 -0.72291032 8.09659554 0 0 Z " fill="#F7FBFB" transform="translate(224,180)"/>
<path d="M0 0 C14.52 0 29.04 0 44 0 C44 14.85 44 29.7 44 45 C43.67 45 43.34 45 43 45 C42.76216797 43.76636719 42.76216797 43.76636719 42.51953125 42.5078125 C39.56316106 28.36296951 33.4867834 16.26115649 21.01171875 8.08984375 C14.3769792 4.4954897 7.57817246 1.51669358 0 1 C0 0.67 0 0.34 0 0 Z " fill="#FBFCFD" transform="translate(181,0)"/>
<path d="M0 0 C0.33 0 0.66 0 1 0 C1.20753906 0.95519531 1.41507812 1.91039062 1.62890625 2.89453125 C4.9232323 17.08094148 11.3460612 28.37553751 23.9375 36.25 C30.89922235 40.19953991 37.03097562 42.28847997 45 43 C45 43.33 45 43.66 45 44 C30.15 44 15.3 44 0 44 C0 29.48 0 14.96 0 0 Z " fill="#F9FAFA" transform="translate(0,181)"/>
<path d="M0 0 C14.19 0 28.38 0 43 0 C43 0.33 43 0.66 43 1 C41.14375 1.309375 41.14375 1.309375 39.25 1.625 C26.14529708 4.60801715 15.53405004 12.37085266 8.0625 23.4375 C4.02765386 30.21604151 2.02587582 37.20334377 1 45 C0.67 45 0.34 45 0 45 C0 30.15 0 15.3 0 0 Z " fill="#F8FAFA" transform="translate(0,0)"/>
<path d="M0 0 C3.92419143 0.26161276 5.66686163 0.89230595 8.75 3.25 C9.9736865 5.697373 10.03751754 7.60544303 10.25 10.3359375 C10.37375 11.85574219 10.37375 11.85574219 10.5 13.40625 C10.62375 14.99953125 10.62375 14.99953125 10.75 16.625 C10.9136292 18.7163857 11.08018134 20.80754527 11.25 22.8984375 C11.3221875 23.82833496 11.394375 24.75823242 11.46875 25.71630859 C11.72024326 27.98193105 12.13347948 30.05942554 12.75 32.25 C11.43 32.25 10.11 32.25 8.75 32.25 C8.75 33.24 8.75 34.23 8.75 35.25 C7.265 35.745 7.265 35.745 5.75 36.25 C6.08 37.24 6.41 38.23 6.75 39.25 C6.42 39.91 6.09 40.57 5.75 41.25 C1.99204153 40.04208478 0.49812435 37.78004653 -1.35839844 34.40112305 C-3.02152249 30.3885858 -3.20393347 26.23354864 -3.5 21.9375 C-3.57734375 21.05126953 -3.6546875 20.16503906 -3.734375 19.25195312 C-4.22157937 13.28804957 -4.63842214 7.23001888 -4.25 1.25 C-3.25 0.25 -3.25 0.25 0 0 Z " fill="#053240" transform="translate(81.25,76.75)"/>
<path d="M0 0 C0.86850586 0.00946152 1.73701172 0.01892303 2.63183594 0.02867126 C5.50517721 0.06237387 8.3780892 0.1104824 11.2512207 0.15869141 C13.24232356 0.18485596 15.23343839 0.21012317 17.2245636 0.23452759 C22.46736802 0.30120372 27.70992084 0.38009122 32.95251465 0.46148682 C38.30133398 0.54238227 43.650301 0.61177772 48.99926758 0.68212891 C59.49618942 0.82188889 69.99288142 0.97454439 80.48950195 1.13525391 C80.48950195 1.46525391 80.48950195 1.79525391 80.48950195 2.13525391 C79.58240982 2.14334076 78.67531769 2.15142761 77.74073792 2.15975952 C69.16391065 2.23791945 60.5872358 2.32527373 52.01060581 2.42278099 C47.60199145 2.47258268 43.19339919 2.51891328 38.78466797 2.55712891 C34.52461434 2.59418653 30.26475325 2.64060014 26.00486565 2.69331741 C24.38513528 2.71175316 22.7653638 2.72690039 21.14557076 2.73859787 C5.81560108 2.85319965 -6.11610137 4.72180125 -17.91674805 15.38134766 C-26.71068229 25.05898608 -28.97125231 35.96862512 -28.85107422 48.6315918 C-28.8515123 49.85210236 -28.85195038 51.07261292 -28.85240173 52.33010864 C-28.85067971 55.64994198 -28.83571845 58.96920361 -28.81467986 62.2889359 C-28.79582331 65.76824434 -28.79415559 69.2475618 -28.79060364 72.72691345 C-28.78130936 79.30343129 -28.75673143 85.87979808 -28.72655517 92.45624965 C-28.6929292 99.9484347 -28.67650463 107.44062726 -28.66146886 114.93286908 C-28.63017923 130.33375125 -28.57747021 145.73448304 -28.51049805 161.13525391 C-29.50049805 160.80525391 -30.49049805 160.47525391 -31.51049805 160.13525391 C-31.51049805 117.56525391 -31.51049805 74.99525391 -31.51049805 31.13525391 C-30.85049805 30.80525391 -30.19049805 30.47525391 -29.51049805 30.13525391 C-29.84049805 29.47525391 -30.17049805 28.81525391 -30.51049805 28.13525391 C-30.18049805 27.14525391 -29.85049805 26.15525391 -29.51049805 25.13525391 C-29.67549805 24.33087891 -29.84049805 23.52650391 -30.01049805 22.69775391 C-30.52383317 20.0669114 -30.34608462 18.64201363 -29.51049805 16.13525391 C-27.53049805 16.46525391 -25.55049805 16.79525391 -23.51049805 17.13525391 C-22.35445679 14.90574576 -21.42785056 12.86188146 -20.69799805 10.44775391 C-20.11018555 9.30306641 -20.11018555 9.30306641 -19.51049805 8.13525391 C-16.88549805 7.32275391 -16.88549805 7.32275391 -14.51049805 7.13525391 C-14.51049805 6.14525391 -14.51049805 5.15525391 -14.51049805 4.13525391 C-13.85049805 4.13525391 -13.19049805 4.13525391 -12.51049805 4.13525391 C-12.18049805 3.47525391 -11.85049805 2.81525391 -11.51049805 2.13525391 C-7.63423114 -0.44892403 -4.48598657 -0.09033517 0 0 Z " fill="#063E4B" transform="translate(47.510498046875,15.86474609375)"/>
<path d="M0 0 C1.3125 2.0625 1.3125 2.0625 2 4 C2.886875 3.154375 3.77375 2.30875 4.6875 1.4375 C7.61067879 -1.00884821 7.61067879 -1.00884821 10.75 -0.9375 C13 0 13 0 15 2 C15.72251136 8.020928 14.23656619 12.06586883 11 17 C8.78072521 19.78003373 6.44521821 22.41740998 4 25 C-1.51160213 22.77836302 -4.15396704 18.00017319 -7 13 C-8.47843247 9.13931601 -9.68389523 5.77119409 -8.15234375 1.8046875 C-5.91956204 -1.69207572 -3.65012313 -1.18629002 0 0 Z " fill="#066170" transform="translate(118,115)"/>
<path d="M0 0 C0.33 0 0.66 0 1 0 C1.07006141 16.88079007 1.12297406 33.76153481 1.15543652 50.64243698 C1.1709096 58.48042408 1.19200749 66.31832087 1.22631836 74.15625 C1.25620728 80.98728789 1.27557179 87.81826039 1.28226548 94.64936185 C1.28617863 98.26686018 1.29538404 101.8841714 1.31719017 105.5016098 C1.34132826 109.53859276 1.34197033 113.57524982 1.34057617 117.61230469 C1.351362 118.81351959 1.36214783 120.0147345 1.3732605 121.25234985 C1.36913651 122.35168854 1.36501251 123.45102722 1.36076355 124.5836792 C1.36352893 125.53865673 1.36629431 126.49363426 1.36914349 127.47755051 C0.93520987 130.44272712 -0.09954211 131.7348739 -2 134 C-2.165 134.721875 -2.33 135.44375 -2.5 136.1875 C-2.665 136.785625 -2.83 137.38375 -3 138 C-3.99 138.33 -4.98 138.66 -6 139 C-6.33 141.31 -6.66 143.62 -7 146 C-8.11375 145.938125 -9.2275 145.87625 -10.375 145.8125 C-11.57125 145.874375 -12.7675 145.93625 -14 146 C-15.99571409 148.7541952 -15.99571409 148.7541952 -16.8125 151.125 C-18 153 -18 153 -20 153.75 C-32.25684635 154.77140386 -32.25684635 154.77140386 -37 152 C-35.72125 151.773125 -34.4425 151.54625 -33.125 151.3125 C-22.71219956 148.97125713 -14.11224444 143.53091698 -7.8125 134.9375 C0.63291965 120.87750294 -0.39585928 106.02383162 -0.390625 90.13671875 C-0.37562683 87.53211955 -0.35889627 84.9275298 -0.34051514 82.32295227 C-0.30019385 76.19996656 -0.27967117 70.07708669 -0.26654124 63.95398885 C-0.25058951 56.97428231 -0.21214032 49.99475384 -0.17194796 43.01515138 C-0.08987649 28.67683244 -0.03558065 14.33850602 0 0 Z " fill="#097C83" transform="translate(207,54)"/>
<path d="M0 0 C1.84658203 0.00773438 1.84658203 0.00773438 3.73046875 0.015625 C4.95378906 0.01046875 6.17710937 0.0053125 7.4375 0 C10.91796875 0.265625 10.91796875 0.265625 13.6796875 1.40625 C14.41832031 1.68984375 15.15695313 1.9734375 15.91796875 2.265625 C16.90796875 1.605625 17.89796875 0.945625 18.91796875 0.265625 C18.91796875 2.905625 18.91796875 5.545625 18.91796875 8.265625 C20.34109375 8.20375 20.34109375 8.20375 21.79296875 8.140625 C24.91796875 8.265625 24.91796875 8.265625 26.91796875 10.265625 C27.04296875 13.390625 27.04296875 13.390625 26.91796875 16.265625 C29.55796875 16.265625 32.19796875 16.265625 34.91796875 16.265625 C34.91796875 16.925625 34.91796875 17.585625 34.91796875 18.265625 C34.25796875 18.265625 33.59796875 18.265625 32.91796875 18.265625 C32.91796875 19.255625 32.91796875 20.245625 32.91796875 21.265625 C33.57796875 21.265625 34.23796875 21.265625 34.91796875 21.265625 C34.94518051 23.16137751 34.96446011 25.05724479 34.98046875 26.953125 C34.99207031 28.00886719 35.00367188 29.06460938 35.015625 30.15234375 C34.926623 32.98972762 34.56736713 35.5095169 33.91796875 38.265625 C33.58796875 38.265625 33.25796875 38.265625 32.91796875 38.265625 C32.69109375 37.151875 32.46421875 36.038125 32.23046875 34.890625 C29.77632048 25.24445889 24.75917019 16.30953369 16.48046875 10.578125 C9.66693737 6.61676954 2.49877459 4.31449144 -5.08203125 2.265625 C-3.08203125 0.265625 -3.08203125 0.265625 0 0 Z " fill="#0B7986" transform="translate(173.08203125,15.734375)"/>
<path d="M0 0 C2.64 0 5.28 0 8 0 C6.62606065 13.05242384 -0.99070965 23.25771743 -10.8671875 31.46875 C-17.04877247 35.906811 -23.58600619 38.489742 -31 40 C-31.33 37.69 -31.66 35.38 -32 33 C-30.02 33.33 -28.04 33.66 -26 34 C-26.33 34.66 -26.66 35.32 -27 36 C-25.515 35.505 -25.515 35.505 -24 35 C-24 34.01 -24 33.02 -24 32 C-21.36 32 -18.72 32 -16 32 C-16 29.36 -16 26.72 -16 24 C-15.443125 24.226875 -14.88625 24.45375 -14.3125 24.6875 C-11.03973131 25.12976604 -9.60680418 23.90226251 -7 22 C-6.67 21.34 -6.34 20.68 -6 20 C-6.66 20 -7.32 20 -8 20 C-8 18.68 -8 17.36 -8 16 C-5.36 16 -2.72 16 0 16 C0 10.72 0 5.44 0 0 Z " fill="#0B7F8C" transform="translate(216,184)"/>
<path d="M0 0 C0.66 0 1.32 0 2 0 C2.94599642 5.56094387 3.13181599 10.91268402 3.09765625 16.546875 C3.0962413 17.43989319 3.09482635 18.33291138 3.09336853 19.25299072 C3.08780739 22.08536236 3.07527135 24.91765262 3.0625 27.75 C3.05747914 29.66796759 3.05291726 31.58593644 3.04882812 33.50390625 C3.0406787 37.00489916 3.03002908 40.50586217 3.01586914 44.00683594 C3.0066054 46.33787822 3 48.66893931 3 51 C2.6937566 52.33981486 2.36548445 53.67511887 2 55 C0.35 55 -1.3 55 -3 55 C-2.67 53.68 -2.34 52.36 -2 51 C-2.33 51 -2.66 51 -3 51 C-3.0760474 44.37979488 -3.12859863 37.75970235 -3.16479492 31.13916016 C-3.17988395 28.88683869 -3.20035755 26.63454661 -3.22631836 24.38232422 C-3.26269593 21.14543404 -3.2797253 17.90893225 -3.29296875 14.671875 C-3.30845261 13.66445251 -3.32393646 12.65703003 -3.33988953 11.61907959 C-3.34011612 10.67840637 -3.34034271 9.73773315 -3.34057617 8.76855469 C-3.34723801 7.94248718 -3.35389984 7.11641968 -3.36076355 6.26531982 C-2.91281323 3.45253359 -1.93903342 2.05782807 0 0 Z " fill="#10515C" transform="translate(101,55)"/>
<path d="M0 0 C2.43672948 2.21840978 3.87139608 4.39106822 5.375 7.3125 C10.75297297 17.10357432 18.23166306 23.35425188 29 26.875 C34.25897488 28.2531558 39.58460131 28.70143239 45 29 C45 29.33 45 29.66 45 30 C34.33333333 30 23.66666667 30 13 30 C13.0928125 28.329375 13.0928125 28.329375 13.1875 26.625 C13.125625 25.42875 13.06375 24.2325 13 23 C10.21885944 20.66608797 10.21885944 20.66608797 7.3125 21.375 C6.549375 21.58125 5.78625 21.7875 5 22 C5 20.35 5 18.7 5 17 C5.66 17 6.32 17 7 17 C7 16.34 7 15.68 7 15 C5.02 14.34 3.04 13.68 1 13 C1 12.34 1 11.68 1 11 C0.34 11 -0.32 11 -1 11 C-0.67 11.99 -0.34 12.98 0 14 C-0.66 14 -1.32 14 -2 14 C-3.10643764 8.16605611 -3.27137992 5.23420787 0 0 Z " fill="#0A3747" transform="translate(19,178)"/>
<path d="M0 0 C2.375 1 2.375 1 4 2 C4.99 1.34 5.98 0.68 7 0 C10.502304 -0.44710264 12.33244416 -0.40404695 15.375 1.4375 C17.81634495 5.2873132 17.70605361 8.56510077 17 13 C14.82665742 19.99544644 9.64148733 25.50231598 5 31 C0.9457298 30.49321623 -0.52556096 28.63171191 -3 25.5 C-7.38995396 19.74792948 -11 14.5838381 -11 7.1875 C-9.08450366 1.08185543 -6.36678508 -0.79584814 0 0 Z M-8 4 C-9.43682572 7.92732365 -9.03102017 10.55394404 -7.5 14.3125 C-5.03824134 19.40938061 -1.62984773 23.68700677 2 28 C6.01290838 26.47599659 7.74532242 24.01270584 10.1875 20.5625 C10.88230469 19.59441406 11.57710937 18.62632812 12.29296875 17.62890625 C15.06245997 13.36376303 15.358876 10.02426401 15 5 C14.03882095 2.87129307 14.03882095 2.87129307 12 2 C8.21964825 2.08043302 6.49745405 2.56800043 3.625 5.0625 C3.08875 5.701875 2.5525 6.34125 2 7 C1.773125 6.360625 1.54625 5.72125 1.3125 5.0625 C0.15175712 2.77351151 0.15175712 2.77351151 -2.4375 2.125 C-5.24443417 1.73353649 -5.24443417 1.73353649 -8 4 Z " fill="#D6E6EB" transform="translate(118,112)"/>
<path d="M0 0 C1.09231967 3.25171408 0.91156702 4.84047382 -0.41621399 7.96897888 C-2.50272144 13.80470964 -2.39886738 19.35428934 -2.34057617 25.49633789 C-2.34101425 26.71684845 -2.34145233 27.93735901 -2.34190369 29.19485474 C-2.34018167 32.51468808 -2.32522041 35.83394971 -2.30418181 39.15368199 C-2.28532527 42.63299043 -2.28365755 46.11230789 -2.28010559 49.59165955 C-2.27081132 56.16817739 -2.24623338 62.74454418 -2.21605712 69.32099575 C-2.18243116 76.81318079 -2.16600658 84.30537335 -2.15097082 91.79761517 C-2.11968118 107.19849734 -2.06697217 122.59922913 -2 138 C-2.99 137.67 -3.98 137.34 -5 137 C-5 94.43 -5 51.86 -5 8 C-4.34 7.67 -3.68 7.34 -3 7 C-3.33 6.34 -3.66 5.68 -4 5 C-2.52830189 1.26415094 -2.52830189 1.26415094 0 0 Z " fill="#062734" transform="translate(21,39)"/>
<path d="M0 0 C11.23177082 5.61588541 18.81029967 15.20676944 23 27 C23.125 29.8125 23.125 29.8125 23 32 C20.525 32.495 20.525 32.495 18 33 C15.52068296 28.04136591 16 23.43495139 16 18 C13.29120665 16.64560332 10.99066732 16.93498549 8 17 C7.67 14.36 7.34 11.72 7 9 C5.68 9 4.36 9 3 9 C2.01 8.67 1.02 8.34 0 8 C0 5.33333333 0 2.66666667 0 0 Z " fill="#108290" transform="translate(200,7)"/>
<path d="M0 0 C3.36116387 3.36116387 3.38786449 3.762188 3.51171875 8.23046875 C3.54740967 9.32439941 3.58310059 10.41833008 3.61987305 11.54541016 C3.64218994 12.7472998 3.66450684 13.94918945 3.6875 15.1875 C3.71948486 16.44095215 3.75146973 17.6944043 3.78442383 18.98583984 C3.88719477 23.32355097 3.94639754 27.66143944 4 32 C4.01095703 32.82892761 4.02191406 33.65785522 4.03320312 34.51190186 C4.10124168 39.83354207 4.14866305 45.15494335 4.17422485 50.47695923 C4.18299792 52.22695491 4.19448467 53.97693933 4.20883179 55.72689819 C4.27604889 65.01474669 4.24594921 73.91694874 2 83 C1.34 83 0.68 83 0 83 C0 76.73 0 70.46 0 64 C0.66 64 1.32 64 2 64 C2.33 58.39 2.66 52.78 3 47 C2.34 47 1.68 47 1 47 C1.66 43.04 2.32 39.08 3 35 C2.34 35 1.68 35 1 35 C-0.125 28.375 -0.125 28.375 1 25 C0.79184299 22.1792601 0.42421445 19.39809844 0.05859375 16.59375 C0 14 0 14 2 11 C1.34 11 0.68 11 0 11 C0 7.37 0 3.74 0 0 Z " fill="#0C858F" transform="translate(144,64)"/>
<path d="M0 0 C0 3.19219704 -0.23605791 4.39608549 -2 7 C-2.804375 7.28875 -3.60875 7.5775 -4.4375 7.875 C-7.96571054 9.42397048 -8.56906637 11.53563437 -10 15 C-9.34 15.33 -8.68 15.66 -8 16 C-9.11375 16.226875 -10.2275 16.45375 -11.375 16.6875 C-15.00624817 17.62781143 -15.00624817 17.62781143 -16.5 20 C-17.23701095 24.4220657 -16.63413054 28.58679419 -16 33 C-17.32 33 -18.64 33 -20 33 C-20.12375 33.969375 -20.2475 34.93875 -20.375 35.9375 C-20.58125 36.948125 -20.7875 37.95875 -21 39 C-21.99 39.495 -21.99 39.495 -23 40 C-23.68407503 27.68664954 -18.96953774 17.86440204 -10.94140625 8.6328125 C-7.59112166 5.17486281 -4.34818374 2.17409187 0 0 Z " fill="#113342" transform="translate(24,7)"/>
<path d="M0 0 C2 2 2 2 2.375 5.125 C1.55999999 13.54666677 -3.34429574 19.02655955 -9 25 C-10.32 24.34 -11.64 23.68 -13 23 C-12.4409112 19.75728494 -11.5867822 18.06942576 -9 16 C-8.34 16 -7.68 16 -7 16 C-7 15.34 -7 14.68 -7 14 C-5.68 13.67 -4.36 13.34 -3 13 C-3 10.36 -3 7.72 -3 5 C-3.99 5 -4.98 5 -6 5 C-6.33 3.35 -6.66 1.7 -7 0 C-4.29393021 -1.35303489 -2.8671629 -0.7884698 0 0 Z " fill="#0B6F80" transform="translate(131,115)"/>
<path d="M0 0 C1.0625 1.8125 1.0625 1.8125 2 4 C1.67 4.99 1.34 5.98 1 7 C0.89899733 8.61119894 0.85379035 10.22618288 0.84178162 11.84049988 C0.8319928 12.83749405 0.82220398 13.83448822 0.81211853 14.86169434 C0.80636307 15.95429565 0.8006076 17.04689697 0.79467773 18.17260742 C0.78477814 19.32396683 0.77487854 20.47532623 0.76467896 21.66157532 C0.73303198 25.47618538 0.70829379 29.2908079 0.68359375 33.10546875 C0.66302699 35.74677356 0.6420306 38.38807506 0.62062073 41.02937317 C0.57070791 47.27662477 0.52576385 53.52390187 0.48259836 59.77120334 C0.43321393 66.8836225 0.37830027 73.99599559 0.32291877 81.10837018 C0.2091204 95.73886983 0.10227668 110.36941533 0 125 C-0.33 125 -0.66 125 -1 125 C-1.02335634 109.29264475 -1.04099263 93.58529418 -1.05181217 77.87792587 C-1.05696931 70.58478973 -1.06400094 63.29166438 -1.07543945 55.99853516 C-1.08540405 49.64213722 -1.09185767 43.28574709 -1.09408849 36.92934155 C-1.09539258 33.56342683 -1.09845936 30.19753446 -1.10573006 26.83162689 C-1.11296274 23.07491212 -1.11398999 19.31824402 -1.11352539 15.56152344 C-1.11712067 14.44446518 -1.12071594 13.32740692 -1.12442017 12.17649841 C-1.1230455 11.15288712 -1.12167084 10.12927582 -1.12025452 9.074646 C-1.12117631 8.18603756 -1.1220981 7.29742912 -1.12304783 6.38189316 C-1.00607463 4.11758947 -0.6351531 2.17033939 0 0 Z " fill="#D4DEE7" transform="translate(19,48)"/>
<path d="M0 0 C8.56594189 0.18548299 15.28356592 2.35051721 23 6 C22.67 6.66 22.34 7.32 22 8 C21.113125 7.814375 20.22625 7.62875 19.3125 7.4375 C16.09729383 7.01285013 14.10796893 7.26390209 11 8 C9.68 8 8.36 8 7 8 C5.783125 8.020625 4.56625 8.04125 3.3125 8.0625 C0 8 0 8 -1 7 C-1.23255814 2.46511628 -1.23255814 2.46511628 0 0 Z " fill="#077482" transform="translate(177,0)"/>
<path d="M0 0 C1.65 0 3.3 0 5 0 C4.34 4.62 3.68 9.24 3 14 C-10.2 14 -23.4 14 -37 14 C-37 13.67 -37 13.34 -37 13 C-25.78 12.67 -14.56 12.34 -3 12 C-5.64 11.67 -8.28 11.34 -11 11 C-11 10.67 -11 10.34 -11 10 C-8.36 10 -5.72 10 -3 10 C-2.87625 8.906875 -2.7525 7.81375 -2.625 6.6875 C-2 3 -2 3 0 0 Z " fill="#2D7D8B" transform="translate(139,152)"/>
<path d="M0 0 C1.65 0.33 3.3 0.66 5 1 C4.41275367 4.27998558 3.39836756 5.965909 1.125 8.375 C-1.5619848 11.36556241 -3.3732294 14.29457807 -5 18 C-5.66 17.34 -6.32 16.68 -7 16 C-7.99 16.33 -8.98 16.66 -10 17 C-10.84454356 13.62182575 -11.10844919 11.32534757 -10 8 C-7.03 8.495 -7.03 8.495 -4 9 C-2.47700477 6.06279492 -1.19899698 3.0831351 0 0 Z " fill="#093343" transform="translate(28,24)"/>
<path d="M0 0 C0.66 0 1.32 0 2 0 C2.20753906 0.54527344 2.41507812 1.09054688 2.62890625 1.65234375 C4.90237609 7.21711301 7.74656591 11.55105645 11.609375 16.15234375 C13 18 13 18 13 20 C11.0085944 20.38133299 9.00720923 20.71325582 7 21 C5.03177114 19.03177114 5.33751619 15.65191291 5 13 C4.34 13 3.68 13 3 13 C1.66666667 11.66666667 0.33333333 10.33333333 -1 9 C-1 8.01 -1 7.02 -1 6 C-1.66 5.67 -2.32 5.34 -3 5 C-1.625 2.5 -1.625 2.5 0 0 Z " fill="#0A5564" transform="translate(106,123)"/>
<path d="M0 0 C2.97 0 5.94 0 9 0 C7 4 7 4 6 5 C6.99 5.33 7.98 5.66 9 6 C9 6.66 9 7.32 9 8 C11.64 8 14.28 8 17 8 C17 10.97 17 13.94 17 17 C10.48598331 14.83633368 5.45745333 9.79788242 1.75390625 4.07421875 C0.9375 2.4375 0.9375 2.4375 0 0 Z " fill="#0B3041" transform="translate(7,200)"/>
<path d="M0 0 C2.64 0 5.28 0 8 0 C7.25764304 7.05239113 5.0383756 13.9616244 0 19 C0 12.73 0 6.46 0 0 Z " fill="#138791" transform="translate(216,184)"/>
<path d="M0 0 C2.31 0 4.62 0 7 0 C7 0.66 7 1.32 7 2 C6.34 2 5.68 2 5 2 C5 2.99 5 3.98 5 5 C5.66 5 6.32 5 7 5 C7.02721176 6.89575251 7.04649136 8.79161979 7.0625 10.6875 C7.07410156 11.74324219 7.08570313 12.79898438 7.09765625 13.88671875 C7.00865425 16.72410262 6.64939838 19.2438919 6 22 C5.67 22 5.34 22 5 22 C4.7525 20.865625 4.505 19.73125 4.25 18.5625 C3.06800998 13.77458392 1.11689209 9.43930767 -1 5 C-0.34 5 0.32 5 1 5 C0.67 3.35 0.34 1.7 0 0 Z " fill="#047C8E" transform="translate(201,32)"/>
<path d="M0 0 C0.33 0 0.66 0 1 0 C2.00165994 18.77714896 1.90487459 37.22744309 1 56 C0.67 56 0.34 56 0 56 C-0.16938961 50.11438307 -0.32973318 44.22860955 -0.48217773 38.3425293 C-0.53511066 36.34571929 -0.5903927 34.34896996 -0.64819336 32.35229492 C-0.96077811 21.49880872 -1.22902572 10.81004379 0 0 Z " fill="#E1EDF0" transform="translate(148,72)"/>
<path d="M0 0 C3.62528568 -0.20140476 5.86501708 0.14223235 9 2 C9.99 1.34 10.98 0.68 12 0 C15.502304 -0.44710264 17.33244416 -0.40404695 20.375 1.4375 C22.71135006 5.12174433 22.70816502 8.73454092 22 13 C21.34 13.66 20.68 14.32 20 15 C19.95101562 14.30132812 19.90203125 13.60265625 19.8515625 12.8828125 C19.77679688 11.97273438 19.70203125 11.06265625 19.625 10.125 C19.55539063 9.22007813 19.48578125 8.31515625 19.4140625 7.3828125 C19.20431868 4.82058097 19.20431868 4.82058097 17 3 C13.91652174 2.83318891 13.91652174 2.83318891 11 3 C10.34 4.32 9.68 5.64 9 7 C8.34 7 7.68 7 7 7 C6.54625 6.360625 6.0925 5.72125 5.625 5.0625 C3.78915127 2.7323843 2.87090587 2.39598702 0 2 C0 1.34 0 0.68 0 0 Z " fill="#D6EBEC" transform="translate(113,112)"/>
<path d="M0 0 C0.66 0.99 1.32 1.98 2 3 C-0.64 3.33 -3.28 3.66 -6 4 C-6 4.99 -6 5.98 -6 7 C-6.99 7 -7.98 7 -9 7 C-8.67 6.01 -8.34 5.02 -8 4 C-11.8063457 4.67170806 -15.35206816 5.72746564 -19 7 C-19 6.01 -19 5.02 -19 4 C-12.9844741 1.18689394 -6.75085301 -1.61496699 0 0 Z " fill="#123E4B" transform="translate(46,1)"/>
<path d="M0 0 C0.33 0 0.66 0 1 0 C1 7.26 1 14.52 1 22 C-1.31 21.67 -3.62 21.34 -6 21 C-5.65066406 20.154375 -5.30132812 19.30875 -4.94140625 18.4375 C-2.45067074 12.22830098 -0.39391125 6.69649133 0 0 Z " fill="#EDF5F6" transform="translate(224,180)"/>
<path d="M0 0 C0.99 0 1.98 0 3 0 C3 1.98 3 3.96 3 6 C3.99 5.67 4.98 5.34 6 5 C6 5.99 6 6.98 6 8 C5.01 8.495 5.01 8.495 4 9 C4.185625 9.78375 4.37125 10.5675 4.5625 11.375 C5 14 5 14 4 16 C5.32 16 6.64 16 8 16 C8 18.31 8 20.62 8 23 C7.01 22.67 6.02 22.34 5 22 C1.68356023 15.05834849 0.33771898 7.63244899 0 0 Z " fill="#092939" transform="translate(0,176)"/>
<path d="M0 0 C0.66 0 1.32 0 2 0 C2 0.66 2 1.32 2 2 C3.32 2 4.64 2 6 2 C6.33 3.32 6.66 4.64 7 6 C5.35 6.33 3.7 6.66 2 7 C0.93453047 10.1964086 0.92572162 12.65747276 1 16 C0 14 0 14 -1 12 C-1.804375 10.453125 -1.804375 10.453125 -2.625 8.875 C-4 6 -4 6 -4 4 C-3.34 4 -2.68 4 -2 4 C-1.34 2.68 -0.68 1.36 0 0 Z " fill="#0A4B59" transform="translate(102,130)"/>
<path d="M0 0 C-1.485 1.485 -1.485 1.485 -3 3 C-1.7625 3.7115625 -1.7625 3.7115625 -0.5 4.4375 C0.325 4.953125 1.15 5.46875 2 6 C2 6.33 2 6.66 2 7 C-1.3 7.33 -4.6 7.66 -8 8 C-8 9.65 -8 11.3 -8 13 C-8.99 13.495 -8.99 13.495 -10 14 C-10.08114106 12.22992286 -10.13925505 10.45877902 -10.1875 8.6875 C-10.22230469 7.70136719 -10.25710937 6.71523438 -10.29296875 5.69921875 C-10 3 -10 3 -8.71875 1.15625 C-5.95246295 -0.70470674 -3.22735087 -0.18268024 0 0 Z " fill="#095B6A" transform="translate(120,41)"/>
<path d="M0 0 C0.66 0.99 1.32 1.98 2 3 C2.36867187 3.55171875 2.73734375 4.1034375 3.1171875 4.671875 C4.43485362 8.14678212 4.2090467 11.5907361 4.125 15.25 C4.11597656 15.99507812 4.10695312 16.74015625 4.09765625 17.5078125 C4.07418358 19.33868059 4.03831525 21.16938238 4 23 C3.67 23 3.34 23 3 23 C2.82984375 22.16597656 2.6596875 21.33195312 2.484375 20.47265625 C0.99616318 13.5619705 -0.78907251 7.30776111 -4 1 C-2.68 0.67 -1.36 0.34 0 0 Z " fill="#DEEEF1" transform="translate(221,22)"/>
<path d="M0 0 C6.27 0 12.54 0 19 0 C18.67 0.66 18.34 1.32 18 2 C17.34 2 16.68 2 16 2 C16 2.66 16 3.32 16 4 C16.99 3.67 17.98 3.34 19 3 C19.66 4.65 20.32 6.3 21 8 C20.07058594 7.57847656 19.14117187 7.15695313 18.18359375 6.72265625 C16.93509897 6.1688127 15.68638943 5.61545307 14.4375 5.0625 C13.82841797 4.78470703 13.21933594 4.50691406 12.59179688 4.22070312 C8.36406963 2.36408217 4.59658658 1.46734921 0 1 C0 0.67 0 0.34 0 0 Z " fill="#E1F0F2" transform="translate(181,0)"/>
<path d="M0 0 C0.68707555 2.49064888 1 4.37886292 1 7 C-4.65611463 7.56561146 -8.22642128 5.71391278 -13 3 C-13 2.34 -13 1.68 -13 1 C-12.09507813 1.14308594 -12.09507813 1.14308594 -11.171875 1.2890625 C-10.37265625 1.39992187 -9.5734375 1.51078125 -8.75 1.625 C-7.96109375 1.74101562 -7.1721875 1.85703125 -6.359375 1.9765625 C-3.67847541 2.00319395 -2.27305911 1.36592084 0 0 Z " fill="#0B3746" transform="translate(39,216)"/>
<path d="M0 0 C4.8 2.46153846 4.8 2.46153846 5.8125 5.1875 C5.874375 5.785625 5.93625 6.38375 6 7 C4.68 7 3.36 7 2 7 C2 7.99 2 8.98 2 10 C0.68 10.33 -0.64 10.66 -2 11 C-2 9.35 -2 7.7 -2 6 C-1.34 6 -0.68 6 0 6 C0 5.34 0 4.68 0 4 C-0.99 4.33 -1.98 4.66 -3 5 C-3 4.01 -3 3.02 -3 2 C-2.01 2 -1.02 2 0 2 C0 1.34 0 0.68 0 0 Z M-5 2 C-4.01 3.485 -4.01 3.485 -3 5 C-3.33 5.66 -3.66 6.32 -4 7 C-4.33 5.35 -4.66 3.7 -5 2 Z " fill="#073949" transform="translate(88,102)"/>
<path d="M0 0 C3.66172475 0.62678171 6.8818995 1.64451846 10.3125 3.0625 C11.19550781 3.42472656 12.07851562 3.78695313 12.98828125 4.16015625 C13.65214844 4.43730469 14.31601563 4.71445313 15 5 C14.67 5.66 14.34 6.32 14 7 C13.113125 6.814375 12.22625 6.62875 11.3125 6.4375 C8.14821189 6.01957516 6.05160358 6.19222258 3 7 C3 6.34 3 5.68 3 5 C2.34 4.67 1.68 4.34 1 4 C0.375 1.9375 0.375 1.9375 0 0 Z " fill="#0B7885" transform="translate(185,1)"/>
<path d="M0 0 C2.97 0.495 2.97 0.495 6 1 C5.67 1.66 5.34 2.32 5 3 C6.32 3 7.64 3 9 3 C9 2.34 9 1.68 9 1 C10.32 1.66 11.64 2.32 13 3 C9.37 4.32 5.74 5.64 2 7 C0 4 0 4 0 0 Z " fill="#047684" transform="translate(184,217)"/>
<path d="M0 0 C0.9796875 0.00515625 1.959375 0.0103125 2.96875 0.015625 C3.9484375 0.01046875 4.928125 0.0053125 5.9375 0 C8.46875 0.265625 8.46875 0.265625 10.46875 2.265625 C10.46875 2.925625 10.46875 3.585625 10.46875 4.265625 C5.0501734 4.49139902 0.69387279 3.73232613 -4.53125 2.265625 C-2.53125 0.265625 -2.53125 0.265625 0 0 Z " fill="#0B727E" transform="translate(172.53125,15.734375)"/>
<path d="M0 0 C3.375 -0.1875 3.375 -0.1875 7 0 C9 3 9 3 9 7 C10.32 7.33 11.64 7.66 13 8 C11.35 8.33 9.7 8.66 8 9 C7.6596875 8.071875 7.6596875 8.071875 7.3125 7.125 C5.61583557 4.3780195 3.94748289 4.13364727 1 3 C0.67 2.01 0.34 1.02 0 0 Z " fill="#0A6472" transform="translate(115,42)"/>
<path d="M0 0 C1.18771723 3.42943519 0.80226223 5.37784675 -0.4375 8.75 C-0.72496094 9.54921875 -1.01242188 10.3484375 -1.30859375 11.171875 C-1.53675781 11.77515625 -1.76492187 12.3784375 -2 13 C-2.66 13 -3.32 13 -4 13 C-4.33 13.66 -4.66 14.32 -5 15 C-5 12.69 -5 10.38 -5 8 C-4.34 7.67 -3.68 7.34 -3 7 C-3.33 6.34 -3.66 5.68 -4 5 C-2.52830189 1.26415094 -2.52830189 1.26415094 0 0 Z " fill="#082E3D" transform="translate(21,39)"/>
<path d="M0 0 C0.66 0 1.32 0 2 0 C2 0.66 2 1.32 2 2 C2.99 2.33 3.98 2.66 5 3 C6.70703125 4.20703125 6.70703125 4.20703125 8 6 C8.07421875 8.69921875 8.07421875 8.69921875 7.6875 11.6875 C7.50767578 13.17830078 7.50767578 13.17830078 7.32421875 14.69921875 C7.21722656 15.45847656 7.11023438 16.21773437 7 17 C6.67 17 6.34 17 6 17 C5.62875 15.2984375 5.62875 15.2984375 5.25 13.5625 C4.06800998 8.77458392 2.11689209 4.43930767 0 0 Z " fill="#15828B" transform="translate(200,37)"/>
<path d="M0 0 C3.10843835 -0.34538204 4.62515045 -0.23301458 7.3125 1.4375 C9.73082335 5.10976878 9.71310584 8.70478108 9 13 C8.34 13.66 7.68 14.32 7 15 C6.95101562 14.30132812 6.90203125 13.60265625 6.8515625 12.8828125 C6.77679688 11.97273438 6.70203125 11.06265625 6.625 10.125 C6.52058594 8.76761719 6.52058594 8.76761719 6.4140625 7.3828125 C6.20431868 4.82058097 6.20431868 4.82058097 4 3 C1.93125966 2.3574765 1.93125966 2.3574765 0 2 C0 1.34 0 0.68 0 0 Z " fill="#DFF0F3" transform="translate(126,112)"/>
<path d="M0 0 C1.65 0 3.3 0 5 0 C5.33 1.32 5.66 2.64 6 4 C4.68 4 3.36 4 2 4 C1.87625 4.969375 1.7525 5.93875 1.625 6.9375 C1.41875 7.948125 1.2125 8.95875 1 10 C0.01 10.495 0.01 10.495 -1 11 C-1.125 3.375 -1.125 3.375 0 0 Z " fill="#052535" transform="translate(2,36)"/>
<path d="M0 0 C4.83256305 0.41421969 6.82679218 2.46413986 10 6 C6.33694766 6.74926071 3.57644848 7.2380014 0 6 C0.185625 5.38125 0.37125 4.7625 0.5625 4.125 C1.23686176 1.95839822 1.23686176 1.95839822 0 0 Z " fill="#E9F2F4" transform="translate(184,24)"/>
<path d="M0 0 C5.68099789 0.9212429 11.33935016 1.96254994 17 3 C17 3.33 17 3.66 17 4 C11.06 4 5.12 4 -1 4 C-0.67 2.68 -0.34 1.36 0 0 Z " fill="#EAEFF0" transform="translate(28,221)"/>
<path d="M0 0 C0.99 0.33 1.98 0.66 3 1 C2.34 4.96 1.68 8.92 1 13 C-0.65 12.67 -2.3 12.34 -4 12 C-3.34 11.34 -2.68 10.68 -2 10 C-1.5769311 7.83000806 -1.5769311 7.83000806 -1.4375 5.4375 C-1.09722222 1.09722222 -1.09722222 1.09722222 0 0 Z " fill="#0F7F8E" transform="translate(141,152)"/>
<path d="M0 0 C5.53846154 0.61538462 5.53846154 0.61538462 7.875 2.5625 C8.431875 3.2740625 8.431875 3.2740625 9 4 C8.01 4.99 7.02 5.98 6 7 C5.01 6.67 4.02 6.34 3 6 C3 5.34 3 4.68 3 4 C1.68 3.67 0.36 3.34 -1 3 C-0.34 2.67 0.32 2.34 1 2 C0.67 1.34 0.34 0.68 0 0 Z " fill="#167686" transform="translate(126,48)"/>
<path d="M0 0 C0.99 0.33 1.98 0.66 3 1 C2.67 1.99 2.34 2.98 2 4 C1.4225 4.268125 0.845 4.53625 0.25 4.8125 C-3.04464314 6.55133944 -4.71200698 9.07645336 -7 12 C-7.33 11.34 -7.66 10.68 -8 10 C-7.04367001 8.70684939 -6.08486149 7.41553147 -5.125 6.125 C-4.59132813 5.40570313 -4.05765625 4.68640625 -3.5078125 3.9453125 C-2 2 -2 2 0 0 Z " fill="#E1E8EA" transform="translate(32,28)"/>
<path d="M0 0 C0.99 0 1.98 0 3 0 C3.33 0.66 3.66 1.32 4 2 C2.35 3.98 0.7 5.96 -1 8 C-2.32 7.34 -3.64 6.68 -5 6 C-5 5.34 -5 4.68 -5 4 C-3.35 3.34 -1.7 2.68 0 2 C0 1.34 0 0.68 0 0 Z " fill="#0D6571" transform="translate(123,132)"/>
<path d="M0 0 C1.98 0 3.96 0 6 0 C5.34 2.64 4.68 5.28 4 8 C3.01 7.67 2.02 7.34 1 7 C0.67 4.69 0.34 2.38 0 0 Z " fill="#038191" transform="translate(216,184)"/>
<path d="M0 0 C0.66 0 1.32 0 2 0 C2.33 1.65 2.66 3.3 3 5 C4.299375 5.12375 5.59875 5.2475 6.9375 5.375 C9.15234375 5.5859375 9.15234375 5.5859375 11 6 C11.33 6.66 11.66 7.32 12 8 C8.04 8 4.08 8 0 8 C-1 3 -1 3 0 0 Z " fill="#127584" transform="translate(132,56)"/>
<path d="M0 0 C3.53233755 1.17744585 3.86308075 1.95605641 5.6875 5.0625 C6.12449219 5.79597656 6.56148438 6.52945313 7.01171875 7.28515625 C7.33785156 7.85105469 7.66398437 8.41695312 8 9 C6.68 9 5.36 9 4 9 C2.01388388 7.01388388 1.08545288 5.55856751 0 3 C0 2.01 0 1.02 0 0 Z " fill="#145C68" transform="translate(108,129)"/>
<path d="M0 0 C1.98 1.65 3.96 3.3 6 5 C5.67 6.65 5.34 8.3 5 10 C3.68 10 2.36 10 1 10 C0.67 6.7 0.34 3.4 0 0 Z " fill="#048091" transform="translate(207,14)"/>
<path d="M0 0 C1.65 0.99 3.3 1.98 5 3 C4.67 4.65 4.34 6.3 4 8 C2.68 8.33 1.36 8.66 0 9 C0 6 0 3 0 0 Z " fill="#0B7C89" transform="translate(200,7)"/>
<path d="M0 0 C-0.66 1.65 -1.32 3.3 -2 5 C-4.31 5.33 -6.62 5.66 -9 6 C-8.67 5.01 -8.34 4.02 -8 3 C-7.34 3 -6.68 3 -6 3 C-6 2.34 -6 1.68 -6 1 C-3.92446352 0.4465236 -2.15634036 0 0 0 Z M-11 6 C-10.34 6.33 -9.68 6.66 -9 7 C-9.99 7 -10.98 7 -12 7 C-11.67 6.67 -11.34 6.34 -11 6 Z " fill="#066C7D" transform="translate(130,128)"/>
<path d="M0 0 C2.31 0 4.62 0 7 0 C3.375 6.875 3.375 6.875 0 8 C0.185625 7.05125 0.37125 6.1025 0.5625 5.125 C1.28686632 2.10131207 1.28686632 2.10131207 0 0 Z " fill="#0E5160" transform="translate(104,112)"/>
<path d="M0 0 C3 3 3 3 3.29296875 5.48046875 C3.25816406 6.37378906 3.22335938 7.26710938 3.1875 8.1875 C3.16042969 9.08855469 3.13335937 9.98960938 3.10546875 10.91796875 C3.07066406 11.60503906 3.03585938 12.29210937 3 13 C2.67 12.34 2.34 11.68 2 11 C1.34 11 0.68 11 0 11 C0 7.37 0 3.74 0 0 Z " fill="#218C97" transform="translate(144,64)"/>
<path d="M0 0 C0.33 0 0.66 0 1 0 C1.36471355 2.22746539 1.71635972 4.45707292 2.0625 6.6875 C2.25972656 7.92886719 2.45695313 9.17023438 2.66015625 10.44921875 C2.96752656 13.66070857 2.84273231 15.91783919 2 19 C1.34 19 0.68 19 0 19 C0 12.73 0 6.46 0 0 Z " fill="#088394" transform="translate(144,128)"/>
<path d="M0 0 C0.625 1.875 0.625 1.875 1 4 C0.34 4.66 -0.32 5.32 -1 6 C-1.69748583 7.31747324 -2.36959957 8.64914193 -3 10 C-3.8252404 6.69903842 -4.37001429 4.1967 -3 1 C-2.01 0.67 -1.02 0.34 0 0 Z " fill="#037A8A" transform="translate(206,182)"/>
<path d="M0 0 C1.32 0.33 2.64 0.66 4 1 C3.34 1.66 2.68 2.32 2 3 C1.53709779 5.66242821 1.53709779 5.66242821 1.375 8.625 C1.30023438 9.62789062 1.22546875 10.63078125 1.1484375 11.6640625 C1.09945312 12.43492187 1.05046875 13.20578125 1 14 C1.99 14.33 2.98 14.66 4 15 C2.68 15.33 1.36 15.66 0 16 C0 10.72 0 5.44 0 0 Z " fill="#043747" transform="translate(95,168)"/>
<path d="M0 0 C0.99 0.99 1.98 1.98 3 3 C2.25 4.9375 2.25 4.9375 1 7 C-1.125 7.75 -1.125 7.75 -3 8 C-3 4.42424104 -1.91159393 2.94704065 0 0 Z " fill="#0E7484" transform="translate(133,128)"/>
<path d="M0 0 C1.1484375 1.734375 1.1484375 1.734375 2 4 C1.1015625 6.140625 1.1015625 6.140625 -0.375 8.25 C-0.85710937 8.95640625 -1.33921875 9.6628125 -1.8359375 10.390625 C-2.22007812 10.92171875 -2.60421875 11.4528125 -3 12 C-3.99 11.34 -4.98 10.68 -6 10 C-5.65066406 9.52949219 -5.30132812 9.05898437 -4.94140625 8.57421875 C-4.48636719 7.95160156 -4.03132813 7.32898438 -3.5625 6.6875 C-2.88380859 5.76517578 -2.88380859 5.76517578 -2.19140625 4.82421875 C-0.82663692 2.90322899 -0.82663692 2.90322899 0 0 Z " fill="#CDE4E5" transform="translate(132,124)"/>
<path d="M0 0 C0.99 0.33 1.98 0.66 3 1 C3 1.66 3 2.32 3 3 C2.01 3 1.02 3 0 3 C0.33 5.97 0.66 8.94 1 12 C-1.61973266 9.38026734 -1.70813314 7.64833578 -2 4 C-1.0625 1.625 -1.0625 1.625 0 0 Z " fill="#215E66" transform="translate(111,115)"/>
<path d="M0 0 C-2.5654594 2.5654594 -4.47686668 2.54046087 -8 3 C-8.33 1.68 -8.66 0.36 -9 -1 C-5.23375329 -2.25541557 -3.62811066 -1.37061958 0 0 Z " fill="#033743" transform="translate(50,18)"/>
<path d="M0 0 C1.65 0 3.3 0 5 0 C5 2.31 5 4.62 5 7 C4.01 6.67 3.02 6.34 2 6 C0.8125 2.9375 0.8125 2.9375 0 0 Z " fill="#102D3F" transform="translate(3,192)"/>
<path d="M0 0 C1.9451 2.91765 2.45276317 4.62537285 3 8 C1.1875 7.875 1.1875 7.875 -1 7 C-2.75 3.9375 -2.75 3.9375 -4 1 C-2.68 0.67 -1.36 0.34 0 0 Z " fill="#E9F3F4" transform="translate(221,22)"/>
<path d="M0 0 C1.32 0.66 2.64 1.32 4 2 C1.36 3.65 -1.28 5.3 -4 7 C-4.33 5.68 -4.66 4.36 -5 3 C-2.75 1.375 -2.75 1.375 0 0 Z " fill="#164050" transform="translate(37,21)"/>
<path d="M0 0 C0.66 0 1.32 0 2 0 C1.34 2.31 0.68 4.62 0 7 C-1.32 7.33 -2.64 7.66 -4 8 C-2.87548273 5.0280615 -1.77706209 2.66559313 0 0 Z " fill="#20868E" transform="translate(201,185)"/>
<path d="M0 0 C-0.33 0.99 -0.66 1.98 -1 3 C-0.67 3.99 -0.34 4.98 0 6 C-2.62187494 4.95125002 -3.79371361 4.35068687 -5.25 1.875 C-5.4975 1.25625 -5.745 0.6375 -6 0 C-3.50907189 -1.24546405 -2.58919267 -0.7767578 0 0 Z " fill="#11414D" transform="translate(94,121)"/>
<path d="M0 0 C2.475 0.495 2.475 0.495 5 1 C5 2.98 5 4.96 5 7 C4.34 7 3.68 7 3 7 C3 6.34 3 5.68 3 5 C2.34 4.67 1.68 4.34 1 4 C0.375 1.9375 0.375 1.9375 0 0 Z " fill="#147D8A" transform="translate(185,1)"/>
<path d="M0 0 C1.65 0 3.3 0 5 0 C4.40138258 2.35171131 3.73075648 4.6859378 3 7 C2.01 7.495 2.01 7.495 1 8 C0.67 5.36 0.34 2.72 0 0 Z " fill="#02303E" transform="translate(16,184)"/>
<path d="M0 0 C1.65 0 3.3 0 5 0 C5 0.66 5 1.32 5 2 C4.01 2.33 3.02 2.66 2 3 C2 5.31 2 7.62 2 10 C1.01 10.495 1.01 10.495 0 11 C0 7.37 0 3.74 0 0 Z " fill="#08525D" transform="translate(110,44)"/>
<path d="M0 0 C2.5 0.1875 2.5 0.1875 5 1 C5.66 1.99 6.32 2.98 7 4 C2.545 3.01 2.545 3.01 -2 2 C-1.34 1.34 -0.68 0.68 0 0 Z " fill="#1D747E" transform="translate(126,114)"/>
<path d="M0 0 C1.32 0.66 2.64 1.32 4 2 C-2.625 5.125 -2.625 5.125 -6 4 C-4.02 3.34 -2.04 2.68 0 2 C0 1.34 0 0.68 0 0 Z " fill="#0F727E" transform="translate(193,218)"/>
<path d="M0 0 C2.31 0 4.62 0 7 0 C7.33 0.99 7.66 1.98 8 3 C5.36 2.67 2.72 2.34 0 2 C0 1.34 0 0.68 0 0 Z " fill="#104254" transform="translate(46,16)"/>
<path d="M0 0 C1.65 0.33 3.3 0.66 5 1 C5 1.66 5 2.32 5 3 C4.01 3 3.02 3 2 3 C1.34 3.66 0.68 4.32 0 5 C-0.33 4.01 -0.66 3.02 -1 2 C-0.67 1.34 -0.34 0.68 0 0 Z " fill="#063947" transform="translate(28,24)"/>
<path d="M0 0 C0.33 0 0.66 0 1 0 C0.67 2.31 0.34 4.62 0 7 C-0.99 6.67 -1.98 6.34 -3 6 C-1.125 1.125 -1.125 1.125 0 0 Z " fill="#027685" transform="translate(191,16)"/>
<path d="M0 0 C2.475 0.495 2.475 0.495 5 1 C5 1.66 5 2.32 5 3 C4.34 3 3.68 3 3 3 C3 3.99 3 4.98 3 6 C2.01 6 1.02 6 0 6 C0.185625 5.38125 0.37125 4.7625 0.5625 4.125 C1.23686176 1.95839822 1.23686176 1.95839822 0 0 Z " fill="#04394B" transform="translate(37,2)"/>
</svg>
