<?xml version="1.0" encoding="UTF-8"?>
<svg version="1.1" xmlns="http://www.w3.org/2000/svg" width="225" height="225">
<path d="M0 0 C74.25 0 148.5 0 225 0 C225 74.25 225 148.5 225 225 C150.75 225 76.5 225 0 225 C0 150.75 0 76.5 0 0 Z " fill="#FEFEFD" transform="translate(0,0)"/>
<path d="M0 0 C1.99343242 0.91468195 3.86497911 1.96718937 5.7734375 3.046875 C9.33910036 4.57322893 12.93863813 4.63941174 16.77734375 4.82421875 C19 5 19 5 20 6 C19.62056512 10.09789669 19.30694043 12.53958935 17 16 C9.29061416 17.33501065 2.71156197 15.79643909 -4 12 C-3.9175 12.886875 -3.835 13.77375 -3.75 14.6875 C-4 18 -4 18 -6 20.375 C-8.27150634 23.35635208 -8.51547906 25.28746312 -8.33984375 29.00390625 C-7.83053861 31.99534221 -6.49317147 34.38694993 -5 37 C-5 37.66 -5 38.32 -5 39 C-4.34 38.835 -3.68 38.67 -3 38.5 C0.73099794 37.87816701 4.21873378 37.93591074 8 38 C8.33 38.99 8.66 39.98 9 41 C7.02 41 5.04 41 3 41 C3 41.66 3 42.32 3 43 C4.98 43.66 6.96 44.32 9 45 C8.25 49.75 8.25 49.75 6 52 C5.01 52 4.02 52 3 52 C3 52.66 3 53.32 3 54 C3.8353125 54.37125 3.8353125 54.37125 4.6875 54.75 C10.01067187 57.6273902 12.56214915 60.4874982 15 66 C15.77058815 68.60671372 16.48210848 71.17664475 17.125 73.8125 C17.90037191 78.2617093 17.90037191 78.2617093 20 82 C20.04092937 84.33297433 20.04241723 86.66705225 20 89 C21.98 88.67 23.96 88.34 26 88 C25.505 89.485 25.505 89.485 25 91 C28.3 91.33 31.6 91.66 35 92 C35 90.02 35 88.04 35 86 C32.03 85.67 29.06 85.34 26 85 C26.33 80.38 26.66 75.76 27 71 C32.28 71 37.56 71 43 71 C43 74.63 43 78.26 43 82 C43.66 82 44.32 82 45 82 C45 79.69 45 77.38 45 75 C50.75 74.875 50.75 74.875 53 76 C52.979375 75.195625 52.95875 74.39125 52.9375 73.5625 C53 71 53 71 54 70 C59.62498715 69.55000103 63.06143138 70.58110925 68 73 C67.67 76.3 67.34 79.6 67 83 C65.68 83 64.36 83 63 83 C62.67 81.02 62.34 79.04 62 77 C61.70996094 77.97839844 61.70996094 77.97839844 61.4140625 78.9765625 C60.01359552 83.6771398 58.58791274 88.35840891 57 93 C59.43717258 92.72965366 59.43717258 92.72965366 62 92 C62.99 90.515 62.99 90.515 64 89 C64.66 89 65.32 89 66 89 C66 88.34 66 87.68 66 87 C66.66 87 67.32 87 68 87 C68.33 89.31 68.66 91.62 69 94 C71.6465335 91.3534665 72.59941997 88.43778736 74 85 C74.66 85 75.32 85 76 85 C76.0825 84.278125 76.165 83.55625 76.25 82.8125 C77.14750201 79.44686746 78.7114278 77.58387184 81 75 C80.4225 74.7525 79.845 74.505 79.25 74.25 C75.5735571 72.20753172 73.49739123 70.09426071 71.75 66.25 C70.32705887 60.08392178 70.86495705 54.17967827 72 48 C72.33 47.67 72.66 47.34 73 47 C72.938125 46.0925 72.87625 45.185 72.8125 44.25 C73.04540743 40.21293784 74.17916497 38.82083503 77 36 C77.99 35.67 78.98 35.34 80 35 C80.45890625 35.59167969 80.9178125 36.18335938 81.390625 36.79296875 C82.65339148 38.41917853 83.91777162 40.04413632 85.18359375 41.66796875 C86.56491864 43.44141167 87.94012528 45.21962199 89.3125 47 C90.8502393 49.08978966 90.8502393 49.08978966 93 50 C93 50.66 93 51.32 93 52 C93.66 52 94.32 52 95 52 C95 52.66 95 53.32 95 54 C95.99 54 96.98 54 98 54 C98.33 53.01 98.66 52.02 99 51 C100.65 51.33 102.3 51.66 104 52 C104.12524851 58.51292247 104.12524851 58.51292247 103.4375 61.1875 C102.89978278 63.41518561 103.30718474 64.84457475 104 67 C104.639375 67.0825 105.27875 67.165 105.9375 67.25 C110.20541517 68.29520372 114.03107667 70.14091826 118 72 C118 72.66 118 73.32 118 74 C118.66 74 119.32 74 120 74 C120 74.66 120 75.32 120 76 C120.99 76.33 121.98 76.66 123 77 C125.33000124 80.82741536 127.10187375 84.9440039 129 89 C129.38671875 89.73734375 129.7734375 90.4746875 130.171875 91.234375 C132.78107739 96.41263821 133.82908258 101.60726803 134.78149414 107.30957031 C135.44332842 111.21737458 136.2331648 115.03015278 137.26171875 118.859375 C140.07085057 129.36936782 141.58508804 139.22616417 141.72314453 150.12695312 C141.84101366 158.67917883 142.91144773 166.29158187 144 175 C120.9 175 97.8 175 74 175 C74.33 172.36 74.66 169.72 75 167 C75.07468938 164.77184714 75.10837442 162.54187857 75.09765625 160.3125 C75.09443359 159.12011719 75.09121094 157.92773438 75.08789062 156.69921875 C75.07951172 155.47847656 75.07113281 154.25773438 75.0625 153 C75.05573242 151.12248047 75.05573242 151.12248047 75.04882812 149.20703125 C75.03711415 146.13797059 75.02071073 143.06901093 75 140 C71.51190809 140.77030122 71.51190809 140.77030122 68 142 C67.67 142.99 67.34 143.98 67 145 C66.34 145 65.68 145 65 145 C64.01 147.97 64.01 147.97 63 151 C53.84171785 151.26418122 44.81758328 150.86798238 35.6875 150.125 C34.68654297 150.04652832 33.68558594 149.96805664 32.65429688 149.88720703 C26.32496614 149.34233239 20.19901268 148.38853795 14 147 C14 146.01 14 145.02 14 144 C12.14375 143.8453125 12.14375 143.8453125 10.25 143.6875 C6.74317752 143.25225608 4.52430313 142.62948243 2 140 C2 139.34 2 138.68 2 138 C0.68 138 -0.64 138 -2 138 C-1.84853516 138.83660156 -1.69707031 139.67320312 -1.54101562 140.53515625 C-0.97639571 143.67270569 -0.41804602 146.81129172 0.13623047 149.95068359 C0.37627912 151.30301138 0.61874186 152.65491315 0.86376953 154.00634766 C1.21778769 155.96139486 1.56208808 157.91819367 1.90625 159.875 C2.11572266 161.04804688 2.32519531 162.22109375 2.54101562 163.4296875 C3 167 3 167 3 175 C-6.24 175 -15.48 175 -25 175 C-25.495 170.545 -25.495 170.545 -26 166 C-26.33 166 -26.66 166 -27 166 C-27.66 168.97 -28.32 171.94 -29 175 C-39.89 175 -50.78 175 -62 175 C-62.21131773 130.62327665 -62.21131773 130.62327665 -59.01635742 111.04418945 C-57.98261072 104.21660857 -57.87706997 97.58349583 -58 90.6875 C-58.43075084 64.07431255 -58.43075084 64.07431255 -51 55 C-44.89011275 49.16562491 -32.3463698 45 -24 45 C-24 44.34 -24 43.68 -24 43 C-23.34 42.67 -22.68 42.34 -22 42 C-21.83618654 37.00368942 -21.99832698 32.52755459 -23 27.625 C-25.9061863 12.8657253 -25.9061863 12.8657253 -22 7 C-20.33000706 6.21412097 -18.65061218 5.43945931 -16.921875 4.79296875 C-14.95600346 3.98184696 -13.33935027 2.97397323 -11.5625 1.8125 C-7.53707795 -0.23552174 -4.3949368 -0.8738967 0 0 Z " fill="#FCCE88" transform="translate(72,25)"/>
<path d="M0 0 C1.99343242 0.91468195 3.86497911 1.96718937 5.7734375 3.046875 C9.33910036 4.57322893 12.93863813 4.63941174 16.77734375 4.82421875 C19 5 19 5 20 6 C19.62056512 10.09789669 19.30694043 12.53958935 17 16 C9.29061416 17.33501065 2.71156197 15.79643909 -4 12 C-3.9175 12.886875 -3.835 13.77375 -3.75 14.6875 C-4 18 -4 18 -6 20.375 C-8.27150634 23.35635208 -8.51547906 25.28746312 -8.33984375 29.00390625 C-7.83053861 31.99534221 -6.49317147 34.38694993 -5 37 C-5 37.66 -5 38.32 -5 39 C-4.34 38.835 -3.68 38.67 -3 38.5 C0.73099794 37.87816701 4.21873378 37.93591074 8 38 C8.33 38.99 8.66 39.98 9 41 C7.02 41 5.04 41 3 41 C3 41.66 3 42.32 3 43 C4.98 43.66 6.96 44.32 9 45 C8.25 49.75 8.25 49.75 6 52 C5.01 52 4.02 52 3 52 C3 52.66 3 53.32 3 54 C3.8353125 54.37125 3.8353125 54.37125 4.6875 54.75 C11.32347056 58.33701111 13.76558869 62.42670411 16.1875 69.4375 C17.01858013 73.08146673 17.15199745 76.27606239 17 80 C15.68 80 14.36 80 13 80 C13.495 81.546875 13.495 81.546875 14 83.125 C14.9715192 86.48426709 15.17116771 89.49106202 15 93 C11.62902617 94.49821059 9.79557881 95 6 95 C5.96261719 95.680625 5.92523438 96.36125 5.88671875 97.0625 C5.28940318 105.86997666 3.74263153 114.36356199 2 123 C2.66 123.33 3.32 123.66 4 124 C4.78375 124.495 5.5675 124.99 6.375 125.5 C8.82870996 127.08564502 8.82870996 127.08564502 11.1875 127.4375 C13 128 13 128 14.0625 130 C14.371875 130.66 14.68125 131.32 15 132 C15.99 132.33 16.98 132.66 18 133 C18 133.66 18 134.32 18 135 C19.98 135.33 21.96 135.66 24 136 C24 138.31 24 140.62 24 143 C25.3303125 143.1546875 25.3303125 143.1546875 26.6875 143.3125 C30.06813046 144.01414028 32.19723718 145.02157918 35 147 C35 147.33 35 147.66 35 148 C32.62492145 148.02719556 30.25016036 148.04693247 27.875 148.0625 C27.20984375 148.07087891 26.5446875 148.07925781 25.859375 148.08789062 C21.79318646 148.10782292 17.9879908 147.78890161 14 147 C14 146.01 14 145.02 14 144 C12.14375 143.8453125 12.14375 143.8453125 10.25 143.6875 C6.74317752 143.25225608 4.52430313 142.62948243 2 140 C2 139.34 2 138.68 2 138 C0.68 138 -0.64 138 -2 138 C-1.84853516 138.83660156 -1.69707031 139.67320312 -1.54101562 140.53515625 C-0.97639571 143.67270569 -0.41804602 146.81129172 0.13623047 149.95068359 C0.37627912 151.30301138 0.61874186 152.65491315 0.86376953 154.00634766 C1.21778769 155.96139486 1.56208808 157.91819367 1.90625 159.875 C2.11572266 161.04804688 2.32519531 162.22109375 2.54101562 163.4296875 C3 167 3 167 3 175 C-6.24 175 -15.48 175 -25 175 C-25.495 170.545 -25.495 170.545 -26 166 C-26.33 166 -26.66 166 -27 166 C-27.66 168.97 -28.32 171.94 -29 175 C-39.89 175 -50.78 175 -62 175 C-62.21131773 130.62327665 -62.21131773 130.62327665 -59.01635742 111.04418945 C-57.98261072 104.21660857 -57.87706997 97.58349583 -58 90.6875 C-58.43075084 64.07431255 -58.43075084 64.07431255 -51 55 C-44.89011275 49.16562491 -32.3463698 45 -24 45 C-24 44.34 -24 43.68 -24 43 C-23.34 42.67 -22.68 42.34 -22 42 C-21.83618654 37.00368942 -21.99832698 32.52755459 -23 27.625 C-25.9061863 12.8657253 -25.9061863 12.8657253 -22 7 C-20.33000706 6.21412097 -18.65061218 5.43945931 -16.921875 4.79296875 C-14.95600346 3.98184696 -13.33935027 2.97397323 -11.5625 1.8125 C-7.53707795 -0.23552174 -4.3949368 -0.8738967 0 0 Z " fill="#EB5249" transform="translate(72,25)"/>
<path d="M0 0 C0.37632556 2.05509037 0.70093601 4.11975289 1 6.1875 C2.03963094 10.99972389 2.03963094 10.99972389 4.8203125 14.9140625 C7.47196687 16.52303244 10.15751755 17.75554732 13 19 C14.3419782 19.67945264 15.68029547 20.36616583 17.015625 21.05859375 C24.55272177 24.89030693 31.34327365 27.83699614 39.875 28.6484375 C40.57625 28.76445312 41.2775 28.88046875 42 29 C42.495 29.99 42.495 29.99 43 31 C45.06390239 32.20987382 46.76278885 32.95813921 49.125 33.375 C51 34 51 34 52.0625 36 C52.371875 36.66 52.68125 37.32 53 38 C54.485 38.495 54.485 38.495 56 39 C56 39.66 56 40.32 56 41 C57.98 41.33 59.96 41.66 62 42 C62 44.31 62 46.62 62 49 C62.886875 49.103125 63.77375 49.20625 64.6875 49.3125 C68.06813046 50.01414028 70.19723718 51.02157918 73 53 C73 53.33 73 53.66 73 54 C70.62492145 54.02719556 68.25016036 54.04693247 65.875 54.0625 C64.87726563 54.07506836 64.87726563 54.07506836 63.859375 54.08789062 C59.79318646 54.10782292 55.9879908 53.78890161 52 53 C52 52.01 52 51.02 52 50 C50.7625 49.896875 49.525 49.79375 48.25 49.6875 C44.74317752 49.25225608 42.52430313 48.62948243 40 46 C40 45.34 40 44.68 40 44 C38.68 44 37.36 44 36 44 C36.22719727 45.25490234 36.22719727 45.25490234 36.45898438 46.53515625 C37.02360429 49.67270569 37.58195398 52.81129172 38.13623047 55.95068359 C38.37627912 57.30301138 38.61874186 58.65491315 38.86376953 60.00634766 C39.21778769 61.96139486 39.56208808 63.91819367 39.90625 65.875 C40.11572266 67.04804688 40.32519531 68.22109375 40.54101562 69.4296875 C41 73 41 73 41 81 C31.76 81 22.52 81 13 81 C12.505 76.545 12.505 76.545 12 72 C11.67 72 11.34 72 11 72 C10.34 74.97 9.68 77.94 9 81 C-1.89 81 -12.78 81 -24 81 C-24.2165723 35.51981732 -24.2165723 35.51981732 -21.01635742 16.13671875 C-20.13171455 10.68132998 -19.87244166 5.52937686 -20 0 C-17.04196565 -0.19421438 -14.08379837 -0.38066186 -11.125 -0.5625 C-10.28324219 -0.61857422 -9.44148438 -0.67464844 -8.57421875 -0.73242188 C-7.76855469 -0.78076172 -6.96289062 -0.82910156 -6.1328125 -0.87890625 C-5.38918457 -0.9260376 -4.64555664 -0.97316895 -3.87939453 -1.02172852 C-2 -1 -2 -1 0 0 Z " fill="#FCAE8C" transform="translate(34,119)"/>
<path d="M0 0 C4.41355564 0.28474553 6.94532123 1.32525938 10.875 3.25 C10.545 6.55 10.215 9.85 9.875 13.25 C8.555 13.25 7.235 13.25 5.875 13.25 C5.38 10.28 5.38 10.28 4.875 7.25 C4.68164062 7.90226562 4.48828125 8.55453125 4.2890625 9.2265625 C2.88859552 13.9271398 1.46291274 18.60840891 -0.125 23.25 C2.31217258 22.97965366 2.31217258 22.97965366 4.875 22.25 C5.535 21.26 6.195 20.27 6.875 19.25 C7.535 19.25 8.195 19.25 8.875 19.25 C8.875 18.59 8.875 17.93 8.875 17.25 C9.535 17.25 10.195 17.25 10.875 17.25 C11.37 20.715 11.37 20.715 11.875 24.25 C14.09689824 22.02810176 14.80098892 20.16517292 15.875 17.25 C16.865 17.25 17.855 17.25 18.875 17.25 C19.6875 19.375 19.6875 19.375 19.875 22.25 C17.5625 25.25 17.5625 25.25 16.19921875 26.625 C12.35299388 31.34485117 12.47007154 36.75352827 12.25 42.5625 C12.21132812 43.39845703 12.17265625 44.23441406 12.1328125 45.09570312 C12.03904841 47.14679259 11.95595755 49.19836515 11.875 51.25 C14.185 51.25 16.495 51.25 18.875 51.25 C18.875 52.9 18.875 54.55 18.875 56.25 C17.555 56.58 16.235 56.91 14.875 57.25 C15.019375 57.94867188 15.16375 58.64734375 15.3125 59.3671875 C15.498125 60.27726562 15.68375 61.18734375 15.875 62.125 C16.060625 63.02992188 16.24625 63.93484375 16.4375 64.8671875 C16.875 67.25 16.875 67.25 16.875 69.25 C15.225 69.25 13.575 69.25 11.875 69.25 C11.215 71.23 10.555 73.21 9.875 75.25 C9.215 75.25 8.555 75.25 7.875 75.25 C7.215 77.23 6.555 79.21 5.875 81.25 C-7.20804907 81.62739565 -20.10757939 80.46618838 -33.125 79.25 C-33.125 78.92 -33.125 78.59 -33.125 78.25 C-28.175 77.755 -28.175 77.755 -23.125 77.25 C-26.425 75.93 -29.725 74.61 -33.125 73.25 C-33.125 70.94 -33.125 68.63 -33.125 66.25 C-35.105 65.92 -37.085 65.59 -39.125 65.25 C-39.125 64.59 -39.125 63.93 -39.125 63.25 C-39.74375 63.1675 -40.3625 63.085 -41 63 C-43.125 62.25 -43.125 62.25 -44.1875 60.25 C-44.496875 59.59 -44.80625 58.93 -45.125 58.25 C-46.115 57.92 -47.105 57.59 -48.125 57.25 C-48.455 57.91 -48.785 58.57 -49.125 59.25 C-49.125 58.26 -49.125 57.27 -49.125 56.25 C-50.775 55.92 -52.425 55.59 -54.125 55.25 C-55.00785462 51.00899745 -55.1031809 47.67247414 -54.34765625 43.4140625 C-54.16396484 42.35058594 -53.98027344 41.28710938 -53.79101562 40.19140625 C-53.59185547 39.09699219 -53.39269531 38.00257813 -53.1875 36.875 C-52.99220703 35.75738281 -52.79691406 34.63976562 -52.59570312 33.48828125 C-52.11425567 30.74050799 -51.62377122 27.99467223 -51.125 25.25 C-48.485 24.59 -45.845 23.93 -43.125 23.25 C-43.455 18.96 -43.785 14.67 -44.125 10.25 C-42.805 10.25 -41.485 10.25 -40.125 10.25 C-39.795 9.26 -39.465 8.27 -39.125 7.25 C-37.12714565 11.3705746 -36.94664485 14.70194365 -37.125 19.25 C-35.145 18.92 -33.165 18.59 -31.125 18.25 C-31.455 19.24 -31.785 20.23 -32.125 21.25 C-28.825 21.58 -25.525 21.91 -22.125 22.25 C-22.125 20.27 -22.125 18.29 -22.125 16.25 C-25.095 15.92 -28.065 15.59 -31.125 15.25 C-30.795 10.63 -30.465 6.01 -30.125 1.25 C-24.845 1.25 -19.565 1.25 -14.125 1.25 C-14.125 4.88 -14.125 8.51 -14.125 12.25 C-13.465 12.25 -12.805 12.25 -12.125 12.25 C-12.125 9.94 -12.125 7.63 -12.125 5.25 C-6.375 5.125 -6.375 5.125 -4.125 6.25 C-4.145625 5.445625 -4.16625 4.64125 -4.1875 3.8125 C-4.09559714 0.04448278 -3.82368679 0.30589494 0 0 Z " fill="#EBC4A2" transform="translate(129.125,94.75)"/>
<path d="M0 0 C5.80631946 1.20508517 11.30046191 3.09051958 16.875 5.09765625 C23.61432598 7.04363663 30.40962494 7.19311894 37.375 7.1875 C38.20555908 7.18814453 39.03611816 7.18878906 39.8918457 7.18945312 C45.82496465 7.1383606 51.24102639 6.51055046 57 5 C59.05940629 10.51030333 60.0827115 16.10767031 61.125 21.875 C61.30675781 22.83019531 61.48851562 23.78539062 61.67578125 24.76953125 C61.93294922 26.17912109 61.93294922 26.17912109 62.1953125 27.6171875 C62.35016113 28.45878418 62.50500977 29.30038086 62.66455078 30.16748047 C63.0894108 33.75498117 63 37.38742927 63 41 C53.76 41 44.52 41 35 41 C34.505 36.545 34.505 36.545 34 32 C33.67 32 33.34 32 33 32 C32.34 34.97 31.68 37.94 31 41 C20.11 41 9.22 41 -2 41 C-2.020625 36.441875 -2.04125 31.88375 -2.0625 27.1875 C-2.071604 25.77364014 -2.08070801 24.35978027 -2.09008789 22.90307617 C-2.12237183 8.03684404 -2.12237183 8.03684404 -1 1 C-0.67 0.67 -0.34 0.34 0 0 Z " fill="#553322" transform="translate(12,159)"/>
<path d="M0 0 C3.8075302 3.66240013 6.96220391 7.68902881 10.1953125 11.85546875 C11.82213654 14.07623502 11.82213654 14.07623502 14 15 C14 15.66 14 16.32 14 17 C14.66 17 15.32 17 16 17 C16 17.66 16 18.32 16 19 C16.99 19 17.98 19 19 19 C19.33 18.01 19.66 17.02 20 16 C21.65 16.33 23.3 16.66 25 17 C25.12549801 23.52589641 25.12549801 23.52589641 24.4375 26.125 C23.84318395 28.67206878 24.26133514 30.5154 25 33 C25.99 33.495 25.99 33.495 27 34 C26.34 34 25.68 34 25 34 C25.10441406 34.83917969 25.10441406 34.83917969 25.2109375 35.6953125 C25.65589513 42.2849231 24.01531057 46.86958615 21.28588867 52.83349609 C16.45189558 63.47316807 16.47620274 74.49594432 16 86 C12.04 86.99 8.08 87.98 4 89 C3.97282563 85.66661086 3.95307686 82.33344721 3.9375 79 C3.92912109 78.06542969 3.92074219 77.13085938 3.91210938 76.16796875 C3.89291108 70.67725599 4.1865807 65.43133519 5 60 C4.34 60 3.68 60 3 60 C3.14648438 56.97265625 3.14648438 56.97265625 3.29296875 53.9453125 C3.19628906 53.30335937 3.09960938 52.66140625 3 52 C2.01 51.34 1.02 50.68 0 50 C-0.33 51.98 -0.66 53.96 -1 56 C-1.66 56 -2.32 56 -3 56 C-3 54.68 -3 53.36 -3 52 C-3.66 52 -4.32 52 -5 52 C-5 51.34 -5 50.68 -5 50 C-4.34 50 -3.68 50 -3 50 C-2.9175 49.278125 -2.835 48.55625 -2.75 47.8125 C-1.85249799 44.44686746 -0.2885722 42.58387184 2 40 C1.4225 39.7525 0.845 39.505 0.25 39.25 C-3.4264429 37.20753172 -5.50260877 35.09426071 -7.25 31.25 C-8.67294113 25.08392178 -8.13504295 19.17967827 -7 13 C-6.67 12.67 -6.34 12.34 -6 12 C-6.0928125 10.63875 -6.0928125 10.63875 -6.1875 9.25 C-5.95552929 5.22917441 -4.76261289 3.84386621 -2 1 C-1.34 0.67 -0.68 0.34 0 0 Z " fill="#F9B493" transform="translate(151,60)"/>
<path d="M0 0 C0.495 8.415 0.495 8.415 1 17 C22.65733731 16.79155291 22.65733731 16.79155291 43 10 C43.66929088 13.95789432 44.33498856 17.91638458 45 21.875 C45.19078125 23.00292969 45.3815625 24.13085938 45.578125 25.29296875 C45.75859375 26.36933594 45.9390625 27.44570312 46.125 28.5546875 C46.29257813 29.54968262 46.46015625 30.54467773 46.6328125 31.56982422 C47 34 47 34 47 36 C23.9 36 0.8 36 -23 36 C-22.39028162 31.12225296 -21.76145468 26.33386743 -20.9375 21.5 C-20.76089844 20.4584375 -20.58429688 19.416875 -20.40234375 18.34375 C-20.26957031 17.5703125 -20.13679687 16.796875 -20 16 C-18.02 16 -16.04 16 -14 16 C-14 11.38 -14 6.76 -14 2 C-1.125 0 -1.125 0 0 0 Z " fill="#795240" transform="translate(169,164)"/>
<path d="M0 0 C2 1 2 1 3 3.94921875 C3.33 5.18285156 3.66 6.41648438 4 7.6875 C5.21351068 12.17654148 6.48674781 16.60211082 8 21 C8.7115625 21.11730469 9.423125 21.23460937 10.15625 21.35546875 C13.15635579 22.03543778 15.69012633 23.06581154 18.5 24.3125 C26.32660428 27.6395218 34.35512516 30.03589646 42.56640625 32.21875 C43.34282471 32.43144531 44.11924316 32.64414063 44.91918945 32.86328125 C46.45148238 33.28186509 47.9878159 33.6859761 49.52807617 34.07421875 C51.640625 34.65625 51.640625 34.65625 55 36 C56.109375 38.03125 56.109375 38.03125 56 40 C50.85005295 45.14994705 41.48407351 44.21903657 34.625 44.25 C24.15543721 44.18282217 14.93882018 43.08871992 5.26953125 38.88671875 C2.16447745 37.67355659 -0.69035697 37.28779505 -4 37 C-4.30792769 28.56941038 -3.38067827 20.61989188 -2 12.3125 C-1.80921875 11.12205078 -1.6184375 9.93160156 -1.421875 8.70507812 C-0.95552702 5.80206193 -0.4814498 2.90054295 0 0 Z " fill="#E6544B" transform="translate(15,123)"/>
<path d="M0 0 C1.99343242 0.91468195 3.86497911 1.96718937 5.7734375 3.046875 C9.33910036 4.57322893 12.93863813 4.63941174 16.77734375 4.82421875 C19 5 19 5 20 6 C19.62056512 10.09789669 19.30694043 12.53958935 17 16 C9.29061416 17.33501065 2.71156197 15.79643909 -4 12 C-3.87625 13.3303125 -3.87625 13.3303125 -3.75 14.6875 C-4 18 -4 18 -6 20.375 C-8.27150634 23.35635208 -8.51547906 25.28746312 -8.33984375 29.00390625 C-7.83053861 31.99534221 -6.49317147 34.38694993 -5 37 C-5 37.66 -5 38.32 -5 39 C-4.01 38.7525 -4.01 38.7525 -3 38.5 C0.73099794 37.87816701 4.21873378 37.93591074 8 38 C8.33 38.99 8.66 39.98 9 41 C7.02 41 5.04 41 3 41 C3 41.66 3 42.32 3 43 C4.98 43.66 6.96 44.32 9 45 C8.25 49.75 8.25 49.75 6 52 C0.96268188 52.58573466 -2.57007248 51.37903515 -7 49 C-10.89141288 44.89824048 -13.183967 41.12881412 -13.4140625 35.453125 C-13.45273437 34.60878906 -13.49140625 33.76445313 -13.53125 32.89453125 C-13.5621875 32.02183594 -13.593125 31.14914063 -13.625 30.25 C-13.66367187 29.36183594 -13.70234375 28.47367188 -13.7421875 27.55859375 C-13.83620873 25.3726002 -13.92186143 23.18660938 -14 21 C-15.65 21.66 -17.3 22.32 -19 23 C-19.061875 24.27875 -19.12375 25.5575 -19.1875 26.875 C-19.22230469 27.59429687 -19.25710937 28.31359375 -19.29296875 29.0546875 C-19.19628906 29.69664063 -19.09960938 30.33859375 -19 31 C-18.01 31.66 -17.02 32.32 -16 33 C-16.66 34.32 -17.32 35.64 -18 37 C-23.00972446 31.99027554 -24.2641414 22.79225646 -24.375 15.9375 C-24.3223674 12.43743233 -23.9454076 9.95365872 -22 7 C-20.33000706 6.21412097 -18.65061218 5.43945931 -16.921875 4.79296875 C-14.95600346 3.98184696 -13.33935027 2.97397323 -11.5625 1.8125 C-7.53707795 -0.23552174 -4.3949368 -0.8738967 0 0 Z " fill="#5B3825" transform="translate(72,25)"/>
<path d="M0 0 C1.32 0.33 2.64 0.66 4 1 C4.144375 1.7425 4.28875 2.485 4.4375 3.25 C4.90187492 5.52027739 5.41863569 7.75759479 6 10 C6.99 10 7.98 10 9 10 C9.05796132 14.10410755 9.09358313 18.20811016 9.125 22.3125 C9.14175781 23.47974609 9.15851562 24.64699219 9.17578125 25.84960938 C9.18222656 26.96787109 9.18867187 28.08613281 9.1953125 29.23828125 C9.20578613 30.26993408 9.21625977 31.30158691 9.22705078 32.36450195 C9 35 9 35 7 38 C5.12060547 38.34057617 5.12060547 38.34057617 2.8671875 38.29296875 C2.06152344 38.28330078 1.25585938 38.27363281 0.42578125 38.26367188 C-0.41597656 38.23853516 -1.25773437 38.21339844 -2.125 38.1875 C-3.39923828 38.16719727 -3.39923828 38.16719727 -4.69921875 38.14648438 C-6.79974837 38.11108219 -8.89995293 38.05727401 -11 38 C-12.27861615 35.44276771 -12.11336609 33.63262898 -12.09765625 30.7734375 C-12.09443359 29.7421875 -12.09121094 28.7109375 -12.08789062 27.6484375 C-12.07951172 26.56820312 -12.07113281 25.48796875 -12.0625 24.375 C-12.05798828 23.28703125 -12.05347656 22.1990625 -12.04882812 21.078125 C-12.03701776 18.38536211 -12.02054778 15.69270812 -12 13 C-11.01 13 -10.02 13 -9 13 C-8.9175 12.29875 -8.835 11.5975 -8.75 10.875 C-7.80663084 7.25875154 -6.3538918 4.89192422 -4 2 C-2.68 2 -1.36 2 0 2 C0 1.34 0 0.68 0 0 Z " fill="#E95149" transform="translate(28,78)"/>
<path d="M0 0 C0.53367187 0.2165625 1.06734375 0.433125 1.6171875 0.65625 C6.92828597 2.64102036 11.27245919 3.25567151 16.93359375 2.91015625 C19 3 19 3 21 5 C20.67 5.33 20.34 5.66 20 6 C19.79300437 7.49496842 19.63320741 8.9966592 19.5 10.5 C19.11111111 14.88888889 19.11111111 14.88888889 18 16 C18.04125 16.99 18.0825 17.98 18.125 19 C18.22136177 24.82988705 16.20119415 30.19820878 13 35 C10.96166576 33.7260411 8.96147874 32.38938077 7 31 C7 30.34 7 29.68 7 29 C8.98 29 10.96 29 13 29 C12.67 28.34 12.34 27.68 12 27 C7.71 27 3.42 27 -1 27 C-4.26291337 21.2899016 -5.86484895 17.59447321 -5 11 C-3.0625 8.375 -3.0625 8.375 -1 6 C-0.20309162 2.81237891 -0.20309162 2.81237891 0 0 Z " fill="#F6B592" transform="translate(68,37)"/>
<path d="M0 0 C1.46439131 4.51780297 -0.13473716 7.65969669 -1.875 11.875 C-5.08137208 19.76648196 -6.14978058 26.89057129 -6.5625 35.375 C-6.60568359 36.20644531 -6.64886719 37.03789062 -6.69335938 37.89453125 C-6.79861805 39.92953228 -6.89973072 41.96474703 -7 44 C-10.96 44.99 -14.92 45.98 -19 47 C-19.27863145 36.53584128 -19.38997399 26.28583255 -17.625 15.9375 C-17.49891357 15.19516113 -17.37282715 14.45282227 -17.24291992 13.68798828 C-16.58827573 10.17831133 -15.8403824 7.0806401 -14 4 C-13.27425781 4.38929687 -12.54851562 4.77859375 -11.80078125 5.1796875 C-9.0110709 6.3277727 -9.0110709 6.3277727 -6.54296875 4.8828125 C-5.76566406 4.30273438 -4.98835937 3.72265625 -4.1875 3.125 C-3.39730469 2.55007812 -2.60710937 1.97515625 -1.79296875 1.3828125 C-1.20128906 0.92648438 -0.60960937 0.47015625 0 0 Z " fill="#784F37" transform="translate(174,102)"/>
<path d="M0 0 C3.96 0 7.92 0 12 0 C12.33 0.66 12.66 1.32 13 2 C15.06390239 3.20987382 16.76278885 3.95813921 19.125 4.375 C21 5 21 5 22.0625 7 C22.5265625 7.99 22.5265625 7.99 23 9 C23.99 9.33 24.98 9.66 26 10 C26 10.66 26 11.32 26 12 C28.97 12.495 28.97 12.495 32 13 C32 15.31 32 17.62 32 20 C32.886875 20.103125 33.77375 20.20625 34.6875 20.3125 C38.06813046 21.01414028 40.19723718 22.02157918 43 24 C43 24.33 43 24.66 43 25 C40.62492145 25.02719556 38.25016036 25.04693247 35.875 25.0625 C34.87726563 25.07506836 34.87726563 25.07506836 33.859375 25.08789062 C29.79318646 25.10782292 25.9879908 24.78890161 22 24 C22 23.01 22 22.02 22 21 C20.7625 20.896875 19.525 20.79375 18.25 20.6875 C14.74317752 20.25225608 12.52430313 19.62948243 10 17 C10 16.34 10 15.68 10 15 C9.01 15 8.02 15 7 15 C6.67 13.68 6.34 12.36 6 11 C4.68 11 3.36 11 2 11 C2 10.34 2 9.68 2 9 C1.34 8.67 0.68 8.34 0 8 C0 7.34 0 6.68 0 6 C-0.33 5.01 -0.66 4.02 -1 3 C-0.67 2.01 -0.34 1.02 0 0 Z " fill="#FAB28E" transform="translate(64,148)"/>
<path d="M0 0 C-0.08378906 0.65226562 -0.16757813 1.30453125 -0.25390625 1.9765625 C-0.35574219 2.85054687 -0.45757812 3.72453125 -0.5625 4.625 C-0.66691406 5.48351563 -0.77132812 6.34203125 -0.87890625 7.2265625 C-1.01258611 10.28826262 -0.59368289 13.00080201 0 16 C0.98742187 16.04898438 1.97484375 16.09796875 2.9921875 16.1484375 C4.27351563 16.22320312 5.55484375 16.29796875 6.875 16.375 C8.15117187 16.44460937 9.42734375 16.51421875 10.7421875 16.5859375 C14 17 14 17 16 19 C16.39764263 20.98821313 16.73775349 22.98944339 17 25 C18.65 25 20.3 25 22 25 C22.33 24.34 22.66 23.68 23 23 C24.32 23.66 25.64 24.32 27 25 C27 27.64 27 30.28 27 33 C26.01 33.495 26.01 33.495 25 34 C25.495 36.97 25.495 36.97 26 40 C26.721875 40.04125 27.44375 40.0825 28.1875 40.125 C32.35236242 41.42073497 33.58818797 43.38228195 36 47 C35.8125 49.375 35.8125 49.375 35 51 C34.566875 50.0409375 34.566875 50.0409375 34.125 49.0625 C33.17176549 46.84793921 33.17176549 46.84793921 31 46 C31 45.34 31 44.68 31 44 C30.34 44 29.68 44 29 44 C28.67 43.34 28.34 42.68 28 42 C26.28677468 41.16413245 26.28677468 41.16413245 24.25 40.5 C23.53070313 40.23960938 22.81140625 39.97921875 22.0703125 39.7109375 C20.43302765 39.14870006 18.78112728 38.62903874 17.125 38.125 C15 37 15 37 13.625 34.5625 C13 32 13 32 14 29 C14.03954234 26.66700175 14.04401732 24.33291811 14 22 C12.68 22 11.36 22 10 22 C9.67 22.66 9.34 23.32 9 24 C8.01 24 7.02 24 6 24 C6 23.34 6 22.68 6 22 C5.34 22 4.68 22 4 22 C4 21.34 4 20.68 4 20 C3.41347656 19.76152344 2.82695312 19.52304688 2.22265625 19.27734375 C-0.45673241 17.73751934 -1.73949574 16.04619037 -3.5625 13.5625 C-5.5737079 10.84356193 -7.53972839 8.32566709 -10 6 C-14.0042343 9.49087093 -15.62671065 11.64951939 -16 17 C-15.01 17.33 -14.02 17.66 -13 18 C-14.32 18 -15.64 18 -17 18 C-17.05437607 16.41705218 -17.09296271 14.83355744 -17.125 13.25 C-17.14820313 12.36828125 -17.17140625 11.4865625 -17.1953125 10.578125 C-16.87591594 6.36209046 -15.59244514 4.52019573 -12.4375 1.75 C-8.09465992 -0.4609004 -4.77003402 -0.38160272 0 0 Z " fill="#FAE4D9" transform="translate(161,55)"/>
<path d="M0 0 C1.32 0 2.64 0 4 0 C5.30064183 2.60128366 5.12568829 4.95482228 5.1887207 7.81591797 C5.38544726 15.22882526 5.55894428 21.40077406 11 27 C13.12139833 28.95408024 13.12139833 28.95408024 15 30 C14.6875 32.375 14.6875 32.375 14 35 C10.24543433 37.50304378 8.45254066 37.45280074 4 37 C-0.29569754 34.72580719 -3.43291611 32.14682782 -6 28 C-6.25 24.6875 -6.25 24.6875 -6 22 C-5.34 21.67 -4.68 21.34 -4 21 C-4 16.71 -4 12.42 -4 8 C-2.45428722 10.31856917 -1.20381448 12.50638429 0 15 C0.66 14.01 1.32 13.02 2 12 C0.68 11.34 -0.64 10.68 -2 10 C-2.1953125 3.9453125 -2.1953125 3.9453125 -2 2 C-1.34 1.34 -0.68 0.68 0 0 Z " fill="#FAAC8A" transform="translate(54,46)"/>
<path d="M0 0 C5.28 0 10.56 0 16 0 C16 3.63 16 7.26 16 11 C16.66 11 17.32 11 18 11 C18 8.69 18 6.38 18 4 C19.98 4 21.96 4 24 4 C24 5.98 24 7.96 24 10 C24.66 10 25.32 10 26 10 C26.144375 8.906875 26.28875 7.81375 26.4375 6.6875 C27 3 27 3 28 0 C29.32 0 30.64 0 32 0 C31.85866501 1.77119803 31.71176792 3.54195287 31.5625 5.3125 C31.48128906 6.29863281 31.40007812 7.28476563 31.31640625 8.30078125 C31 11 31 11 30 14 C25.6109185 13.48964169 22.66291938 12.47785723 19 10 C18.01 12.97 17.02 15.94 16 19 C15.01 19 14.02 19 13 19 C13 17.35 13 15.7 13 14 C11.68 13.67 10.36 13.34 9 13 C9 15.64 9 18.28 9 21 C10.98 21 12.96 21 15 21 C15 21.66 15 22.32 15 23 C12.69 23.33 10.38 23.66 8 24 C8 21.03 8 18.06 8 15 C5.03 14.67 2.06 14.34 -1 14 C-0.67 9.38 -0.34 4.76 0 0 Z " fill="#A7BEB0" transform="translate(99,96)"/>
<path d="M0 0 C1.65 0 3.3 0 5 0 C5.33 0.66 5.66 1.32 6 2 C6.99 1.67 7.98 1.34 9 1 C10.125 5.75 10.125 5.75 9 8 C8.61639608 13.75405875 9.08236905 16.89414584 12 22 C12 22.66 12 23.32 12 24 C12.99 23.7525 12.99 23.7525 14 23.5 C17.73099794 22.87816701 21.21873378 22.93591074 25 23 C25.33 23.99 25.66 24.98 26 26 C24.02 26 22.04 26 20 26 C20 26.66 20 27.32 20 28 C21.98 28.66 23.96 29.32 26 30 C25.25 34.75 25.25 34.75 23 37 C17.96268188 37.58573466 14.42992752 36.37903515 10 34 C6.10858712 29.89824048 3.816033 26.12881412 3.5859375 20.453125 C3.54726563 19.60878906 3.50859375 18.76445313 3.46875 17.89453125 C3.4378125 17.02183594 3.406875 16.14914063 3.375 15.25 C3.33632813 14.36183594 3.29765625 13.47367188 3.2578125 12.55859375 C3.16379127 10.3726002 3.07813857 8.18660938 3 6 C-0.54518884 7.39759905 -0.54518884 7.39759905 -4 9 C-3.75 7.125 -3.75 7.125 -3 5 C-0.9375 3.75 -0.9375 3.75 1 3 C0.67 2.01 0.34 1.02 0 0 Z " fill="#5F361F" transform="translate(55,40)"/>
<path d="M0 0 C3.8075302 3.66240013 6.96220391 7.68902881 10.1953125 11.85546875 C11.82213654 14.07623502 11.82213654 14.07623502 14 15 C14 15.66 14 16.32 14 17 C14.66 17 15.32 17 16 17 C16 17.66 16 18.32 16 19 C16.99 19 17.98 19 19 19 C19.33 18.01 19.66 17.02 20 16 C21.65 16.33 23.3 16.66 25 17 C25.07485655 20.89254042 24.93973036 24.24107857 24 28 C24.33 28.99 24.66 29.98 25 31 C24.01 30.67 23.02 30.34 22 30 C22 29.34 22 28.68 22 28 C21.34 28 20.68 28 20 28 C19.67 28.99 19.34 29.98 19 31 C18.505 28.525 18.505 28.525 18 26 C19.65 25.67 21.3 25.34 23 25 C23.33 23.35 23.66 21.7 24 20 C23.01 20.33 22.02 20.66 21 21 C18.6593935 20.72230092 16.32375692 20.39460023 14 20 C13.67 19.01 13.34 18.02 13 17 C12.01 17 11.02 17 10 17 C10 16.34 10 15.68 10 15 C9.34 15.185625 8.68 15.37125 8 15.5625 C4.10669886 16.13027308 0.88624521 15.59281707 -3 15 C-3.33 15.66 -3.66 16.32 -4 17 C-4.99 15.68 -5.98 14.36 -7 13 C-6.67 12.67 -6.34 12.34 -6 12 C-6.061875 11.0925 -6.12375 10.185 -6.1875 9.25 C-5.95552929 5.22917441 -4.76261289 3.84386621 -2 1 C-1.34 0.67 -0.68 0.34 0 0 Z " fill="#F3B79E" transform="translate(151,60)"/>
<path d="M0 0 C0 13.2 0 26.4 0 40 C-1.98 39.67 -3.96 39.34 -6 39 C-6.07449251 34.55260587 -6.12876257 30.1055481 -6.16479492 25.65771484 C-6.17982543 24.14658273 -6.20025564 22.63549382 -6.22631836 21.12451172 C-6.26295689 18.94487813 -6.27978338 16.76582425 -6.29296875 14.5859375 C-6.3086792 13.2767334 -6.32438965 11.9675293 -6.34057617 10.61865234 C-5.97334892 6.71682985 -5.0568466 4.31358269 -3 1 C-1 0 -1 0 0 0 Z " fill="#C4A183" transform="translate(139,113)"/>
<path d="M0 0 C3.95185996 3.40043764 3.95185996 3.40043764 4.171875 6.140625 C3.78125 8.09375 3.390625 10.046875 3 12 C3.66 12 4.32 12 5 12 C4.67 21.57 4.34 31.14 4 41 C3.67 41 3.34 41 3 41 C3 34.07 3 27.14 3 20 C2.34 20 1.68 20 1 20 C0.67 25.94 0.34 31.88 0 38 C-0.99 38.495 -0.99 38.495 -2 39 C-2 38.34 -2 37.68 -2 37 C-2.66 37 -3.32 37 -4 37 C-4.49338142 23.98991153 -3.94518703 12.45199657 0 0 Z " fill="#FCCE84" transform="translate(151,108)"/>
<path d="M0 0 C0.99 0.33 1.98 0.66 3 1 C3.99 0.67 4.98 0.34 6 0 C8.6875 0.4375 8.6875 0.4375 11 1 C12 7.75 12 7.75 12 10 C12.66 10.33 13.32 10.66 14 11 C12.25 18.625 12.25 18.625 10 22 C8 21 6 20 4 19 C4 18.01 4 17.02 4 16 C3.01 16 2.02 16 1 16 C0.67 10.72 0.34 5.44 0 0 Z " fill="#FCB593" transform="translate(144,74)"/>
<path d="M0 0 C0.33 0 0.66 0 1 0 C1.33 6.6 1.66 13.2 2 20 C7.94 20 13.88 20 20 20 C21.99390001 23.98780002 22.22686963 25.47147572 22.125 29.75 C22.10695313 30.73484375 22.08890625 31.7196875 22.0703125 32.734375 C22.04710938 33.48203125 22.02390625 34.2296875 22 35 C23.258125 35.0825 24.51625 35.165 25.8125 35.25 C28.86866106 35.62323029 29.72242761 35.73110175 32 37.9375 C33 40 33 40 33 42 C34.13888672 42.03867188 34.13888672 42.03867188 35.30078125 42.078125 C36.79158203 42.16320312 36.79158203 42.16320312 38.3125 42.25 C39.29863281 42.29640625 40.28476562 42.3428125 41.30078125 42.390625 C44 43 44 43 45.85546875 45.046875 C46.23316406 45.69140625 46.61085937 46.3359375 47 47 C43.51503893 48.17046624 43.01470074 48.00603948 39.3203125 46.48828125 C37.91557865 45.77529252 36.51727901 45.04951375 35.125 44.3125 C34.43019531 43.95994141 33.73539063 43.60738281 33.01953125 43.24414062 C30.99080979 42.19921535 28.99416438 41.10921913 27 40 C25.88109375 39.39027344 24.7621875 38.78054687 23.609375 38.15234375 C18.878531 34.25010566 19.04952634 28.8307019 18 23 C11.73 23 5.46 23 -1 23 C-1.14285714 7 -1.14285714 7 0 0 Z " fill="#DA6357" transform="translate(15,96)"/>
<path d="M0 0 C0.66 0 1.32 0 2 0 C2.33 2.31 2.66 4.62 3 7 C5.22189824 4.77810176 5.92598892 2.91517292 7 0 C7.99 0 8.98 0 10 0 C10.8125 2.125 10.8125 2.125 11 5 C8.6875 8 8.6875 8 7.32421875 9.375 C3.47799388 14.09485117 3.59507154 19.50352827 3.375 25.3125 C3.33632812 26.14845703 3.29765625 26.98441406 3.2578125 27.84570312 C3.16404841 29.89679259 3.08095755 31.94836515 3 34 C5.31 34 7.62 34 10 34 C10 35.65 10 37.3 10 39 C8.02 39.495 8.02 39.495 6 40 C6 40.66 6 41.32 6 42 C4.35 42 2.7 42 1 42 C0.505 21.21 0.505 21.21 0 0 Z " fill="#F7CD94" transform="translate(138,112)"/>
<path d="M0 0 C0.66 1.32 1.32 2.64 2 4 C2.99 4 3.98 4 5 4 C5.24803781 6.79117245 5.47414334 9.58115074 5.6875 12.375 C5.79674805 13.56609375 5.79674805 13.56609375 5.90820312 14.78125 C6.07421875 17.0859375 6.07421875 17.0859375 6 21 C5.01 21.66 4.02 22.32 3 23 C3.33 24.98 3.66 26.96 4 29 C0.625 28.6875 0.625 28.6875 -3 28 C-5.29013653 24.5647952 -5.17842973 23.014669 -5 19 C-4.34 18.67 -3.68 18.34 -3 18 C-3 13.71 -3 9.42 -3 5 C-1.45428722 7.31856917 -0.20381448 9.50638429 1 12 C1.66 11.01 2.32 10.02 3 9 C1.68 8.34 0.36 7.68 -1 7 C-1.04254356 5.00045254 -1.04080783 2.99958364 -1 1 C-0.67 0.67 -0.34 0.34 0 0 Z " fill="#F9AE8C" transform="translate(53,49)"/>
<path d="M0 0 C4.75 1.875 4.75 1.875 7 3 C7 4.32 7 5.64 7 7 C7.66 7 8.32 7 9 7 C9 6.34 9 5.68 9 5 C9.66 5.33 10.32 5.66 11 6 C8.25 11.875 8.25 11.875 6 13 C5.34 12.67 4.68 12.34 4 12 C4 12.66 4 13.32 4 14 C2.02 14 0.04 14 -2 14 C-2.33 13.01 -2.66 12.02 -3 11 C-5.31 11 -7.62 11 -10 11 C-10 8.36 -10 5.72 -10 3 C-7.525 3.495 -7.525 3.495 -5 4 C-5.33 5.65 -5.66 7.3 -6 9 C-5.01 9 -4.02 9 -3 9 C-2.814375 7.88625 -2.814375 7.88625 -2.625 6.75 C-2.04513299 4.19858515 -1.26291261 2.2732427 0 0 Z " fill="#EBE5DA" transform="translate(118,106)"/>
<path d="M0 0 C0.94875 0.165 1.8975 0.33 2.875 0.5 C6.89206925 1.09968518 10.81294769 0.99491012 14.86328125 0.83984375 C17 1 17 1 19 3 C18.67 3.33 18.34 3.66 18 4 C17.63239269 6.32817964 17.29758419 8.6618385 17 11 C15.00045254 11.04254356 12.99958364 11.04080783 11 11 C10.67 10.67 10.34 10.34 10 10 C8.9275 10.020625 7.855 10.04125 6.75 10.0625 C3.19791392 10.00329857 1.14894832 9.52676282 -2 8 C-1.34 5.36 -0.68 2.72 0 0 Z " fill="#F7B695" transform="translate(70,39)"/>
<path d="M0 0 C0.33 0 0.66 0 1 0 C1.185625 1.2065625 1.185625 1.2065625 1.375 2.4375 C1.58125 3.283125 1.7875 4.12875 2 5 C2.66 5.33 3.32 5.66 4 6 C6.60691761 11.60487286 7.61096071 17.75343606 8.5703125 23.8125 C8.78270474 25.9685568 8.78270474 25.9685568 10 27 C10.3224271 28.55644353 10.60799418 30.12059745 10.875 31.6875 C11.48250834 34.93674916 12.05852284 37.11029304 13.625 40.0625 C15.13833412 43.29553199 15.11422998 45.59374175 14.96484375 49.11328125 C15.01174294 52.96422582 15.593679 56.69034175 16.125 60.5 C16.97623742 66.84797683 17.02348551 71.8171276 15 78 C14.67 78 14.34 78 14 78 C14.00636475 77.42483643 14.01272949 76.84967285 14.01928711 76.25708008 C14.07362458 59.47997564 11.10998463 44.38712143 6.79711914 28.22241211 C5.82555482 24.29479266 5.12591373 20.35624637 4.51367188 16.35839844 C3.82195195 13.18253605 2.50820773 10.55962332 0.90234375 7.75390625 C-0.08757811 5.82977241 -0.64506952 4.13396473 -1 2 C-0.67 1.34 -0.34 0.68 0 0 Z " fill="#FDF7E4" transform="translate(199,106)"/>
<path d="M0 0 C1.36125 0.7115625 1.36125 0.7115625 2.75 1.4375 C3.430625 1.74429688 4.11125 2.05109375 4.8125 2.3671875 C9.04022499 4.3149608 9.04022499 4.3149608 10.75 5.4375 C11.08 6.4275 11.41 7.4175 11.75 8.4375 C14.04283166 9.60998853 14.04283166 9.60998853 16.75 10.5 C21.64732528 12.23215056 21.64732528 12.23215056 22.75 14.4375 C20.35385874 14.49175226 17.95896147 14.53129027 15.5625 14.5625 C14.55219727 14.58763672 14.55219727 14.58763672 13.52148438 14.61328125 C9.46192193 14.65288674 6.40001185 14.23770002 2.75 12.4375 C2.75 11.7775 2.75 11.1175 2.75 10.4375 C4.07 10.4375 5.39 10.4375 6.75 10.4375 C5.47181949 7.88113897 4.57955056 7.81123684 1.9375 6.875 C1.25042969 6.62621094 0.56335938 6.37742188 -0.14453125 6.12109375 C-2.16491989 5.46512341 -4.18319514 4.92517306 -6.25 4.4375 C-6.25 2.4375 -6.25 2.4375 -4.5625 0.6875 C-2.25 -0.5625 -2.25 -0.5625 0 0 Z " fill="#F8AC86" transform="translate(84.25,158.5625)"/>
<path d="M0 0 C0.66 0 1.32 0 2 0 C2.45375 1.11375 2.9075 2.2275 3.375 3.375 C4.72465986 6.96199008 4.72465986 6.96199008 7 9 C7 9.99 7 10.98 7 12 C7.66 12 8.32 12 9 12 C9 14.64 9 17.28 9 20 C5.37 19.67 1.74 19.34 -2 19 C-2.17044562 12.1821754 -1.96968367 6.52457715 0 0 Z " fill="#FDF6EE" transform="translate(77,128)"/>
<path d="M0 0 C4.41355564 0.28474553 6.94532123 1.32525938 10.875 3.25 C10.545 6.55 10.215 9.85 9.875 13.25 C8.555 13.25 7.235 13.25 5.875 13.25 C5.545 11.27 5.215 9.29 4.875 7.25 C4.67003906 7.96027344 4.46507812 8.67054687 4.25390625 9.40234375 C3.98449219 10.32144531 3.71507812 11.24054688 3.4375 12.1875 C3.17066406 13.10402344 2.90382812 14.02054688 2.62890625 14.96484375 C1.875 17.25 1.875 17.25 0.875 18.25 C0.83419217 20.24958364 0.83245644 22.25045254 0.875 24.25 C0.215 24.25 -0.445 24.25 -1.125 24.25 C-2.125 19.375 -2.125 19.375 -2.125 18.25 C-2.785 18.25 -3.445 18.25 -4.125 18.25 C-3.795 16.93 -3.465 15.61 -3.125 14.25 C-2.135 14.58 -1.145 14.91 -0.125 15.25 C0.535 10.63 1.195 6.01 1.875 1.25 C0.555 1.25 -0.765 1.25 -2.125 1.25 C-2.785 4.55 -3.445 7.85 -4.125 11.25 C-4.785 11.25 -5.445 11.25 -6.125 11.25 C-6.125 9.6 -6.125 7.95 -6.125 6.25 C-5.465 6.25 -4.805 6.25 -4.125 6.25 C-4.1559375 5.0434375 -4.1559375 5.0434375 -4.1875 3.8125 C-4.09559714 0.04448278 -3.82368679 0.30589494 0 0 Z " fill="#F8E0E1" transform="translate(129.125,94.75)"/>
<path d="M0 0 C0.33 0 0.66 0 1 0 C1.98861055 11.9585518 2.191019 23.20165109 0.19482422 35.05419922 C-1.44055592 44.98476819 -1.73671317 54.95291629 -2 65 C-2.33 65 -2.66 65 -3 65 C-3.66 58.73 -4.32 52.46 -5 46 C-4.67 46 -4.34 46 -4 46 C-3.01 35.11 -2.02 24.22 -1 13 C-1.66 13 -2.32 13 -3 13 C-2.49396008 10.83125748 -2.00016187 9.00032373 -1 7 C-1 5.989375 -1 4.97875 -1 3.9375 C-1 1 -1 1 0 0 Z " fill="#F9E9E0" transform="translate(13,106)"/>
<path d="M0 0 C6.27 0 12.54 0 19 0 C19 4.29 19 8.58 19 13 C18.34 13 17.68 13 17 13 C17 9.37 17 5.74 17 2 C11.72 2 6.44 2 1 2 C1.020625 3.753125 1.04125 5.50625 1.0625 7.3125 C1.10131595 10.61185544 1.04976964 12.85069107 0 16 C1.670625 15.9690625 1.670625 15.9690625 3.375 15.9375 C7 16 7 16 9 17 C9 18.32 9 19.64 9 21 C6.69 21.33 4.38 21.66 2 22 C1.34 20.68 0.68 19.36 0 18 C-1.32 18 -2.64 18 -4 18 C-4.33 15.69 -4.66 13.38 -5 11 C-3.35 10.67 -1.7 10.34 0 10 C0 6.7 0 3.4 0 0 Z " fill="#DACECF" transform="translate(98,94)"/>
<path d="M0 0 C-0.33 1.32 -0.66 2.64 -1 4 C-1.78375 4.061875 -2.5675 4.12375 -3.375 4.1875 C-4.24125 4.455625 -5.1075 4.72375 -6 5 C-7.37466625 7.47636012 -7.37466625 7.47636012 -8 10 C-9.98 10 -11.96 10 -14 10 C-14.33 11.32 -14.66 12.64 -15 14 C-15 12.68 -15 11.36 -15 10 C-17.475 9.01 -17.475 9.01 -20 8 C-20 8.66 -20 9.32 -20 10 C-20.7425 10.144375 -21.485 10.28875 -22.25 10.4375 C-26.43847648 12.81731618 -27.38452846 16.6138594 -29 21 C-29.66 21 -30.32 21 -31 21 C-30.30666075 16.28529311 -29.18117634 12.03054262 -25.5859375 8.68359375 C-18.91192279 3.99414288 -8.1662927 0 0 0 Z " fill="#E7524B" transform="translate(48,70)"/>
<path d="M0 0 C3.12290635 0.48578543 5.99580359 0.9986012 9 2 C8.67 2.99 8.34 3.98 8 5 C7.61496448 7.72897438 7.2601109 10.45128163 6.9375 13.1875 C6.84662109 13.93708984 6.75574219 14.68667969 6.66210938 15.45898438 C6.4386269 17.30565535 6.21894487 19.15278554 6 21 C5.01 21 4.02 21 3 21 C3.09765625 18.98177083 3.1953125 16.96354167 3.29296875 14.9453125 C3.19628906 14.30335937 3.09960938 13.66140625 3 13 C2.01 12.34 1.02 11.68 0 11 C-0.33 12.98 -0.66 14.96 -1 17 C-1.66 17 -2.32 17 -3 17 C-3 15.68 -3 14.36 -3 13 C-3.66 13 -4.32 13 -5 13 C-5 12.34 -5 11.68 -5 11 C-4.34 11 -3.68 11 -3 11 C-2.9175 10.278125 -2.835 9.55625 -2.75 8.8125 C-1.85249799 5.44686746 -0.2885722 3.58387184 2 1 C1.34 0.67 0.68 0.34 0 0 Z " fill="#F6CA90" transform="translate(151,99)"/>
<path d="M0 0 C2.64 0.33 5.28 0.66 8 1 C8.33 4.3 8.66 7.6 9 11 C7.35 11 5.7 11 4 11 C3.34 12.98 2.68 14.96 2 17 C1.34 17 0.68 17 0 17 C-0.33 17.99 -0.66 18.98 -1 20 C-1.66 20 -2.32 20 -3 20 C-3.625 17.625 -3.625 17.625 -4 15 C-3.34 14.34 -2.68 13.68 -2 13 C-1.54337847 10.80708918 -1.179588 8.59414111 -0.875 6.375 C-0.70742187 5.18648437 -0.53984375 3.99796875 -0.3671875 2.7734375 C-0.24601563 1.85820312 -0.12484375 0.94296875 0 0 Z " fill="#EDB794" transform="translate(137,153)"/>
<path d="M0 0 C-0.33 0.99 -0.66 1.98 -1 3 C-0.938125 4.546875 -0.938125 4.546875 -0.875 6.125 C-1.06569643 12.03658942 -2.7219133 17.08286995 -6 22 C-8.03833424 20.7260411 -10.03852126 19.38938077 -12 18 C-12 17.34 -12 16.68 -12 16 C-10.02 16 -8.04 16 -6 16 C-6 11.05 -6 6.1 -6 1 C-6.66 1 -7.32 1 -8 1 C-8 2.32 -8 3.64 -8 5 C-8.99 5 -9.98 5 -11 5 C-11 4.01 -11 3.02 -11 2 C-11.99 1.67 -12.98 1.34 -14 1 C-14 0.34 -14 -0.32 -14 -1 C-8.51053913 -2.12029814 -5.16569441 -1.79217969 0 0 Z " fill="#F0BCA1" transform="translate(87,50)"/>
<path d="M0 0 C0.33 0.66 0.66 1.32 1 2 C2.65 2 4.3 2 6 2 C6.33 1.34 6.66 0.68 7 0 C8.32 0.66 9.64 1.32 11 2 C11 4.64 11 7.28 11 10 C10.01 10.495 10.01 10.495 9 11 C9 11.99 9 12.98 9 14 C1.125 13.125 1.125 13.125 0 12 C-0.07244053 9.98035801 -0.08377188 7.95832876 -0.0625 5.9375 C-0.05347656 4.83277344 -0.04445312 3.72804688 -0.03515625 2.58984375 C-0.02355469 1.73519531 -0.01195312 0.88054687 0 0 Z " fill="#ECEAE8" transform="translate(177,78)"/>
<path d="M0 0 C0.33 0 0.66 0 1 0 C1.44236907 6.93044875 -0.45853585 12.43029355 -3.1875 18.75 C-4.1052535 21.29147123 -4.15324355 23.31823783 -4 26 C-4.99 26 -5.98 26 -7 26 C-5.87548273 28.9719385 -4.77706209 31.33440687 -3 34 C-4.875 33.75 -4.875 33.75 -7 33 C-7.66666667 31.66666667 -8.33333333 30.33333333 -9 29 C-11.05000871 28.19471111 -11.05000871 28.19471111 -13 28 C-12.01 28 -11.02 28 -10 28 C-10.01160156 26.77023438 -10.02320313 25.54046875 -10.03515625 24.2734375 C-10.04454022 22.64062653 -10.05363977 21.0078139 -10.0625 19.375 C-10.07087891 18.56675781 -10.07925781 17.75851563 -10.08789062 16.92578125 C-10.1058955 12.49658082 -9.89622662 8.36116576 -9 4 C-8.67 4 -8.34 4 -8 4 C-8 9.28 -8 14.56 -8 20 C-7.34 20 -6.68 20 -6 20 C-5.81824219 18.97519531 -5.63648438 17.95039063 -5.44921875 16.89453125 C-5.19583322 15.5337571 -4.9418978 14.17308527 -4.6875 12.8125 C-4.56955078 12.13896484 -4.45160156 11.46542969 -4.33007812 10.77148438 C-3.54246666 6.63147537 -2.48031024 3.42455704 0 0 Z " fill="#E0B47A" transform="translate(177,118)"/>
<path d="M0 0 C1.32 0 2.64 0 4 0 C3.85866501 1.77119803 3.71176792 3.54195287 3.5625 5.3125 C3.48128906 6.29863281 3.40007812 7.28476563 3.31640625 8.30078125 C3 11 3 11 2 14 C-2.3890815 13.48964169 -5.33708062 12.47785723 -9 10 C-9.433125 11.4540625 -9.433125 11.4540625 -9.875 12.9375 C-11 16 -11 16 -13 17 C-12.125 12.125 -12.125 12.125 -11 11 C-10.63239269 8.67182036 -10.29758419 6.3381615 -10 4 C-8.02 4 -6.04 4 -4 4 C-4 5.98 -4 7.96 -4 10 C-3.34 10 -2.68 10 -2 10 C-1.855625 8.906875 -1.71125 7.81375 -1.5625 6.6875 C-1 3 -1 3 0 0 Z " fill="#D5857F" transform="translate(127,96)"/>
<path d="M0 0 C0.99 0.33 1.98 0.66 3 1 C3.19392201 6.52677733 2.7479503 10.75614911 1 16 C0.34 16 -0.32 16 -1 16 C-1 16.66 -1 17.32 -1 18 C-1.66 18 -2.32 18 -3 18 C-3.28875 18.639375 -3.5775 19.27875 -3.875 19.9375 C-5 22 -5 22 -7 23 C-7.99 22.67 -8.98 22.34 -10 22 C-10.20086443 18.28400809 -10.1519437 17.22791555 -8 14 C-7.4172881 12.45233858 -6.87735813 10.88807778 -6.375 9.3125 C-5.98441406 8.10013672 -5.98441406 8.10013672 -5.5859375 6.86328125 C-5.39257812 6.24839844 -5.19921875 5.63351563 -5 5 C-4.67 5 -4.34 5 -4 5 C-4 7.31 -4 9.62 -4 12 C-2.68 12 -1.36 12 0 12 C0.33 8.7 0.66 5.4 1 2 C0.01 1.67 -0.98 1.34 -2 1 C-1.34 0.67 -0.68 0.34 0 0 Z " fill="#F5F1EE" transform="translate(139,96)"/>
<path d="M0 0 C5.28 0 10.56 0 16 0 C17.18543388 11.98605372 17.18543388 11.98605372 16 17 C16 17.66 16 18.32 16 19 C15.01 19 14.02 19 13 19 C13.33 16.69 13.66 14.38 14 12 C13.34 12 12.68 12 12 12 C12.33 9.36 12.66 6.72 13 4 C9.37 4 5.74 4 2 4 C2 4.99 2 5.98 2 7 C1.34 7 0.68 7 0 7 C0 4.69 0 2.38 0 0 Z " fill="#B5CE98" transform="translate(99,96)"/>
<path d="M0 0 C2 2 2 2 2.046875 4.05859375 C1.94890625 4.84363281 1.8509375 5.62867187 1.75 6.4375 C1.61851563 7.61119141 1.61851563 7.61119141 1.484375 8.80859375 C1 11 1 11 -1 14 C-1.66 14 -2.32 14 -3 14 C-3.33 14.66 -3.66 15.32 -4 16 C-7 12.25 -7 12.25 -7 10 C-7.66 10 -8.32 10 -9 10 C-8.67 7.36 -8.34 4.72 -8 2 C-6.71254964 1.61077082 -5.41980403 1.23901964 -4.125 0.875 C-3.04605469 0.56175781 -3.04605469 0.56175781 -1.9453125 0.2421875 C-1.30335937 0.16226563 -0.66140625 0.08234375 0 0 Z " fill="#FBAE8B" transform="translate(86,118)"/>
<path d="M0 0 C0.763125 0.78375 1.52625 1.5675 2.3125 2.375 C4.90891805 5.07257717 4.90891805 5.07257717 8 7 C8 7.66 8 8.32 8 9 C8.66 9 9.32 9 10 9 C10 9.66 10 10.32 10 11 C10.99 11 11.98 11 13 11 C13.33 10.01 13.66 9.02 14 8 C16.475 8.495 16.475 8.495 19 9 C19.07485655 12.89254042 18.93973036 16.24107857 18 20 C18.33 20.99 18.66 21.98 19 23 C18.01 22.67 17.02 22.34 16 22 C16 21.34 16 20.68 16 20 C15.34 20 14.68 20 14 20 C13.67 20.99 13.34 21.98 13 23 C12.505 20.525 12.505 20.525 12 18 C13.65 17.67 15.3 17.34 17 17 C17.33 15.35 17.66 13.7 18 12 C17.01 12.33 16.02 12.66 15 13 C12.6593935 12.72230092 10.32375692 12.39460023 8 12 C7.67 11.01 7.34 10.02 7 9 C6.01 9 5.02 9 4 9 C4 8.34 4 7.68 4 7 C2.8553125 7.2784375 2.8553125 7.2784375 1.6875 7.5625 C-1 8 -1 8 -4 7 C-4 6.34 -4 5.68 -4 5 C-2.68 4.67 -1.36 4.34 0 4 C0 2.68 0 1.36 0 0 Z " fill="#F1BCA7" transform="translate(157,68)"/>
<path d="M0 0 C8.13074901 1.69842313 8.13074901 1.69842313 12.0625 3.0625 C18.64027617 5.16179027 25.52688751 5.19302434 32.375 5.1875 C33.20555908 5.18814453 34.03611816 5.18878906 34.8918457 5.18945312 C40.82496465 5.1383606 46.24102639 4.51055046 52 3 C52 3.99 52 4.98 52 6 C51.01 6 50.02 6 49 6 C48.67 6.66 48.34 7.32 48 8 C34.82413246 8.23389114 22.06135544 7.78616826 9 6 C9 5.34 9 4.68 9 4 C7.6078125 4.061875 7.6078125 4.061875 6.1875 4.125 C3 4 3 4 0 2 C0 1.34 0 0.68 0 0 Z " fill="#6A2C1A" transform="translate(17,161)"/>
<path d="M0 0 C2.29013653 3.4352048 2.17842973 4.985331 2 9 C-1.37097383 10.49821059 -3.20442119 11 -7 11 C-7.03738281 11.680625 -7.07476562 12.36125 -7.11328125 13.0625 C-7.71059682 21.86997666 -9.25736847 30.36356199 -11 39 C-11.66 39 -12.32 39 -13 39 C-13.027193 37.41676312 -13.04648306 35.83338938 -13.0625 34.25 C-13.07410156 33.36828125 -13.08570312 32.4865625 -13.09765625 31.578125 C-13.00826198 29.2181162 -12.66912821 27.25501476 -12 25 C-11.34 25 -10.68 25 -10 25 C-9.67 21.04 -9.34 17.08 -9 13 C-9.66 13 -10.32 13 -11 13 C-9.73083275 10.46166551 -8.58375191 10.10599099 -6.0625 8.875 C-5.35222656 8.52179688 -4.64195313 8.16859375 -3.91015625 7.8046875 C-2 7 -2 7 0 7 C0 4.69 0 2.38 0 0 Z " fill="#D86353" transform="translate(85,109)"/>
<path d="M0 0 C0.33 0 0.66 0 1 0 C1 5.28 1 10.56 1 16 C1.66 16 2.32 16 3 16 C3.33 15.34 3.66 14.68 4 14 C4.33 14.99 4.66 15.98 5 17 C4.67 17.33 4.34 17.66 4 18 C4.74161377 18.01458252 5.48322754 18.02916504 6.24731445 18.04418945 C9.60290631 18.11859457 12.95749494 18.21528006 16.3125 18.3125 C17.47974609 18.33505859 18.64699219 18.35761719 19.84960938 18.38085938 C21.52700195 18.4340332 21.52700195 18.4340332 23.23828125 18.48828125 C24.26993408 18.51446533 25.30158691 18.54064941 26.36450195 18.56762695 C29 19 29 19 32 22 C21.11 22 10.22 22 -1 22 C-0.67 14.74 -0.34 7.48 0 0 Z " fill="#674F41" transform="translate(11,178)"/>
<path d="M0 0 C0 0.99 0 1.98 0 3 C2.3431213 2.74438677 4.67843403 2.40729228 7 2 C7.33 1.34 7.66 0.68 8 0 C8.33 0.66 8.66 1.32 9 2 C12.02934491 2.65772428 12.02934491 2.65772428 15 3 C15 2.34 15 1.68 15 1 C16.32 1 17.64 1 19 1 C19 1.66 19 2.32 19 3 C13.20537352 4.65278551 8.01427888 5.33815819 2 5.3125 C0.86691406 5.33666992 0.86691406 5.33666992 -0.2890625 5.36132812 C-5.81999679 5.36607979 -9.92173275 4.18711737 -15 2 C-15 1.67 -15 1.34 -15 1 C-10.03926578 -0.32286246 -5.08888488 -0.08893197 0 0 Z " fill="#D7C8B3" transform="translate(107,117)"/>
<path d="M0 0 C3.8337622 4.24452243 5.86986056 8.77310322 8 14 C8.33386719 14.75152344 8.66773438 15.50304687 9.01171875 16.27734375 C10.29190766 19.8041883 11.00324913 23.38507292 11.6875 27.0625 C11.82994141 27.76955078 11.97238281 28.47660156 12.11914062 29.20507812 C12.78308528 32.72299384 13.316114 35.59930276 12 39 C10 36 10 36 10 32 C9.34 32 8.68 32 8 32 C7.67 27.05 7.34 22.1 7 17 C6.34 17 5.68 17 5 17 C4.87882813 16.43410156 4.75765625 15.86820313 4.6328125 15.28515625 C4.46523437 14.55167969 4.29765625 13.81820312 4.125 13.0625 C3.96257812 12.33160156 3.80015625 11.60070312 3.6328125 10.84765625 C3.17038477 8.79299706 3.17038477 8.79299706 1 8 C0.40644386 5.35139573 0.25790731 2.70802678 0 0 Z " fill="#F4DAAE" transform="translate(195,104)"/>
<path d="M0 0 C2.31 0.66 4.62 1.32 7 2 C7 2.66 7 3.32 7 4 C7.556875 4.2475 8.11375 4.495 8.6875 4.75 C15.32347056 8.33701111 17.76558869 12.42670411 20.1875 19.4375 C21.01858013 23.08146673 21.15199745 26.27606239 21 30 C20.34 30 19.68 30 19 30 C18.87625 28.96875 18.7525 27.9375 18.625 26.875 C18.11770182 23.06776771 18.11770182 23.06776771 16.9375 19.8125 C16 17 16 17 16 13 C15.01 13 14.02 13 13 13 C12.67 12.01 12.34 11.02 12 10 C10.34051852 8.98812105 8.67419438 7.9873454 7 7 C7 6.34 7 5.68 7 5 C4.03 4.505 4.03 4.505 1 4 C0.67 2.68 0.34 1.36 0 0 Z " fill="#C86154" transform="translate(68,75)"/>
<path d="M0 0 C0.99 0.33 1.98 0.66 3 1 C3.99 0.67 4.98 0.34 6 0 C8.6875 0.4375 8.6875 0.4375 11 1 C12 7.75 12 7.75 12 10 C12.66 10.33 13.32 10.66 14 11 C13.01 12.485 13.01 12.485 12 14 C10 12 10 12 9 9 C9 7.68 9 6.36 9 5 C8.01 5.33 7.02 5.66 6 6 C5.34 5.67 4.68 5.34 4 5 C4 5.66 4 6.32 4 7 C2.68 7 1.36 7 0 7 C0 4.69 0 2.38 0 0 Z " fill="#F4B599" transform="translate(144,74)"/>
<path d="M0 0 C1.23556641 0.01740234 1.23556641 0.01740234 2.49609375 0.03515625 C3.32238281 0.04417969 4.14867188 0.05320313 5 0.0625 C5.63808594 0.07410156 6.27617188 0.08570313 6.93359375 0.09765625 C6.93359375 0.75765625 6.93359375 1.41765625 6.93359375 2.09765625 C12.87359375 2.75765625 18.81359375 3.41765625 24.93359375 4.09765625 C24.93359375 4.42765625 24.93359375 4.75765625 24.93359375 5.09765625 C11.85054468 5.4750519 -1.04898564 4.31384463 -14.06640625 3.09765625 C-14.06640625 2.76765625 -14.06640625 2.43765625 -14.06640625 2.09765625 C-13.28394531 2.03707031 -12.50148438 1.97648438 -11.6953125 1.9140625 C-10.68339844 1.83027344 -9.67148438 1.74648437 -8.62890625 1.66015625 C-7.61957031 1.57894531 -6.61023438 1.49773437 -5.5703125 1.4140625 C-2.92346049 1.0795929 -2.54074258 0.1200729 0 0 Z " fill="#E1CEB9" transform="translate(110.06640625,170.90234375)"/>
<path d="M0 0 C2 1 2 1 3.03515625 4.01953125 C3.37417969 5.27121094 3.71320312 6.52289063 4.0625 7.8125 C4.40410156 9.05644531 4.74570312 10.30039063 5.09765625 11.58203125 C5.74949343 14.05111148 6.39391343 16.51941888 7 19 C6.34 19.33 5.68 19.66 5 20 C5 18.68 5 17.36 5 16 C4.34 16 3.68 16 3 16 C3 15.34 3 14.68 3 14 C0.64214682 14.89335797 0.64214682 14.89335797 -0.125 18.0625 C-0.558125 19.5165625 -0.558125 19.5165625 -1 21 C-1.33 21 -1.66 21 -2 21 C-1.85845864 18.43719792 -1.71191438 15.87484515 -1.5625 13.3125 C-1.52318359 12.59126953 -1.48386719 11.87003906 -1.44335938 11.12695312 C-1.21814322 7.33292718 -0.87160695 3.71348508 0 0 Z " fill="#D95C51" transform="translate(15,123)"/>
<path d="M0 0 C6.84848824 10.27273236 5.3168734 24.22873994 5 36 C4.67 36 4.34 36 4 36 C4 34.02 4 32.04 4 30 C3.34 30 2.68 30 2 30 C2.02320313 29.39414063 2.04640625 28.78828125 2.0703125 28.1640625 C2.16835851 23.61192649 2.00327031 19.45112885 1 15 C-0.13691456 9.95594243 -0.19722549 5.14977679 0 0 Z " fill="#F2D9AC" transform="translate(208,144)"/>
<path d="M0 0 C0 0.33 0 0.66 0 1 C-2.39614126 1.05425226 -4.79103853 1.09379027 -7.1875 1.125 C-8.19780273 1.15013672 -8.19780273 1.15013672 -9.22851562 1.17578125 C-13.28807807 1.21538674 -16.34998815 0.80020002 -20 -1 C-20 -1.66 -20 -2.32 -20 -3 C-13.02337616 -4.60999012 -5.84218602 -4.52298273 0 0 Z " fill="#BFA88E" transform="translate(107,172)"/>
<path d="M0 0 C2.31 1.65 4.62 3.3 7 5 C5.33333333 8.33333333 3.66666667 11.66666667 2 15 C1.34 15 0.68 15 0 15 C-0.2475 16.093125 -0.495 17.18625 -0.75 18.3125 C-2.02002851 22.05908409 -2.65756352 23.10595266 -6 25 C-5.67 23.35 -5.34 21.7 -5 20 C-4.67 20 -4.34 20 -4 20 C-3.690625 18.88625 -3.38125 17.7725 -3.0625 16.625 C-2 13 -2 13 -1 11 C-0.34 11 0.32 11 1 11 C1.020625 9.741875 1.04125 8.48375 1.0625 7.1875 C1.07410156 6.47980469 1.08570313 5.77210937 1.09765625 5.04296875 C1.08263217 2.79694539 1.08263217 2.79694539 0 0 Z " fill="#FDF6E3" transform="translate(146,95)"/>
<path d="M0 0 C1.32 0.33 2.64 0.66 4 1 C4 2.32 4 3.64 4 5 C4.66 5 5.32 5 6 5 C6 4.34 6 3.68 6 3 C6.66 3.33 7.32 3.66 8 4 C6.8125 6.9375 6.8125 6.9375 5 10 C1.68204004 11.24423499 0.38718527 11.12906176 -3 10 C-2.39009109 6.44219804 -1.4216319 3.3171411 0 0 Z " fill="#FCF8EA" transform="translate(121,108)"/>
<path d="M0 0 C3.3 0.33 6.6 0.66 10 1 C10 2.65 10 4.3 10 6 C10.66 6.66 11.32 7.32 12 8 C12 8.66 12 9.32 12 10 C9.69 10 7.38 10 5 10 C5.33 8.35 5.66 6.7 6 5 C4.35 5 2.7 5 1 5 C0.67 3.35 0.34 1.7 0 0 Z " fill="#5E341D" transform="translate(62,27)"/>
<path d="M0 0 C2.31 0.33 4.62 0.66 7 1 C6.58443583 5.84824868 4.62551755 7.88036862 1 11 C-1.3125 12.3125 -1.3125 12.3125 -3 13 C-2.67 12.34 -2.34 11.68 -2 11 C-1.79907217 9.50420396 -1.63663934 8.00303276 -1.5 6.5 C-1.11111111 2.22222222 -1.11111111 2.22222222 0 0 Z " fill="#FCB292" transform="translate(137,155)"/>
<path d="M0 0 C5.32011893 -0.34886026 5.32011893 -0.34886026 8 0 C10 1.875 10 1.875 11 4 C11 4.66 11 5.32 11 6 C12.13888672 6.03867188 12.13888672 6.03867188 13.30078125 6.078125 C14.29464844 6.13484375 15.28851563 6.1915625 16.3125 6.25 C17.29863281 6.29640625 18.28476562 6.3428125 19.30078125 6.390625 C22 7 22 7 23.85546875 9.046875 C24.23316406 9.69140625 24.61085938 10.3359375 25 11 C22.76250263 11.75520558 21.44389809 12.13803108 19.15649414 11.42675781 C18.23018188 10.94480957 18.23018188 10.94480957 17.28515625 10.453125 C16.59873047 10.1025 15.91230469 9.751875 15.20507812 9.390625 C14.14450195 8.82601562 14.14450195 8.82601562 13.0625 8.25 C12.35931641 7.8890625 11.65613281 7.528125 10.93164062 7.15625 C7.21311771 5.23251556 3.51307549 3.28246783 0 1 C0 0.67 0 0.34 0 0 Z " fill="#E0604F" transform="translate(37,132)"/>
<path d="M0 0 C2.64 0 5.28 0 8 0 C8 0.99 8 1.98 8 3 C7.34 3.66 6.68 4.32 6 5 C6 5.66 6 6.32 6 7 C6.66 7.33 7.32 7.66 8 8 C8 8.66 8 9.32 8 10 C5.36 10 2.72 10 0 10 C0 6.7 0 3.4 0 0 Z " fill="#F8B293" transform="translate(120,160)"/>
<path d="M0 0 C0.33 0 0.66 0 1 0 C0.34 10.89 -0.32 21.78 -1 33 C-1.66 33 -2.32 33 -3 33 C-3.61916858 10.40510967 -3.61916858 10.40510967 0 0 Z " fill="#EEC176" transform="translate(150,112)"/>
<path d="M0 0 C0.66 0.99 1.32 1.98 2 3 C1.34 3.66 0.68 4.32 0 5 C-0.38894914 7.49192611 -0.38894914 7.49192611 1 10 C3.87408696 11.68015234 6.87397249 12.86957793 10 14 C10 14.99 10 15.98 10 17 C5.3229538 16.4090007 1.18606401 15.82662918 -2.1875 12.3125 C-4 9 -4 9 -3.4375 5.25 C-2 2 -2 2 0 0 Z " fill="#6A3A23" transform="translate(65,60)"/>
<path d="M0 0 C0.33 0 0.66 0 1 0 C1.12549613 7.4042714 1.12549613 7.4042714 0.51367188 10.30859375 C-0.00138107 13.00723615 -0.20411266 15.55760918 -0.31640625 18.30078125 C-0.35830078 19.27724609 -0.40019531 20.25371094 -0.44335938 21.25976562 C-0.48267578 22.26716797 -0.52199219 23.27457031 -0.5625 24.3125 C-0.60568359 25.33923828 -0.64886719 26.36597656 -0.69335938 27.42382812 C-0.79906825 29.94909569 -0.90116468 32.47445562 -1 35 C-1.33 35 -1.66 35 -2 35 C-2.66 28.73 -3.32 22.46 -4 16 C-3.67 16 -3.34 16 -3 16 C-2.92652344 14.64455078 -2.92652344 14.64455078 -2.8515625 13.26171875 C-2.77679688 12.08222656 -2.70203125 10.90273437 -2.625 9.6875 C-2.55539062 8.51574219 -2.48578125 7.34398437 -2.4140625 6.13671875 C-2 3 -2 3 0 0 Z " fill="#EEDAD1" transform="translate(12,136)"/>
<path d="M0 0 C3.63 0 7.26 0 11 0 C10.67 2.64 10.34 5.28 10 8 C10.66 8 11.32 8 12 8 C11.67 8.66 11.34 9.32 11 10 C9.68 9.67 8.36 9.34 7 9 C7 7.35 7 5.7 7 4 C5.02 4 3.04 4 1 4 C0.67 2.68 0.34 1.36 0 0 Z " fill="#8EAF8E" transform="translate(101,100)"/>
<path d="M0 0 C-0.33 2.97 -0.66 5.94 -1 9 C-1.99 9.33 -2.98 9.66 -4 10 C-4 8.35 -4 6.7 -4 5 C-4.94875 4.87625 -5.8975 4.7525 -6.875 4.625 C-10 4 -10 4 -12 2 C-7.7975546 -0.80163026 -4.99895065 -0.14489712 0 0 Z " fill="#EAEEEC" transform="translate(161,55)"/>
<path d="M0 0 C3 2 3 2 3.765625 5.34375 C3.94423551 6.72705995 4.10476055 8.11278926 4.25 9.5 C4.3329834 10.21671875 4.4159668 10.9334375 4.50146484 11.671875 C5.07670589 17.22214005 4.98007899 22.49036673 4 28 C3.67 28 3.34 28 3 28 C1.67280114 21.03220597 1.91174619 14.07011089 2 7 C0.02 7 -1.96 7 -4 7 C-4 6.67 -4 6.34 -4 6 C-2.35 6 -0.7 6 1 6 C0.67 4.02 0.34 2.04 0 0 Z " fill="#F7D2A6" transform="translate(145,158)"/>
<path d="M0 0 C0.99 0.99 1.98 1.98 3 3 C2.92578125 5.59375 2.92578125 5.59375 2.3125 8.5 C2.12300781 9.4590625 1.93351563 10.418125 1.73828125 11.40625 C1 14 1 14 -1 17 C-1.16699232 20.12521833 -1.16699232 20.12521833 -1 23 C-1.66 23 -2.32 23 -3 23 C-4 18.125 -4 18.125 -4 17 C-4.66 17 -5.32 17 -6 17 C-5.67 15.68 -5.34 14.36 -5 13 C-4.01 13.33 -3.02 13.66 -2 14 C-1.34 9.38 -0.68 4.76 0 0 Z " fill="#EED7CF" transform="translate(131,96)"/>
<path d="M0 0 C0.99 0.495 0.99 0.495 2 1 C2 3.97 2 6.94 2 10 C2.99 10 3.98 10 5 10 C5 10.99 5 11.98 5 13 C5.61875 13.12375 6.2375 13.2475 6.875 13.375 C9 14 9 14 11 16 C11 16.99 11 17.98 11 19 C7.96499013 18.66277668 6.25341293 18.19548997 3.8125 16.3125 C-0.19630278 11.1978206 -0.21443133 6.21850865 0 0 Z " fill="#E9BEA7" transform="translate(143,80)"/>
<path d="M0 0 C0 4.29 0 8.58 0 13 C-1.32 13 -2.64 13 -4 13 C-4.96070434 10.11788698 -5.10581883 8.30149956 -5.0625 5.3125 C-5.05347656 4.50425781 -5.04445312 3.69601563 -5.03515625 2.86328125 C-5.02355469 2.24839844 -5.01195312 1.63351563 -5 1 C-1.125 0 -1.125 0 0 0 Z " fill="#F9D294" transform="translate(154,166)"/>
<path d="M0 0 C0.66 0 1.32 0 2 0 C2.625 1.875 2.625 1.875 3 4 C-1.83716962 8.83716962 -10.04982553 8.1084756 -16.49438477 8.13623047 C-20.33048898 8.1198536 -24.1644952 8.07088202 -28 8 C-28 7.67 -28 7.34 -28 7 C-27.01257812 6.93941406 -26.02515625 6.87882813 -25.0078125 6.81640625 C-23.72648437 6.73261719 -22.44515625 6.64882812 -21.125 6.5625 C-19.84882812 6.48128906 -18.57265625 6.40007812 -17.2578125 6.31640625 C-14.11699848 6.20793973 -14.11699848 6.20793973 -12 5 C-10.5461507 4.79792056 -9.08651638 4.63595501 -7.625 4.5 C-4.6537225 4.22175328 -1.88012934 3.78907653 1 3 C0.67 2.01 0.34 1.02 0 0 Z " fill="#BF584C" transform="translate(68,159)"/>
<path d="M0 0 C0.66 0 1.32 0 2 0 C2.928125 1.175625 2.928125 1.175625 3.875 2.375 C5.97209342 4.96552717 6.88273573 6.02028837 10 7 C14.93145738 7.46630627 14.93145738 7.46630627 19.3125 5.5 C19.869375 5.005 20.42625 4.51 21 4 C21.66 4 22.32 4 23 4 C23 4.66 23 5.32 23 6 C22.34 6 21.68 6 21 6 C21 6.66 21 7.32 21 8 C20.01 8 19.02 8 18 8 C18 8.66 18 9.32 18 10 C11.62602663 10.69282319 6.10958179 8.9643307 1 5 C0.2109375 2.32421875 0.2109375 2.32421875 0 0 Z " fill="#D85948" transform="translate(48,75)"/>
<path d="M0 0 C0.93045933 2.55144824 1.08564091 3.74006478 0.22265625 6.359375 C-0.16019531 7.14828125 -0.54304687 7.9371875 -0.9375 8.75 C-1.31777344 9.54921875 -1.69804687 10.3484375 -2.08984375 11.171875 C-2.39019531 11.77515625 -2.69054687 12.3784375 -3 13 C-3.66 13 -4.32 13 -5 13 C-6.25664978 10.09399739 -7 8.20395416 -7 5 C-5.46875 3.61328125 -5.46875 3.61328125 -3.5 2.3125 C-2.8503125 1.87550781 -2.200625 1.43851562 -1.53125 0.98828125 C-1.0259375 0.66214844 -0.520625 0.33601563 0 0 Z " fill="#7B4F31" transform="translate(174,102)"/>
<path d="M0 0 C1.98 0 3.96 0 6 0 C6.33 2.64 6.66 5.28 7 8 C5.02 7.34 3.04 6.68 1 6 C0.71125 6.969375 0.4225 7.93875 0.125 8.9375 C-1 12 -1 12 -3 13 C-2.125 8.125 -2.125 8.125 -1 7 C-0.63239269 4.67182036 -0.29758419 2.3381615 0 0 Z " fill="#747A77" transform="translate(117,100)"/>
<path d="M0 0 C1.32 0 2.64 0 4 0 C5.14654482 2.29308963 5.19729117 3.79909656 5.31640625 6.3515625 C5.35830078 7.20234375 5.40019531 8.053125 5.44335938 8.9296875 C5.48267578 9.81914063 5.52199219 10.70859375 5.5625 11.625 C5.60568359 12.5221875 5.64886719 13.419375 5.69335938 14.34375 C5.79956861 16.56234283 5.90161194 18.7810488 6 21 C5.34 20.67 4.68 20.34 4 20 C4 15.71 4 11.42 4 7 C3.01 7 2.02 7 1 7 C0.67 7.66 0.34 8.32 0 9 C-0.59732819 6.23735711 -1 3.83967231 -1 1 C-0.67 0.67 -0.34 0.34 0 0 Z " fill="#D69A7A" transform="translate(54,46)"/>
<path d="M0 0 C0.33 0 0.66 0 1 0 C1 8.25 1 16.5 1 25 C-0.98 24.67 -2.96 24.34 -5 24 C-5 22.35 -5 20.7 -5 19 C-3.35 19 -1.7 19 0 19 C0 12.73 0 6.46 0 0 Z " fill="#CFA987" transform="translate(138,128)"/>
<path d="M0 0 C1.98 0 3.96 0 6 0 C6.33 5.94 6.66 11.88 7 18 C4.48760618 14.23140928 3.87336801 11.73760751 3.9375 7.3125 C3.94652344 6.50425781 3.95554688 5.69601563 3.96484375 4.86328125 C3.98224609 3.94095703 3.98224609 3.94095703 4 3 C2.02 3.66 0.04 4.32 -2 5 C-1.125 1.125 -1.125 1.125 0 0 Z " fill="#FEF6E4" transform="translate(141,165)"/>
<path d="M0 0 C0.66 0 1.32 0 2 0 C1.67 1.32 1.34 2.64 1 4 C0.34 4 -0.32 4 -1 4 C-1 4.66 -1 5.32 -1 6 C-6.28 7.32 -11.56 8.64 -17 10 C-17 9.01 -17 8.02 -17 7 C-13.01939223 5.82923301 -9.08378283 4.74250597 -5 4 C-5 3.67 -5 3.34 -5 3 C-3.35 3 -1.7 3 0 3 C0 2.01 0 1.02 0 0 Z " fill="#FDECE6" transform="translate(49,64)"/>
<path d="M0 0 C0.33 0 0.66 0 1 0 C1.37851209 5.93002267 0.10575375 10.47239641 -2 16 C-2.66 16 -3.32 16 -4 16 C-3.39578636 4.10324186 -3.39578636 4.10324186 0 0 Z M-5 16 C-4.67 17.32 -4.34 18.64 -4 20 C-4.66 20 -5.32 20 -6 20 C-5.67 18.68 -5.34 17.36 -5 16 Z " fill="#EEC174" transform="translate(177,118)"/>
<path d="M0 0 C0.66 1.32 1.32 2.64 2 4 C2.99 4 3.98 4 5 4 C5 7.63 5 11.26 5 15 C4.01 15 3.02 15 2 15 C2.33 13.02 2.66 11.04 3 9 C1.68 8.34 0.36 7.68 -1 7 C-1.04254356 5.00045254 -1.04080783 2.99958364 -1 1 C-0.67 0.67 -0.34 0.34 0 0 Z " fill="#F2B798" transform="translate(53,49)"/>
<path d="M0 0 C0.99 0.33 1.98 0.66 3 1 C3 1.66 3 2.32 3 3 C4.2684375 3.37125 4.2684375 3.37125 5.5625 3.75 C9.47412272 5.17240826 12.53244087 6.68829391 16 9 C16.9375 11.25 16.9375 11.25 17 13 C16.34 13 15.68 13 15 13 C15 12.01 15 11.02 15 10 C13.7625 9.896875 12.525 9.79375 11.25 9.6875 C7.74317752 9.25225608 5.52430313 8.62948243 3 6 C3 5.34 3 4.68 3 4 C2.01 4 1.02 4 0 4 C0 2.68 0 1.36 0 0 Z " fill="#E8B9A1" transform="translate(71,159)"/>
<path d="M0 0 C5.06998019 0.65419099 9.41990777 2.8546409 14 5 C14 5.66 14 6.32 14 7 C14.66 7 15.32 7 16 7 C16 7.66 16 8.32 16 9 C16.99 9.33 17.98 9.66 19 10 C19 10.66 19 11.32 19 12 C15.625 11.3125 15.625 11.3125 12 10 C11.29788106 8.34795544 10.63028587 6.68076231 10 5 C7.11681225 3.81664605 7.11681225 3.81664605 4 3 C1.625 1.375 1.625 1.375 0 0 Z " fill="#F4D8AC" transform="translate(176,92)"/>
<path d="M0 0 C2.64 0 5.28 0 8 0 C8 0.66 8 1.32 8 2 C9.010625 2.12375 10.02125 2.2475 11.0625 2.375 C14.87937612 2.98085335 18.31500112 3.87193912 22 5 C22 5.33 22 5.66 22 6 C14.75643562 6.55719726 8.67614963 4.81425384 2 2 C1.34 1.34 0.68 0.68 0 0 Z " fill="#BD4F42" transform="translate(18,160)"/>
<path d="M0 0 C0.66 0 1.32 0 2 0 C1.69055299 2.58373234 1.37756043 5.16695133 1.0625 7.75 C0.97548828 8.47960937 0.88847656 9.20921875 0.79882812 9.9609375 C0.37972591 13.37584442 -0.117274 16.67603543 -1 20 C-1.66 20 -2.32 20 -3 20 C-3.027193 18.41676312 -3.04648306 16.83338938 -3.0625 15.25 C-3.07410156 14.36828125 -3.08570312 13.4865625 -3.09765625 12.578125 C-3.00826198 10.2181162 -2.66912821 8.25501476 -2 6 C-1.34 6 -0.68 6 0 6 C0 4.02 0 2.04 0 0 Z " fill="#CA655C" transform="translate(75,128)"/>
<path d="M0 0 C0.33 0.99 0.66 1.98 1 3 C1.66 3 2.32 3 3 3 C3 3.66 3 4.32 3 5 C0.89590361 5.02701408 -1.20829178 5.04640223 -3.3125 5.0625 C-4.48425781 5.07410156 -5.65601562 5.08570313 -6.86328125 5.09765625 C-10 5 -10 5 -13 4 C-13 3.34 -13 2.68 -13 2 C-12.14535156 1.93941406 -11.29070312 1.87882813 -10.41015625 1.81640625 C-8.75306641 1.69072266 -8.75306641 1.69072266 -7.0625 1.5625 C-5.96035156 1.48128906 -4.85820312 1.40007812 -3.72265625 1.31640625 C-1.08890097 1.29581916 -1.08890097 1.29581916 0 0 Z " fill="#E2C6AC" transform="translate(133,170)"/>
<path d="M0 0 C0 0.66 0 1.32 0 2 C-1.32 2.33 -2.64 2.66 -4 3 C-4 3.66 -4 4.32 -4 5 C-4.7425 5.144375 -5.485 5.28875 -6.25 5.4375 C-10.43847648 7.81731618 -11.38452846 11.6138594 -13 16 C-13.66 16 -14.32 16 -15 16 C-14.27856143 11.09421775 -13.14516579 6.71075852 -9.12890625 3.5078125 C-3.72846045 0 -3.72846045 0 0 0 Z " fill="#C96E6B" transform="translate(32,75)"/>
<path d="M0 0 C0.66 0 1.32 0 2 0 C-0.99661066 6.49265642 -4.96344247 12.05032663 -11 16 C-11.99 16 -12.98 16 -14 16 C-14 15.34 -14 14.68 -14 14 C-12.4609375 12.7734375 -12.4609375 12.7734375 -10.375 11.375 C-6.45242192 8.56521003 -3.90082738 5.52804978 -1.2265625 1.5390625 C-0.82179687 1.03117188 -0.41703125 0.52328125 0 0 Z " fill="#ECBD75" transform="translate(190,144)"/>
<path d="M0 0 C1.64826111 2.96687001 2.44271087 5.65626525 3 9 C1.02 9.33 -0.96 9.66 -3 10 C-3.33 7.69 -3.66 5.38 -4 3 C-2.68 3 -1.36 3 0 3 C0 2.01 0 1.02 0 0 Z " fill="#EDC1C5" transform="translate(89,102)"/>
<path d="M0 0 C4.95 0.33 9.9 0.66 15 1 C15 1.33 15 1.66 15 2 C12.03 2 9.06 2 6 2 C6 6.62 6 11.24 6 16 C4.02 16 2.04 16 0 16 C0 15.67 0 15.34 0 15 C1.65 15 3.3 15 5 15 C4.67 11.37 4.34 7.74 4 4 C2.68 3.67 1.36 3.34 0 3 C0 2.01 0 1.02 0 0 Z " fill="#CFA673" transform="translate(149,164)"/>
<path d="M0 0 C2.71567296 2.71567296 3.24031242 5.76406108 4.1875 9.375 C4.47270508 10.38433594 4.47270508 10.38433594 4.76367188 11.4140625 C5.69373485 14.90094068 6.37823351 17.57636262 5 21 C3 18 3 18 3 14 C2.34 14 1.68 14 1 14 C0.67 9.38 0.34 4.76 0 0 Z " fill="#F2D19E" transform="translate(202,122)"/>
<path d="M0 0 C0.66 0 1.32 0 2 0 C1.67 9.57 1.34 19.14 1 29 C0.67 29 0.34 29 0 29 C-0.19656362 24.72953289 -0.38070249 20.45861919 -0.5625 16.1875 C-0.61857422 14.97255859 -0.67464844 13.75761719 -0.73242188 12.50585938 C-0.78076172 11.34248047 -0.82910156 10.17910156 -0.87890625 8.98046875 C-0.9260376 7.90692139 -0.97316895 6.83337402 -1.02172852 5.72729492 C-1 3 -1 3 0 0 Z " fill="#D7AC7A" transform="translate(154,120)"/>
<path d="M0 0 C5.75 -0.125 5.75 -0.125 8 1 C8 2.32 8 3.64 8 5 C5.6739143 5.38063221 3.33944736 5.71269945 1 6 C0 5 0 5 -0.0625 2.4375 C-0.041875 1.633125 -0.02125 0.82875 0 0 Z " fill="#CCEAF7" transform="translate(99,110)"/>
<path d="M0 0 C4.72503866 3.58451208 5.84718548 8.42379345 7 14 C7.20018884 16.40652541 7.15767555 18.58230819 7 21 C6.34 21 5.68 21 5 21 C4.87625 19.96875 4.7525 18.9375 4.625 17.875 C4.05597794 14.34706321 3.16673083 11.36293004 2 8 C1.29094651 5.34225528 0.64550647 2.67424109 0 0 Z " fill="#CB6D69" transform="translate(82,84)"/>
<path d="M0 0 C2 2 2 2 2 6 C3.65 5.67 5.3 5.34 7 5 C7.33 6.32 7.66 7.64 8 9 C10.31 9 12.62 9 15 9 C15 9.66 15 10.32 15 11 C11.04 11 7.08 11 3 11 C3.99 9.68 4.98 8.36 6 7 C4.02 7.33 2.04 7.66 0 8 C0 5.36 0 2.72 0 0 Z " fill="#F1EFF7" transform="translate(92,106)"/>
<path d="M0 0 C1.32 0 2.64 0 4 0 C4.36923077 6.52307692 4.36923077 6.52307692 2.5 8.9375 C2.005 9.288125 1.51 9.63875 1 10 C0.34 9.67 -0.32 9.34 -1 9 C-1.09765625 2.84765625 -1.09765625 2.84765625 -1 1 C-0.67 0.67 -0.34 0.34 0 0 Z " fill="#FBAD90" transform="translate(149,63)"/>
<path d="M0 0 C0.66 0 1.32 0 2 0 C3.30677587 10.35368578 3.30677587 10.35368578 2 15 C2 15.66 2 16.32 2 17 C1.01 17 0.02 17 -1 17 C-0.67 14.69 -0.34 12.38 0 10 C-0.66 10 -1.32 10 -2 10 C-1.855625 9.46375 -1.71125 8.9275 -1.5625 8.375 C-0.90546252 5.60084173 -0.44780052 2.81474612 0 0 Z " fill="#B9C6A7" transform="translate(113,98)"/>
<path d="M0 0 C0.556875 0.7425 1.11375 1.485 1.6875 2.25 C3.93027178 4.91707995 6.22074975 6.91556232 9 9 C8.67 10.32 8.34 11.64 8 13 C8 12.34 8 11.68 8 11 C7.05125 10.9175 6.1025 10.835 5.125 10.75 C2 10 2 10 0.625 8.3125 C-0.14251823 5.47268254 -0.13309772 2.92814973 0 0 Z " fill="#E19478" transform="translate(60,67)"/>
<path d="M0 0 C1.37562854 1.28965176 2.70766393 2.62689293 4 4 C4 4.66 4 5.32 4 6 C3.34 6 2.68 6 2 6 C2 5.01 2 4.02 2 3 C0.68 3.33 -0.64 3.66 -2 4 C-2.33 6.64 -2.66 9.28 -3 12 C-3.99 12 -4.98 12 -6 12 C-6.35671933 8.16526716 -6.29771416 6.44657125 -4.125 3.1875 C-2 1 -2 1 0 0 Z " fill="#EEBDA9" transform="translate(151,60)"/>
<path d="M0 0 C2.475 0.495 2.475 0.495 5 1 C5 1.66 5 2.32 5 3 C6.0828125 3.061875 6.0828125 3.061875 7.1875 3.125 C11.35236242 4.42073497 12.58818797 6.38228195 15 10 C14.8125 12.375 14.8125 12.375 14 14 C13.71125 13.360625 13.4225 12.72125 13.125 12.0625 C12.17176549 9.84793921 12.17176549 9.84793921 10 9 C10 8.34 10 7.68 10 7 C9.34 7 8.68 7 8 7 C7.67 6.34 7.34 5.68 7 5 C6.195625 4.690625 5.39125 4.38125 4.5625 4.0625 C2 3 2 3 0 0 Z " fill="#FEF8E1" transform="translate(182,92)"/>
<path d="M0 0 C5.94 0.99 5.94 0.99 12 2 C12 2.66 12 3.32 12 4 C12.99 4.33 13.98 4.66 15 5 C13.02 5.99 13.02 5.99 11 7 C11 6.34 11 5.68 11 5 C8.03 4.505 8.03 4.505 5 4 C4.67 4.66 4.34 5.32 4 6 C4 5.01 4 4.02 4 3 C2.35 2.67 0.7 2.34 -1 2 C-0.67 1.34 -0.34 0.68 0 0 Z " fill="#EDB698" transform="translate(76,148)"/>
<path d="M0 0 C0.66 0 1.32 0 2 0 C2.33 2.31 2.66 4.62 3 7 C5.22189824 4.77810176 5.92598892 2.91517292 7 0 C8 2 8 2 7.25 5.4375 C5.59143969 10.16439689 5.59143969 10.16439689 3 12 C2.34 12 1.68 12 1 12 C0.67 8.04 0.34 4.08 0 0 Z " fill="#F2DCBB" transform="translate(138,112)"/>
<path d="M0 0 C2.31 0.33 4.62 0.66 7 1 C7 1.33 7 1.66 7 2 C5.35 2 3.7 2 2 2 C1.34 7.28 0.68 12.56 0 18 C-0.99 18 -1.98 18 -3 18 C-2.855625 17.154375 -2.71125 16.30875 -2.5625 15.4375 C-2.18137745 13.10841776 -1.82802136 10.77465221 -1.5 8.4375 C-1.08679142 5.59669101 -0.59542424 2.80699999 0 0 Z " fill="#F6CA92" transform="translate(176,94)"/>
<path d="M0 0 C0.33 0 0.66 0 1 0 C1 2.64 1 5.28 1 8 C0.01 8 -0.98 8 -2 8 C-2 12.95 -2 17.9 -2 23 C-2.33 23 -2.66 23 -3 23 C-3 16.4 -3 9.8 -3 3 C-2.01 3 -1.02 3 0 3 C0 2.01 0 1.02 0 0 Z " fill="#DC5E57" transform="translate(19,88)"/>
<path d="M0 0 C2.57022407 3.85533611 4.16765078 7.11392876 3.75 11.8125 C3 14 3 14 1 15 C0.67 15.99 0.34 16.98 0 18 C-0.66 18 -1.32 18 -2 18 C-2 16.68 -2 15.36 -2 14 C-1.34 13.67 -0.68 13.34 0 13 C0 8.71 0 4.42 0 0 Z " fill="#F1BFA8" transform="translate(50,54)"/>
<path d="M0 0 C0.33 0 0.66 0 1 0 C1.33 4.62 1.66 9.24 2 14 C-0.31 14 -2.62 14 -5 14 C-5 13.34 -5 12.68 -5 12 C-3.35 11.67 -1.7 11.34 0 11 C-0.185625 9.741875 -0.37125 8.48375 -0.5625 7.1875 C-1.00732761 4.17255732 -0.99843846 2.99531539 0 0 Z " fill="#725A4F" transform="translate(213,184)"/>
<path d="M0 0 C0.99 0.66 1.98 1.32 3 2 C2.34 4.31 1.68 6.62 1 9 C-3.75 8.25 -3.75 8.25 -6 6 C-5.67 5.01 -5.34 4.02 -5 3 C-3.35 3 -1.7 3 0 3 C0 2.01 0 1.02 0 0 Z " fill="#F3AA89" transform="translate(154,87)"/>
<path d="M0 0 C3.125 0.375 3.125 0.375 6 1 C5.01 1.66 4.02 2.32 3 3 C1.989375 3.70125 0.97875 4.4025 -0.0625 5.125 C-3 7 -3 7 -5 7 C-5.66 8.32 -6.32 9.64 -7 11 C-7.3125 8.1875 -7.3125 8.1875 -7 5 C-4.625 3.25 -4.625 3.25 -2 2 C-1.34 1.34 -0.68 0.68 0 0 Z " fill="#FDE0D9" transform="translate(26,73)"/>
<path d="M0 0 C1.49341969 2.98683937 0.40648676 4.95160978 -0.4375 8.125 C-0.72496094 9.22070312 -1.01242188 10.31640625 -1.30859375 11.4453125 C-1.65083984 12.70988281 -1.65083984 12.70988281 -2 14 C-2.66 14 -3.32 14 -4 14 C-4 12.68 -4 11.36 -4 10 C-4.66 10 -5.32 10 -6 10 C-6 9.34 -6 8.68 -6 8 C-5.34 8 -4.68 8 -4 8 C-3.896875 7.236875 -3.79375 6.47375 -3.6875 5.6875 C-2.95635961 2.82940576 -2.23048087 1.84257115 0 0 Z " fill="#F1D29C" transform="translate(152,102)"/>
<path d="M0 0 C4.62 0 9.24 0 14 0 C10.38863788 1.80568106 9.455469 2.24851563 5.75 2.125 C3.89375 2.063125 3.89375 2.063125 2 2 C2 3.65 2 5.3 2 7 C1.34 7 0.68 7 0 7 C0 4.69 0 2.38 0 0 Z " fill="#BCCBA1" transform="translate(99,96)"/>
<path d="M0 0 C6.27 0 12.54 0 19 0 C19 4.29 19 8.58 19 13 C18.34 13 17.68 13 17 13 C16.67 9.37 16.34 5.74 16 2 C10.72 1.67 5.44 1.34 0 1 C0 0.67 0 0.34 0 0 Z " fill="#E8EDDF" transform="translate(98,94)"/>
<path d="M0 0 C-0.33 1.65 -0.66 3.3 -1 5 C-2.98 5.33 -4.96 5.66 -7 6 C-7 4.68 -7 3.36 -7 2 C-4 0 -4 0 0 0 Z " fill="#FFF6E3" transform="translate(147,147)"/>
<path d="M0 0 C2.475 0.495 2.475 0.495 5 1 C5 2.98 5 4.96 5 7 C3.35 7.33 1.7 7.66 0 8 C0 5.36 0 2.72 0 0 Z " fill="#ECF7F5" transform="translate(108,109)"/>
<path d="M0 0 C1.65 0 3.3 0 5 0 C4.67 1.32 4.34 2.64 4 4 C2.5629191 4.05422947 1.12524538 4.09289723 -0.3125 4.125 C-1.11300781 4.14820313 -1.91351563 4.17140625 -2.73828125 4.1953125 C-5 4 -5 4 -8 2 C-5.36 2 -2.72 2 0 2 C0 1.34 0 0.68 0 0 Z " fill="#F4BE9F" transform="translate(128,168)"/>
<path d="M0 0 C4.455 0.99 4.455 0.99 9 2 C9 3.65 9 5.3 9 7 C8.67 5.68 8.34 4.36 8 3 C5.69 3.66 3.38 4.32 1 5 C1 6.32 1 7.64 1 9 C2.98 9.495 2.98 9.495 5 10 C3.35 10 1.7 10 0 10 C0 6.7 0 3.4 0 0 Z " fill="#F5D7B1" transform="translate(139,144)"/>
<path d="M0 0 C0.33 0 0.66 0 1 0 C1 6.27 1 12.54 1 19 C-0.65 19 -2.3 19 -4 19 C-4 18.01 -4 17.02 -4 16 C-3.01 15.67 -2.02 15.34 -1 15 C-0.67 10.05 -0.34 5.1 0 0 Z " fill="#C89F77" transform="translate(137,128)"/>
<path d="M0 0 C0.66 0.33 1.32 0.66 2 1 C1.67 3.31 1.34 5.62 1 8 C-2.465 6.02 -2.465 6.02 -6 4 C-6 3.34 -6 2.68 -6 2 C-4.02 2 -2.04 2 0 2 C0 1.34 0 0.68 0 0 Z " fill="#8F6652" transform="translate(81,64)"/>
<path d="M0 0 C1.98 0 3.96 0 6 0 C6 0.66 6 1.32 6 2 C0.21642935 4.01167675 -4.90218999 4.22084624 -11 4 C-11 3.67 -11 3.34 -11 3 C-5.555 2.505 -5.555 2.505 0 2 C0 1.34 0 0.68 0 0 Z " fill="#F7CF96" transform="translate(198,176)"/>
<path d="M0 0 C0.33 0.66 0.66 1.32 1 2 C1.763125 2.144375 2.52625 2.28875 3.3125 2.4375 C6.26109198 3.05464716 7.73296884 4.06882531 10 6 C9.67 6.66 9.34 7.32 9 8 C8.34 8 7.68 8 7 8 C7 7.34 7 6.68 7 6 C6.34 6 5.68 6 5 6 C5 6.66 5 7.32 5 8 C4.34 8 3.68 8 3 8 C2.67 6.35 2.34 4.7 2 3 C1.34 3 0.68 3 0 3 C0 2.01 0 1.02 0 0 Z " fill="#DF5D4D" transform="translate(22,142)"/>
<path d="M0 0 C3.3 0 6.6 0 10 0 C9.67 1.65 9.34 3.3 9 5 C7.35 5 5.7 5 4 5 C4.33 4.01 4.66 3.02 5 2 C3.35 2.33 1.7 2.66 0 3 C0 2.01 0 1.02 0 0 Z " fill="#EDD1CF" transform="translate(88,113)"/>
<path d="M0 0 C1.32 0.33 2.64 0.66 4 1 C4 3.31 4 5.62 4 8 C4.66 8.33 5.32 8.66 6 9 C5.01 10.485 5.01 10.485 4 12 C0.60022418 8.60022418 0.60899332 4.61094941 0 0 Z " fill="#D69978" transform="translate(152,76)"/>
<path d="M0 0 C2.64 0 5.28 0 8 0 C7.67 2.64 7.34 5.28 7 8 C6.01 7.67 5.02 7.34 4 7 C4 5.68 4 4.36 4 3 C2.68 2.34 1.36 1.68 0 1 C0 0.67 0 0.34 0 0 Z " fill="#F2BAA5" transform="translate(80,42)"/>
<path d="M0 0 C0.66 0.33 1.32 0.66 2 1 C2.08886184 4.19902639 1.91058531 6.92677456 1 10 C-0.32 10.33 -1.64 10.66 -3 11 C-2.8864371 9.35333797 -2.75882619 7.70763918 -2.625 6.0625 C-2.55539063 5.14597656 -2.48578125 4.22945312 -2.4140625 3.28515625 C-2.27742188 2.53105469 -2.14078125 1.77695313 -2 1 C-1.34 0.67 -0.68 0.34 0 0 Z " fill="#4A2E1D" transform="translate(68,166)"/>
<path d="M0 0 C0.66 0 1.32 0 2 0 C2.28571429 8.57142857 2.28571429 8.57142857 0 12 C-0.66 12 -1.32 12 -2 12 C-1 3.42857143 -1 3.42857143 0 0 Z " fill="#F9D9D1" transform="translate(77,128)"/>
<path d="M0 0 C0.66 0.33 1.32 0.66 2 1 C2.75 4.375 2.75 4.375 3 8 C2.01 9.485 2.01 9.485 1 11 C0.34 11 -0.32 11 -1 11 C-0.67 7.37 -0.34 3.74 0 0 Z " fill="#D0695D" transform="translate(15,123)"/>
<path d="M0 0 C0.99 0 1.98 0 3 0 C2.67 3.3 2.34 6.6 2 10 C1.01 9.67 0.02 9.34 -1 9 C-0.67 6.03 -0.34 3.06 0 0 Z " fill="#CBA2A4" transform="translate(137,98)"/>
<path d="M0 0 C-0.33 1.32 -0.66 2.64 -1 4 C-5.29 4 -9.58 4 -14 4 C-11.36505677 2.24337118 -9.96001018 1.58136607 -7 0.875 C-6.319375 0.70742187 -5.63875 0.53984375 -4.9375 0.3671875 C-3 0 -3 0 0 0 Z " fill="#D06B66" transform="translate(48,70)"/>
<path d="M0 0 C0.33 1.32 0.66 2.64 1 4 C0.34 4.66 -0.32 5.32 -1 6 C-1 5.01 -1 4.02 -1 3 C-1.495 3.185625 -1.99 3.37125 -2.5 3.5625 C-6.15081689 4.20139296 -9.33964724 3.54905291 -13 3 C-13 2.67 -13 2.34 -13 2 C-8.71 1.34 -4.42 0.68 0 0 Z " fill="#855733" transform="translate(168,164)"/>
<path d="M0 0 C0.99 0 1.98 0 3 0 C2.58443583 4.84824868 0.62551755 6.88036862 -3 10 C-4.31828123 10.69595748 -5.64928912 11.36928426 -7 12 C-6.57847656 11.55269531 -6.15695313 11.10539063 -5.72265625 10.64453125 C-1.4622021 6.01600234 -1.4622021 6.01600234 0 0 Z " fill="#F9BA99" transform="translate(141,156)"/>
<path d="M0 0 C0.99 0.495 0.99 0.495 2 1 C2.62852934 3.33247815 3.15535246 5.69291467 3.625 8.0625 C3.88539062 9.35285156 4.14578125 10.64320313 4.4140625 11.97265625 C4.60742188 12.97167969 4.80078125 13.97070312 5 15 C4.34 15 3.68 15 3 15 C3 14.34 3 13.68 3 13 C2.34 13 1.68 13 1 13 C0.67 8.71 0.34 4.42 0 0 Z " fill="#FB9A80" transform="translate(32,118)"/>
<path d="M0 0 C2.97 0 5.94 0 9 0 C8.67 1.32 8.34 2.64 8 4 C3.545 3.01 3.545 3.01 -1 2 C-0.67 1.34 -0.34 0.68 0 0 Z " fill="#B9BDB0" transform="translate(97,117)"/>
<path d="M0 0 C1.65 0 3.3 0 5 0 C5 0.66 5 1.32 5 2 C4.34 2 3.68 2 3 2 C3.33 2.99 3.66 3.98 4 5 C1.33333333 6.33333333 -1.33333333 7.66666667 -4 9 C-3.75 7.125 -3.75 7.125 -3 5 C-0.9375 3.75 -0.9375 3.75 1 3 C0.67 2.01 0.34 1.02 0 0 Z " fill="#5A3018" transform="translate(55,40)"/>
<path d="M0 0 C0.33 0 0.66 0 1 0 C2.33257403 13.6332574 2.33257403 13.6332574 1 20 C0.67 20 0.34 20 0 20 C-0.94870788 13.14011227 -0.94870788 6.85988773 0 0 Z " fill="#E6CEAC" transform="translate(148,166)"/>
<path d="M0 0 C0.66 0 1.32 0 2 0 C2.66 1.65 3.32 3.3 4 5 C3.01 5.99 2.02 6.98 1 8 C-1 5 -1 5 -0.625 2.3125 C-0.41875 1.549375 -0.2125 0.78625 0 0 Z " fill="#F6FEFC" transform="translate(79,139)"/>
<path d="M0 0 C1.32 0.33 2.64 0.66 4 1 C4 1.99 4 2.98 4 4 C0.3558226 6.4294516 -1.71241272 6.16179575 -6 6 C-4.6875 4.5 -4.6875 4.5 -3 3 C-2.01 3 -1.02 3 0 3 C0 2.01 0 1.02 0 0 Z " fill="#F99C7E" transform="translate(64,77)"/>
<path d="M0 0 C1.32 0.66 2.64 1.32 4 2 C3.34 2 2.68 2 2 2 C1.7834375 3.423125 1.7834375 3.423125 1.5625 4.875 C1 8 1 8 0 10 C-1.32 9.67 -2.64 9.34 -4 9 C-3.525625 8.62875 -3.05125 8.2575 -2.5625 7.875 C-0.47794198 5.37353038 -0.35378509 3.18406582 0 0 Z " fill="#DFA88B" transform="translate(68,37)"/>
<path d="M0 0 C-0.66 0 -1.32 0 -2 0 C-2 0.66 -2 1.32 -2 2 C0.97 2.33 3.94 2.66 7 3 C7 3.33 7 3.66 7 4 C1.01006953 4.3152595 -2.63560356 3.68219822 -8 1 C-4.93251126 -0.86240388 -3.40254489 -1.2151946 0 0 Z " fill="#835035" transform="translate(78,37)"/>
<path d="M0 0 C0.99 0.33 1.98 0.66 3 1 C3 1.66 3 2.32 3 3 C3.66 3 4.32 3 5 3 C5 2.34 5 1.68 5 1 C5.99 1.33 6.98 1.66 8 2 C7.67 2.99 7.34 3.98 7 5 C6.34 5 5.68 5 5 5 C4.67 5.66 4.34 6.32 4 7 C0 1.125 0 1.125 0 0 Z " fill="#F5B598" transform="translate(78,127)"/>
<path d="M0 0 C0.625 1.8125 0.625 1.8125 1 4 C0.01 5.485 0.01 5.485 -1 7 C-3.97 6.505 -3.97 6.505 -7 6 C-6.21625 5.38125 -5.4325 4.7625 -4.625 4.125 C-2.03162353 2.10141339 -2.03162353 2.10141339 0 0 Z " fill="#905E3A" transform="translate(174,102)"/>
<path d="M0 0 C2.64 0 5.28 0 8 0 C8.33 0.99 8.66 1.98 9 3 C6.03 3 3.06 3 0 3 C0 2.01 0 1.02 0 0 Z " fill="#7FA2B2" transform="translate(98,107)"/>
<path d="M0 0 C1.32 0 2.64 0 4 0 C4.66 2.31 5.32 4.62 6 7 C4.02 6.34 2.04 5.68 0 5 C0 3.35 0 1.7 0 0 Z " fill="#4C5B67" transform="translate(118,101)"/>
<path d="M0 0 C2.97 0 5.94 0 9 0 C9 0.99 9 1.98 9 3 C6.1875 3.6875 6.1875 3.6875 3 4 C1.125 2.625 1.125 2.625 0 1 C0 0.67 0 0.34 0 0 Z " fill="#F4EBE5" transform="translate(166,72)"/>
<path d="M0 0 C0.66 0.33 1.32 0.66 2 1 C2 1.66 2 2.32 2 3 C-0.64 3 -3.28 3 -6 3 C-6 2.01 -6 1.02 -6 0 C-3.4832097 -1.25839515 -2.62168527 -0.81927665 0 0 Z " fill="#F2AC8A" transform="translate(126,167)"/>
<path d="M0 0 C2.64 0.66 5.28 1.32 8 2 C5.4345406 4.5654594 3.52313332 4.54046087 0 5 C0 3.35 0 1.7 0 0 Z " fill="#DE5F4C" transform="translate(48,153)"/>
<path d="M0 0 C4.29 0.99 8.58 1.98 13 3 C13 3.33 13 3.66 13 4 C5.25 4.125 5.25 4.125 3 3 C2.67 3.66 2.34 4.32 2 5 C1.01 4.01 0.02 3.02 -1 2 C-0.67 1.34 -0.34 0.68 0 0 Z " fill="#FBA084" transform="translate(61,145)"/>
<path d="M0 0 C3.63 0 7.26 0 11 0 C11.33 1.32 11.66 2.64 12 4 C4.5 3.375 4.5 3.375 0 0 Z " fill="#DF6250" transform="translate(60,144)"/>
<path d="M0 0 C0 2.31 0 4.62 0 7 C-0.99 7.33 -1.98 7.66 -3 8 C-3.66 6.68 -4.32 5.36 -5 4 C-1.125 0 -1.125 0 0 0 Z " fill="#BBA89B" transform="translate(139,113)"/>
<path d="M0 0 C0.99 0.33 1.98 0.66 3 1 C3.33 1.99 3.66 2.98 4 4 C2.33333333 5.66666667 0.66666667 7.33333333 -1 9 C-1.09765625 2.84765625 -1.09765625 2.84765625 -1 1 C-0.67 0.67 -0.34 0.34 0 0 Z " fill="#FAECE7" transform="translate(88,42)"/>
<path d="M0 0 C2.67927341 4.01891012 2.15601248 6.24161923 2 11 C1.67 10.34 1.34 9.68 1 9 C0.34 9 -0.32 9 -1 9 C-0.67 6.03 -0.34 3.06 0 0 Z " fill="#E3D5C7" transform="translate(45,188)"/>
<path d="M0 0 C0.66 0.33 1.32 0.66 2 1 C-0.75 6.875 -0.75 6.875 -3 8 C-3.66 7.34 -4.32 6.68 -5 6 C-4.34 4.68 -3.68 3.36 -3 2 C-2.01 2 -1.02 2 0 2 C0 1.34 0 0.68 0 0 Z " fill="#F5EBE3" transform="translate(127,111)"/>
<path d="M0 0 C1.32 0.33 2.64 0.66 4 1 C4 3.31 4 5.62 4 8 C2 6.25 2 6.25 0 4 C0 2.68 0 1.36 0 0 Z " fill="#F64D4F" transform="translate(20,88)"/>
<path d="M0 0 C0.33 0 0.66 0 1 0 C1 1.65 1 3.3 1 5 C0.01 5.33 -0.98 5.66 -2 6 C-3.20882096 8.00016466 -3.20882096 8.00016466 -4 10 C-4.66 9.67 -5.32 9.34 -6 9 C-5.02501855 7.4972763 -4.04490611 5.99788037 -3.0625 4.5 C-2.51722656 3.6646875 -1.97195312 2.829375 -1.41015625 1.96875 C-0.94480469 1.3190625 -0.47945313 0.669375 0 0 Z " fill="#EEE3DA" transform="translate(84,67)"/>
<path d="M0 0 C0.33 0 0.66 0 1 0 C1.103125 1.11375 1.20625 2.2275 1.3125 3.375 C1.539375 4.57125 1.76625 5.7675 2 7 C2.99 7.66 3.98 8.32 5 9 C4.34 10.32 3.68 11.64 3 13 C0.26295246 10.26295246 -0.16182449 7.73955226 -1 4 C-0.625 1.5625 -0.625 1.5625 0 0 Z " fill="#6F422B" transform="translate(51,49)"/>
<path d="M0 0 C0.33 0.66 0.66 1.32 1 2 C-5.4 3.23076923 -5.4 3.23076923 -8.4375 2.0625 C-8.953125 1.711875 -9.46875 1.36125 -10 1 C-6.78548731 -0.60725635 -3.56387464 -0.05748185 0 0 Z " fill="#6F5E52" transform="translate(72,25)"/>
<path d="M0 0 C1.99390001 3.98780002 2.22686963 5.47147572 2.125 9.75 C2.10695312 10.73484375 2.08890625 11.7196875 2.0703125 12.734375 C2.04710937 13.48203125 2.02390625 14.2296875 2 15 C1.67 15 1.34 15 1 15 C1 13.02 1 11.04 1 9 C0.34 9 -0.32 9 -1 9 C-0.67 6.03 -0.34 3.06 0 0 Z " fill="#DDC6A0" transform="translate(211,165)"/>
<path d="M0 0 C0.33 0.99 0.66 1.98 1 3 C-3.29 3 -7.58 3 -12 3 C-12 2.34 -12 1.68 -12 1 C-7.93631321 0.22596442 -4.13574827 -0.0984702 0 0 Z " fill="#C49D7B" transform="translate(99,168)"/>
<path d="M0 0 C2.64 0 5.28 0 8 0 C8 0.66 8 1.32 8 2 C9.32 2.33 10.64 2.66 12 3 C4.61538462 3.36923077 4.61538462 3.36923077 1.5 1.5 C1.005 1.005 0.51 0.51 0 0 Z " fill="#CA5A4F" transform="translate(18,160)"/>
<path d="M0 0 C0.33 0 0.66 0 1 0 C1.07654536 4.51617599 1.10228696 8.59085217 0 13 C-0.33 13 -0.66 13 -1 13 C-1.22245393 11.39773045 -1.42746669 9.79303233 -1.625 8.1875 C-1.74101562 7.29417969 -1.85703125 6.40085938 -1.9765625 5.48046875 C-2 3 -2 3 0 0 Z " fill="#F7CEC5" transform="translate(12,136)"/>
<path d="M0 0 C0.33 0 0.66 0 1 0 C1 2.31 1 4.62 1 7 C1.66 7 2.32 7 3 7 C3 8.98 3 10.96 3 13 C2.01 13.495 2.01 13.495 1 14 C0.06380187 10.84493858 -0.1057123 8.03413498 -0.0625 4.75 C-0.05347656 3.85796875 -0.04445312 2.9659375 -0.03515625 2.046875 C-0.02355469 1.37140625 -0.01195312 0.6959375 0 0 Z " fill="#FAF4F5" transform="translate(134,101)"/>
<path d="M0 0 C0.66 0.66 1.32 1.32 2 2 C1.01 3.485 1.01 3.485 0 5 C-0.66 5 -1.32 5 -2 5 C-2.66 6.98 -3.32 8.96 -4 11 C-5 8 -5 8 -3.6875 4.9375 C-2 2 -2 2 0 0 Z " fill="#EDC17A" transform="translate(183,107)"/>
<path d="M0 0 C3.63 0 7.26 0 11 0 C11 0.33 11 0.66 11 1 C8.69 1 6.38 1 4 1 C4 1.99 4 2.98 4 4 C2.68 3.67 1.36 3.34 0 3 C0 2.01 0 1.02 0 0 Z " fill="#91B572" transform="translate(101,100)"/>
<path d="M0 0 C2.64 0 5.28 0 8 0 C8.33 0.99 8.66 1.98 9 3 C5.7 2.67 2.4 2.34 -1 2 C-0.67 1.34 -0.34 0.68 0 0 Z " fill="#622D13" transform="translate(72,63)"/>
<path d="M0 0 C1.98 0 3.96 0 6 0 C6 1.98 6 3.96 6 6 C5.01 6 4.02 6 3 6 C3 5.01 3 4.02 3 3 C2.01 2.67 1.02 2.34 0 2 C0 1.34 0 0.68 0 0 Z " fill="#945A3E" transform="translate(73,49)"/>
<path d="M0 0 C1.47906892 -0.02689216 2.95827483 -0.04634621 4.4375 -0.0625 C5.26121094 -0.07410156 6.08492188 -0.08570312 6.93359375 -0.09765625 C9 0 9 0 10 1 C10.04063832 2.66617115 10.042721 4.33388095 10 6 C9.01 5.67 8.02 5.34 7 5 C7 3.68 7 2.36 7 1 C4.69 1 2.38 1 0 1 C0 0.67 0 0.34 0 0 Z " fill="#594A3E" transform="translate(82,30)"/>
<path d="M0 0 C1.32 0 2.64 0 4 0 C4 0.66 4 1.32 4 2 C4.99 2.33 5.98 2.66 7 3 C6.1028125 3.1546875 6.1028125 3.1546875 5.1875 3.3125 C2.71756736 4.08876455 1.67748765 5.07088921 0 7 C0 4.69 0 2.38 0 0 Z " fill="#F4E2D4" transform="translate(70,163)"/>
<path d="M0 0 C0.33 0.99 0.66 1.98 1 3 C-2.3 3 -5.6 3 -9 3 C-8 1 -8 1 -6.1875 0.375 C-4 0 -4 0 0 0 Z " fill="#DCB27D" transform="translate(164,147)"/>
<path d="M0 0 C5.75 0.75 5.75 0.75 8 3 C7.67 3.66 7.34 4.32 7 5 C6.34 5 5.68 5 5 5 C4.67 5.66 4.34 6.32 4 7 C4 6.01 4 5.02 4 4 C3.34 3.67 2.68 3.34 2 3 C2 2.34 2 1.68 2 1 C1.34 0.67 0.68 0.34 0 0 Z " fill="#FDD2A3" transform="translate(151,99)"/>
<path d="M0 0 C3 1 3 1 5 3 C5 3.99 5 4.98 5 6 C3.35 5.67 1.7 5.34 0 5 C0 3.35 0 1.7 0 0 Z " fill="#F4B7A5" transform="translate(149,93)"/>
<path d="M0 0 C2.375 0.3125 2.375 0.3125 5 1 C5.66 1.99 6.32 2.98 7 4 C6.67 4.99 6.34 5.98 6 7 C3.95880212 5.38405168 1.95927063 3.7143618 0 2 C0 1.34 0 0.68 0 0 Z " fill="#F9D9D0" transform="translate(75,77)"/>
<path d="M0 0 C2.64 0 5.28 0 8 0 C8 0.66 8 1.32 8 2 C6.02253397 2.73080266 4.01927511 3.39421747 2 4 C1.34 3.67 0.68 3.34 0 3 C0 2.01 0 1.02 0 0 Z " fill="#DE5852" transform="translate(32,74)"/>
<path d="M0 0 C0.99 0.66 1.98 1.32 3 2 C2.34 3.98 1.68 5.96 1 8 C-0.65 7.67 -2.3 7.34 -4 7 C-4 6.34 -4 5.68 -4 5 C-2.68 4.67 -1.36 4.34 0 4 C0 2.68 0 1.36 0 0 Z " fill="#FBCAB5" transform="translate(157,68)"/>
<path d="M0 0 C0.99 0.99 1.98 1.98 3 3 C2.67 3.66 2.34 4.32 2 5 C0.68 5 -0.64 5 -2 5 C-2.33 5.66 -2.66 6.32 -3 7 C-3.99 5.68 -4.98 4.36 -6 3 C-5.195625 2.87625 -4.39125 2.7525 -3.5625 2.625 C-2.716875 2.41875 -1.87125 2.2125 -1 2 C-0.67 1.34 -0.34 0.68 0 0 Z " fill="#F7C1A2" transform="translate(150,70)"/>
<path d="M0 0 C5.75 -0.125 5.75 -0.125 8 1 C8 1.99 8 2.98 8 4 C4.31245243 3.50168276 2.39509338 2.89932357 0 0 Z " fill="#6D2C1A" transform="translate(67,73)"/>
<path d="M0 0 C1.5625 1.6875 1.5625 1.6875 3 4 C2.6875 6.75 2.6875 6.75 2 9 C1.01 8.34 0.02 7.68 -1 7 C-1.25 3.9375 -1.25 3.9375 -1 1 C-0.67 0.67 -0.34 0.34 0 0 Z " fill="#EAAD8D" transform="translate(53,49)"/>
<path d="M0 0 C-0.33 1.65 -0.66 3.3 -1 5 C-1.99 5.33 -2.98 5.66 -4 6 C-4.33 4.35 -4.66 2.7 -5 1 C-2 0 -2 0 0 0 Z " fill="#C2A188" transform="translate(138,167)"/>
<path d="M0 0 C1.32 0.33 2.64 0.66 4 1 C4 1.66 4 2.32 4 3 C3.34 3 2.68 3 2 3 C2 3.66 2 4.32 2 5 C0.02 5.66 -1.96 6.32 -4 7 C-4 6.34 -4 5.68 -4 5 C-2.68 4.67 -1.36 4.34 0 4 C0 2.68 0 1.36 0 0 Z " fill="#F5CF9C" transform="translate(148,147)"/>
<path d="M0 0 C0.66 0.33 1.32 0.66 2 1 C1.6875 3.375 1.6875 3.375 1 6 C0.01 6.66 -0.98 7.32 -2 8 C-2.66 7.34 -3.32 6.68 -4 6 C-3.34 6 -2.68 6 -2 6 C-1.34 4.02 -0.68 2.04 0 0 Z " fill="#ECE0DB" transform="translate(134,111)"/>
<path d="M0 0 C0.66 0.33 1.32 0.66 2 1 C1.34 2.65 0.68 4.3 0 6 C0.66 6 1.32 6 2 6 C2.33 7.32 2.66 8.64 3 10 C1.68 9.67 0.36 9.34 -1 9 C-1.125 2.25 -1.125 2.25 0 0 Z " fill="#F8A98A" transform="translate(148,79)"/>
<path d="M0 0 C0.66 0.33 1.32 0.66 2 1 C2 4.63 2 8.26 2 12 C1.01 12.495 1.01 12.495 0 13 C0.03480469 12.37351562 0.06960937 11.74703125 0.10546875 11.1015625 C0.13253906 10.28429687 0.15960938 9.46703125 0.1875 8.625 C0.22230469 7.81289062 0.25710937 7.00078125 0.29296875 6.1640625 C0.19628906 5.44992188 0.09960938 4.73578125 0 4 C-0.99 3.34 -1.98 2.68 -3 2 C-2.01 2 -1.02 2 0 2 C0 1.34 0 0.68 0 0 Z " fill="#F4DDD4" transform="translate(175,73)"/>
<path d="M0 0 C-0.33 1.32 -0.66 2.64 -1 4 C-1 3.34 -1 2.68 -1 2 C-4.3 2 -7.6 2 -11 2 C-6.98764085 -0.6749061 -4.6342454 -1.48957888 0 0 Z " fill="#916645" transform="translate(208,178)"/>
<path d="M0 0 C2.31 0.66 4.62 1.32 7 2 C7 2.66 7 3.32 7 4 C5.35 3.67 3.7 3.34 2 3 C1.67 3.66 1.34 4.32 1 5 C1 4.34 1 3.68 1 3 C0.34 3 -0.32 3 -1 3 C-0.67 2.01 -0.34 1.02 0 0 Z " fill="#BD8A6F" transform="translate(80,48)"/>
<path d="M0 0 C0.66 0.33 1.32 0.66 2 1 C1.34 2.32 0.68 3.64 0 5 C-1.65 4.67 -3.3 4.34 -5 4 C-4.67 3.01 -4.34 2.02 -4 1 C-2.02 1.495 -2.02 1.495 0 2 C0 1.34 0 0.68 0 0 Z " fill="#F7EEEA" transform="translate(60,24)"/>
<path d="M0 0 C0.33 0 0.66 0 1 0 C1 2.97 1 5.94 1 9 C0.01 8.67 -0.98 8.34 -2 8 C-2.125 5.125 -2.125 5.125 -2 2 C-1.34 1.34 -0.68 0.68 0 0 Z " fill="#614B3C" transform="translate(73,186)"/>
<path d="M0 0 C0.33 0.66 0.66 1.32 1 2 C-0.65 2 -2.3 2 -4 2 C-4.66 3.98 -5.32 5.96 -6 8 C-6.66 6.68 -7.32 5.36 -8 4 C-5.60490662 1.10067643 -3.68754757 0.49831724 0 0 Z " fill="#E2BA9F" transform="translate(145,162)"/>
<path d="M0 0 C1.65 0 3.3 0 5 0 C5 0.66 5 1.32 5 2 C5.639375 2.28875 6.27875 2.5775 6.9375 2.875 C9 4 9 4 10 6 C8.125 5.75 8.125 5.75 6 5 C5.33333333 3.66666667 4.66666667 2.33333333 4 1 C1.94999129 0.19471111 1.94999129 0.19471111 0 0 Z " fill="#E4B879" transform="translate(164,146)"/>
<path d="M0 0 C1.32 0 2.64 0 4 0 C4 0.66 4 1.32 4 2 C-3.625 4.125 -3.625 4.125 -7 3 C-6 2 -6 2 -2.9375 1.9375 C-1.4834375 1.9684375 -1.4834375 1.9684375 0 2 C0 1.34 0 0.68 0 0 Z " fill="#E3CCB2" transform="translate(122,118)"/>
<path d="M0 0 C0.99 0.33 1.98 0.66 3 1 C3 2.65 3 4.3 3 6 C2.01 6.33 1.02 6.66 0 7 C0 4.69 0 2.38 0 0 Z " fill="#B88F6F" transform="translate(144,74)"/>
<path d="M0 0 C1.65 1.32 3.3 2.64 5 4 C4.67 4.66 4.34 5.32 4 6 C0.83884224 4.63016497 0.0072908 4.0109362 -2 1 C-1.34 0.67 -0.68 0.34 0 0 Z " fill="#753B2B" transform="translate(64,69)"/>
<path d="M0 0 C0.268125 0.5775 0.53625 1.155 0.8125 1.75 C2.01719859 4.0325868 3.40798115 5.9737942 5 8 C3.35 7.67 1.7 7.34 0 7 C0 4.69 0 2.38 0 0 Z " fill="#FDF0E1" transform="translate(79,130)"/>
<path d="M0 0 C0 0.66 0 1.32 0 2 C-1.32 2.33 -2.64 2.66 -4 3 C-4 3.66 -4 4.32 -4 5 C-4.99 4.67 -5.98 4.34 -7 4 C-3.375 0 -3.375 0 0 0 Z " fill="#CD6961" transform="translate(32,75)"/>
<path d="M0 0 C0.33 1.32 0.66 2.64 1 4 C0.34 4 -0.32 4 -1 4 C-1.66 5.32 -2.32 6.64 -3 8 C-3.1875 5.125 -3.1875 5.125 -3 2 C-2.01 1.34 -1.02 0.68 0 0 Z " fill="#FEEEE7" transform="translate(22,76)"/>
<path d="M0 0 C1.32 0 2.64 0 4 0 C4 0.99 4 1.98 4 3 C2.68 3 1.36 3 0 3 C-0.33 3.99 -0.66 4.98 -1 6 C-1.042721 4.33388095 -1.04063832 2.66617115 -1 1 C-0.67 0.67 -0.34 0.34 0 0 Z " fill="#FAB69A" transform="translate(149,63)"/>
<path d="M0 0 C2.29633824 3.44450737 2.54016485 5.93812283 3 10 C2.01 10.495 2.01 10.495 1 11 C0.4254048 7.26513121 0 3.78706732 0 0 Z " fill="#E9D7CB" transform="translate(50,54)"/>
<path d="M0 0 C0.99 0 1.98 0 3 0 C3 2.31 3 4.62 3 7 C2.34 7 1.68 7 1 7 C0.67 4.69 0.34 2.38 0 0 Z " fill="#B58E79" transform="translate(83,53)"/>
<path d="M0 0 C2.64 0.33 5.28 0.66 8 1 C5 3 5 3 2 3 C1.67 3.66 1.34 4.32 1 5 C0.67 3.35 0.34 1.7 0 0 Z " fill="#53311D" transform="translate(62,27)"/>
</svg>
