<?xml version="1.0" encoding="UTF-8"?>
<svg version="1.1" xmlns="http://www.w3.org/2000/svg" width="225" height="225">
<path d="M0 0 C74.25 0 148.5 0 225 0 C225 74.25 225 148.5 225 225 C150.75 225 76.5 225 0 225 C0 150.75 0 76.5 0 0 Z " fill="#FEFEFE" transform="translate(0,0)"/>
<path d="M0 0 C8.73902536 5.92113555 14.72016443 13.82494416 17.3984375 24.19921875 C19.0804105 36.1038499 16.93729577 46.13227038 10.578125 56.28125 C7.49475077 60.33970839 3.72380651 63.52611616 -0.25 66.6875 C1.09191406 67.39712891 1.09191406 67.39712891 2.4609375 68.12109375 C13.81524916 74.27009866 23.67956534 81.6136073 30.75 92.6875 C30.75 93.3475 30.75 94.0075 30.75 94.6875 C32.07 94.3575 33.39 94.0275 34.75 93.6875 C30.92193007 87.17978112 27.10465026 81.58339631 21.44921875 76.5390625 C17.39654416 72.12304467 17.30343033 67.18505137 17.44921875 61.4609375 C18.29571688 53.65556515 22.70253132 49.35502918 28.43359375 44.3515625 C34.44054466 40.03628242 40.57109808 39.8213887 47.75 40.6875 C55.70227864 43.24672779 60.20950303 47.30669181 64.3515625 54.44921875 C66.96633824 60.50410447 66.85201988 67.79618687 65.05859375 74.12890625 C62.81585398 78.92405279 59.3486182 82.84897392 55.75 86.6875 C58.46357535 87.55884188 58.46357535 87.55884188 61.75 87.6875 C64.95212693 85.88617777 64.95212693 85.88617777 67.75 83.6875 C73.95999531 81.61750156 80.78680506 81.99199325 86.80078125 84.578125 C92.84657506 88.01901767 97.11883204 92.20468256 99.75 98.6875 C100.80767503 106.81539912 100.51902366 114.80781601 95.75 121.6875 C93.86386826 123.82729805 91.89521455 125.78956488 89.8125 127.73828125 C87.88768677 129.55737557 86.16052003 131.42869059 84.4375 133.4375 C81.44320374 136.91828375 78.36149841 140.31167399 75.25 143.6875 C71.01058087 148.29328869 66.84706762 152.9548491 62.75 157.6875 C61.43823285 159.18814092 60.12574214 160.68814969 58.8125 162.1875 C57.93271484 163.19296875 57.93271484 163.19296875 57.03515625 164.21875 C56.61105469 164.7034375 56.18695313 165.188125 55.75 165.6875 C52.42240077 164.13555246 50.26419515 162.38128051 47.75 159.6875 C49.07856194 156.76106763 50.54564177 154.6174237 52.76171875 152.296875 C53.35122314 151.67385498 53.94072754 151.05083496 54.5480957 150.40893555 C55.17159912 149.75836182 55.79510254 149.10778809 56.4375 148.4375 C57.71703096 147.08547253 58.99568767 145.73261712 60.2734375 144.37890625 C60.88155273 143.7358252 61.48966797 143.09274414 62.11621094 142.43017578 C64.51717228 139.86919819 66.82294729 137.23377532 69.11328125 134.57421875 C71.12873772 132.25091213 73.18848462 129.97001535 75.25 127.6875 C76.75028239 126.02108753 78.25029332 124.35443061 79.75 122.6875 C80.40613281 121.96046875 81.06226563 121.2334375 81.73828125 120.484375 C85.09508977 116.71784895 88.07487283 112.96770347 90.75 108.6875 C88.55085503 108.09552387 88.55085503 108.09552387 85.75 108.6875 C82.33043291 111.40369881 79.53619117 114.63020843 76.9375 118.125 C76.545625 118.640625 76.15375 119.15625 75.75 119.6875 C75.09 119.6875 74.43 119.6875 73.75 119.6875 C75.08071982 116.74932839 76.55165307 114.62038938 78.7890625 112.3046875 C79.36914062 111.69496094 79.94921875 111.08523437 80.546875 110.45703125 C81.7732957 109.18606108 82.99985998 107.91522943 84.2265625 106.64453125 C84.8040625 106.03738281 85.3815625 105.43023437 85.9765625 104.8046875 C86.50846191 104.25409668 87.04036133 103.70350586 87.58837891 103.13623047 C88.95852016 101.73692953 88.95852016 101.73692953 88.75 99.6875 C85.06431582 99.35566918 85.06431582 99.35566918 81.8972168 101.06445312 C81.05670776 102.00708008 81.05670776 102.00708008 80.19921875 102.96875 C79.58369141 103.64550781 78.96816406 104.32226562 78.33398438 105.01953125 C77.70814453 105.73496094 77.08230469 106.45039063 76.4375 107.1875 C75.79232422 107.90292969 75.14714844 108.61835938 74.48242188 109.35546875 C72.89235552 111.12220915 71.31589826 112.89935135 69.75 114.6875 C69.75 110.65087642 71.20631719 109.77548941 73.9375 106.875 C77.32646468 103.22411219 80.60188057 99.54648511 83.75 95.6875 C81.50681269 94.76792412 81.50681269 94.76792412 78.75 94.6875 C76.11774325 96.58942523 76.11774325 96.58942523 73.75 99.3125 C72.925 100.19164062 72.1 101.07078125 71.25 101.9765625 C70.425 102.87117188 69.6 103.76578125 68.75 104.6875 C67.09026325 106.36106789 65.42561902 108.02983404 63.75 109.6875 C63.75 106.24018482 64.06868075 105.98294107 66.33984375 103.62109375 C66.87673828 103.05326172 67.41363281 102.48542969 67.96679688 101.90039062 C68.53462891 101.31451172 69.10246094 100.72863281 69.6875 100.125 C70.80267815 98.95884228 71.91604649 97.79095038 73.02734375 96.62109375 C73.52484131 96.10603271 74.02233887 95.59097168 74.53491211 95.06030273 C75.860358 93.68172836 75.860358 93.68172836 76.75 91.6875 C67.02249562 93.13627725 61.32917468 101.79249038 55.35546875 108.9609375 C52.52231139 112.007788 50.80530513 113.64611549 46.5625 113.8125 C42.72227521 112.67931891 41.18097822 111.58226281 38.1875 109.0625 C34.77798334 106.13667281 34.77798334 106.13667281 30.375 105.5625 C27.77503044 106.67677267 26.40756642 107.41925122 24.75 109.6875 C24.255 111.1725 24.255 111.1725 23.75 112.6875 C24.678125 112.77 25.60625 112.8525 26.5625 112.9375 C29.75 113.6875 29.75 113.6875 31.390625 115.43359375 C32.87435728 117.89369008 33.29093472 119.67057357 33.6875 122.5 C35.1791748 130.69218175 38.96729957 135.90280435 45.75 140.6875 C48.69436299 142.46912092 51.687697 144.11815651 54.75 145.6875 C53.84373216 146.9864839 52.92450463 148.27643167 52 149.5625 C51.23429687 150.64144531 51.23429687 150.64144531 50.453125 151.7421875 C48.65741679 153.79324871 47.18949205 154.55582228 44.75 155.6875 C42.2267373 153.02312335 39.70685345 150.35557299 37.1875 147.6875 C36.48302734 146.94371094 35.77855469 146.19992188 35.05273438 145.43359375 C29.11667422 139.14191709 23.29003085 132.75007302 17.875 126 C17.30007812 125.29488281 16.72515625 124.58976563 16.1328125 123.86328125 C14.75 121.6875 14.75 121.6875 13.75 116.6875 C-17.6 116.6875 -48.95 116.6875 -81.25 116.6875 C-80.07410225 104.92852247 -80.07410225 104.92852247 -76.875 98.8125 C-76.52630859 98.13268066 -76.17761719 97.45286133 -75.81835938 96.75244141 C-68.20889199 82.65507597 -56.21807372 73.92830292 -42.25 66.6875 C-42.75789063 66.275 -43.26578125 65.8625 -43.7890625 65.4375 C-52.64490097 58.00788271 -59.52285182 49.72698095 -60.59765625 37.84375 C-61.08227576 24.49454121 -58.33555312 14.76195687 -49.25 4.6875 C-34.60503858 -8.40567743 -16.81264298 -9.74552434 0 0 Z " fill="#FEB74D" transform="translate(103.25,32.3125)"/>
<path d="M0 0 C6.31081633 3.59028814 9.68175016 8.20421336 12.5625 14.875 C13.5872583 22.83303291 13.41383741 30.27424092 8.5625 36.875 C6.65342742 39.30091906 4.67366695 41.62308858 2.5625 43.875 C5.27607535 44.74634188 5.27607535 44.74634188 8.5625 44.875 C11.76462693 43.07367777 11.76462693 43.07367777 14.5625 40.875 C20.77249531 38.80500156 27.59930506 39.17949325 33.61328125 41.765625 C39.65907506 45.20651767 43.93133204 49.39218256 46.5625 55.875 C47.62017503 64.00289912 47.33152366 71.99531601 42.5625 78.875 C40.67636826 81.01479805 38.70771455 82.97706488 36.625 84.92578125 C34.70018677 86.74487557 32.97302003 88.61619059 31.25 90.625 C28.25570374 94.10578375 25.17399841 97.49917399 22.0625 100.875 C17.82308087 105.48078869 13.65956762 110.1423491 9.5625 114.875 C8.25073285 116.37564092 6.93824214 117.87564969 5.625 119.375 C5.03847656 120.0453125 4.45195312 120.715625 3.84765625 121.40625 C3.42355469 121.8909375 2.99945313 122.375625 2.5625 122.875 C-0.76509923 121.32305246 -2.92330485 119.56878051 -5.4375 116.875 C-4.10893806 113.94856763 -2.64185823 111.8049237 -0.42578125 109.484375 C0.16372314 108.86135498 0.75322754 108.23833496 1.3605957 107.59643555 C1.98409912 106.94586182 2.60760254 106.29528809 3.25 105.625 C4.52953096 104.27297253 5.80818767 102.92011712 7.0859375 101.56640625 C7.69405273 100.9233252 8.30216797 100.28024414 8.92871094 99.61767578 C11.32967228 97.05669819 13.63544729 94.42127532 15.92578125 91.76171875 C17.94123772 89.43841213 20.00098462 87.15751535 22.0625 84.875 C23.56278239 83.20858753 25.06279332 81.54193061 26.5625 79.875 C27.21863281 79.14796875 27.87476563 78.4209375 28.55078125 77.671875 C31.90758977 73.90534895 34.88737283 70.15520347 37.5625 65.875 C35.36335503 65.28302387 35.36335503 65.28302387 32.5625 65.875 C29.14293291 68.59119881 26.34869117 71.81770843 23.75 75.3125 C23.358125 75.828125 22.96625 76.34375 22.5625 76.875 C21.9025 76.875 21.2425 76.875 20.5625 76.875 C21.89321982 73.93682839 23.36415307 71.80788938 25.6015625 69.4921875 C26.18164062 68.88246094 26.76171875 68.27273437 27.359375 67.64453125 C28.5857957 66.37356108 29.81235998 65.10272943 31.0390625 63.83203125 C31.6165625 63.22488281 32.1940625 62.61773437 32.7890625 61.9921875 C33.32096191 61.44159668 33.85286133 60.89100586 34.40087891 60.32373047 C35.77102016 58.92442953 35.77102016 58.92442953 35.5625 56.875 C31.87681582 56.54316918 31.87681582 56.54316918 28.7097168 58.25195312 C28.14937744 58.88037109 27.58903809 59.50878906 27.01171875 60.15625 C26.08842773 61.17138672 26.08842773 61.17138672 25.14648438 62.20703125 C24.52064453 62.92246094 23.89480469 63.63789063 23.25 64.375 C22.60482422 65.09042969 21.95964844 65.80585938 21.29492188 66.54296875 C19.70485552 68.30970915 18.12839826 70.08685135 16.5625 71.875 C16.5625 67.83837642 18.01881719 66.96298941 20.75 64.0625 C24.13896468 60.41161219 27.41438057 56.73398511 30.5625 52.875 C28.31931269 51.95542412 28.31931269 51.95542412 25.5625 51.875 C22.93024325 53.77692523 22.93024325 53.77692523 20.5625 56.5 C19.7375 57.37914062 18.9125 58.25828125 18.0625 59.1640625 C17.2375 60.05867188 16.4125 60.95328125 15.5625 61.875 C13.90276325 63.54856789 12.23811902 65.21733404 10.5625 66.875 C10.5625 63.42768482 10.88118075 63.17044107 13.15234375 60.80859375 C13.68923828 60.24076172 14.22613281 59.67292969 14.77929688 59.08789062 C15.34712891 58.50201172 15.91496094 57.91613281 16.5 57.3125 C17.61517815 56.14634228 18.72854649 54.97845038 19.83984375 53.80859375 C20.33734131 53.29353271 20.83483887 52.77847168 21.34741211 52.24780273 C22.672858 50.86922836 22.672858 50.86922836 23.5625 48.875 C13.83499562 50.32377725 8.14167468 58.97999038 2.16796875 66.1484375 C-0.66518861 69.195288 -2.38219487 70.83361549 -6.625 71 C-10.46522479 69.86681891 -12.00652178 68.76976281 -15 66.25 C-18.40951666 63.32417281 -18.40951666 63.32417281 -22.8125 62.75 C-25.41246956 63.86427267 -26.77993358 64.60675122 -28.4375 66.875 C-28.7675 67.865 -29.0975 68.855 -29.4375 69.875 C-28.509375 69.9575 -27.58125 70.04 -26.625 70.125 C-23.4375 70.875 -23.4375 70.875 -21.796875 72.62109375 C-20.31314272 75.08119008 -19.89656528 76.85807357 -19.5 79.6875 C-18.0083252 87.87968175 -14.22020043 93.09030435 -7.4375 97.875 C-4.49313701 99.65662092 -1.499803 101.30565651 1.5625 102.875 C0.65623216 104.1739839 -0.26299537 105.46393167 -1.1875 106.75 C-1.95320313 107.82894531 -1.95320313 107.82894531 -2.734375 108.9296875 C-4.53008321 110.98074871 -5.99800795 111.74332228 -8.4375 112.875 C-10.9607627 110.21062335 -13.48064655 107.54307299 -16 104.875 C-16.70447266 104.13121094 -17.40894531 103.38742188 -18.13476562 102.62109375 C-24.06246425 96.33827954 -29.89546626 89.97158139 -35.25 83.1875 C-35.81332031 82.48238281 -36.37664062 81.77726562 -36.95703125 81.05078125 C-40.51106895 75.82756489 -41.11503407 71.03837444 -40.4375 64.875 C-38.59858509 59.35825526 -34.99611354 56.24727556 -30.4375 52.875 C-28.00362247 51.65806124 -26.01911154 51.55540104 -23.3125 51.3125 C-22.40242188 51.22871094 -21.49234375 51.14492187 -20.5546875 51.05859375 C-19.85601562 50.99800781 -19.15734375 50.93742187 -18.4375 50.875 C-22.26556993 44.36728112 -26.08284974 38.77089631 -31.73828125 33.7265625 C-35.79095584 29.31054467 -35.88406967 24.37255137 -35.73828125 18.6484375 C-34.89178312 10.84306515 -30.48496868 6.54252918 -24.75390625 1.5390625 C-17.3855287 -3.75424077 -8.09699131 -3.76970703 0 0 Z " fill="#F44537" transform="translate(156.4375,75.125)"/>
<path d="M0 0 C6.31081633 3.59028814 9.68175016 8.20421336 12.5625 14.875 C13.5872583 22.83303291 13.41383741 30.27424092 8.5625 36.875 C6.65342742 39.30091906 4.67366695 41.62308858 2.5625 43.875 C3.8825 44.205 5.2025 44.535 6.5625 44.875 C5.20063878 48.79995389 3.45131019 51.59933228 0.75 54.75 C0.08355469 55.55179688 -0.58289063 56.35359375 -1.26953125 57.1796875 C-3.4375 58.875 -3.4375 58.875 -6.0078125 58.75390625 C-9.19275487 57.60179687 -11.67270832 55.81623671 -14.4375 53.875 C-15.12585938 53.57207031 -15.81421875 53.26914063 -16.5234375 52.95703125 C-19.25085022 51.41520814 -19.71901862 49.12225432 -20.96484375 46.36328125 C-23.26693932 42.47353356 -26.39027287 39.38300957 -29.55297852 36.17626953 C-34.00517725 31.58128891 -35.72023643 27.93791282 -35.8125 21.5625 C-35.64044901 14.80723495 -34.00528412 10.57213145 -29.34375 5.67578125 C-20.73771296 -2.3134898 -11.17372646 -5.20213911 0 0 Z " fill="#FEB74D" transform="translate(156.4375,75.125)"/>
<path d="M0 0 C0.66 0.33 1.32 0.66 2 1 C1.54109375 1.51949219 1.0821875 2.03898438 0.609375 2.57421875 C-2.11180201 5.66698506 -4.79645548 8.73594225 -7.3125 12 C-7.869375 12.66 -8.42625 13.32 -9 14 C-9.66 14 -10.32 14 -11 14 C-9.42219077 10.28954753 -7.09296752 7.70093616 -4.375 4.75 C-3.55773437 3.85796875 -2.74046875 2.9659375 -1.8984375 2.046875 C-1.27195313 1.37140625 -0.64546875 0.6959375 0 0 Z " fill="#F45042" transform="translate(188,138)"/>
</svg>
