<?xml version="1.0" encoding="UTF-8"?>
<svg version="1.1" xmlns="http://www.w3.org/2000/svg" width="225" height="225">
<path d="M0 0 C74.25 0 148.5 0 225 0 C225 74.25 225 148.5 225 225 C150.75 225 76.5 225 0 225 C0 150.75 0 76.5 0 0 Z " fill="#FCFCFC" transform="translate(0,0)"/>
<path d="M0 0 C0.66298599 -0.0038269 1.32597198 -0.00765381 2.00904846 -0.01159668 C3.40326466 -0.01430344 4.79753272 -0.00702903 6.19165039 0.00976562 C8.30797404 0.03116474 10.4208911 0.00994566 12.53710938 -0.015625 C25.43153478 -0.04610963 25.43153478 -0.04610963 30.87890625 4.53125 C33.6169422 8.29544223 34.24301858 10.86394856 34.171875 15.48828125 C34.16220703 16.60009766 34.15253906 17.71191406 34.14257812 18.85742188 C34.11744141 20.00791016 34.09230469 21.15839844 34.06640625 22.34375 C34.04610352 24.09848633 34.04610352 24.09848633 34.02539062 25.88867188 C33.99010903 28.770002 33.94080905 31.65038904 33.87890625 34.53125 C29.44256723 33.80860911 27.79972106 32.88060632 24.87890625 29.40625 C24.23953125 28.66117188 23.60015625 27.91609375 22.94140625 27.1484375 C20.47252675 24.01557904 18.17537168 20.79254987 15.87890625 17.53125 C17.33652738 20.61492051 18.79512803 23.69812672 20.25390625 26.78125 C20.66640625 27.65394531 21.07890625 28.52664062 21.50390625 29.42578125 C21.90351562 30.27011719 22.303125 31.11445312 22.71484375 31.984375 C23.26470947 33.14694824 23.26470947 33.14694824 23.82568359 34.33300781 C24.34702881 35.4211377 24.34702881 35.4211377 24.87890625 36.53125 C25.33040039 37.61466675 25.33040039 37.61466675 25.79101562 38.7199707 C27.72943907 41.94734134 31.57101672 42.44094302 35.00390625 43.46875 C35.80199707 43.72253418 36.60008789 43.97631836 37.42236328 44.23779297 C41.42953616 45.50492387 45.45544812 46.70423073 49.48828125 47.88671875 C50.20741699 48.10142822 50.92655273 48.3161377 51.66748047 48.53735352 C53.02475271 48.93996118 54.38569584 49.33045953 55.75048828 49.70678711 C58.80474616 50.60648171 60.69645998 51.34466506 62.9453125 53.64453125 C65.57310301 56.20861775 67.33107731 56.02664351 70.94140625 56.09375 C76.47173274 56.20996205 76.47173274 56.20996205 78.48587036 57.79925537 C80.08716154 59.79017875 80.4781356 61.11657614 80.94482422 63.61425781 C81.17924225 64.81193787 81.17924225 64.81193787 81.418396 66.03381348 C81.57036438 66.85796753 81.72233276 67.68212158 81.87890625 68.53125 C82.19778588 70.10026003 82.51826626 71.66894557 82.84033203 73.23730469 C83.1697015 74.89229869 83.49761273 76.54758343 83.82421875 78.203125 C83.99895721 79.08856995 84.17369568 79.97401489 84.35372925 80.8862915 C84.71908917 82.74160514 85.08375583 84.59705542 85.44775391 86.45263672 C85.82001129 88.3459528 86.19437737 90.23885544 86.57080078 92.13134766 C87.11819888 94.88355687 87.65940538 97.63691937 88.19921875 100.390625 C88.36793488 101.23341003 88.536651 102.07619507 88.71047974 102.94451904 C90.26910965 110.96957901 90.26910965 110.96957901 89.87890625 114.53125 C87.98046875 116.33203125 87.98046875 116.33203125 85.50390625 117.84375 C84.69179687 118.35550781 83.8796875 118.86726563 83.04296875 119.39453125 C80.87890625 120.53125 80.87890625 120.53125 78.87890625 120.53125 C78.6773291 119.42724854 78.47575195 118.32324707 78.26806641 117.18579102 C77.51311596 113.05363868 76.75590676 108.92190283 75.99804688 104.7902832 C75.67159294 103.00881891 75.34573538 101.22724523 75.02050781 99.44555664 C74.55043299 96.87095972 74.07814875 94.29677599 73.60546875 91.72265625 C73.46267487 90.93790421 73.31988098 90.15315216 73.17276001 89.34461975 C72.31868796 84.70737285 71.35585665 80.11312054 70.26791382 75.52476501 C69.74411476 72.84049518 69.73922555 70.25502364 69.87890625 67.53125 C68.89019531 67.64726563 67.90148437 67.76328125 66.8828125 67.8828125 C55.00187143 68.77715166 44.73970244 66.20829526 33.50390625 62.71875 C32.40249802 62.37919281 32.40249802 62.37919281 31.27883911 62.03277588 C14.25443215 56.73327378 14.25443215 56.73327378 11.11791992 51.7121582 C10.5994751 50.59671631 10.08103027 49.48127441 9.546875 48.33203125 C9.26540115 47.73698288 8.98392731 47.14193451 8.69392395 46.52885437 C7.80423939 44.63994339 6.93518503 42.742353 6.06640625 40.84375 C5.4642316 39.5560127 4.86072933 38.26889535 4.25585938 36.98242188 C2.78144161 33.83905964 1.32536518 30.68759265 -0.12109375 27.53125 C0.83654453 33.45109684 2.05666048 39.29457583 3.31640625 45.15625 C3.6422168 46.71085937 3.6422168 46.71085937 3.97460938 48.296875 C4.29655273 49.79347656 4.29655273 49.79347656 4.625 51.3203125 C4.81763428 52.22475098 5.01026855 53.12918945 5.20874023 54.06103516 C6.14013763 57.49414219 7.01798886 59.84631171 9.828125 62.08203125 C14.29199083 64.20251041 18.93229544 65.42429743 23.69140625 66.71875 C24.67044922 66.99138672 25.64949219 67.26402344 26.65820312 67.54492188 C29.0633525 68.21367073 31.47017619 68.87553838 33.87890625 69.53125 C33.89743652 70.33844482 33.9159668 71.14563965 33.93505859 71.97729492 C34.31805948 80.258934 36.17073364 86.33954146 39.50390625 93.84375 C44.86771553 106.99039823 47.02713097 120.33971099 49.00390625 134.34375 C49.15369934 135.38536285 49.30349243 136.42697571 49.45782471 137.50015259 C54.04922653 169.9185125 54.04922653 169.9185125 49.87890625 175.53125 C45.31211515 178.29254274 41.89281107 178.90943502 36.59179688 178.91943359 C35.88854782 178.92469055 35.18529877 178.92994751 34.46073914 178.93536377 C32.15198096 178.94849361 29.8439206 178.93985116 27.53515625 178.9296875 C25.92142607 178.93171026 24.30769679 178.93462339 22.69396973 178.93838501 C19.31818913 178.94279884 15.94264729 178.9364078 12.56689453 178.92236328 C8.2493616 178.9052718 3.93238822 178.91511805 -0.38512421 178.93308067 C-3.71551699 178.94394406 -7.04577808 178.9404605 -10.37617493 178.9326973 C-11.96771817 178.93070234 -13.55927354 178.93312972 -15.15080261 178.94013596 C-17.37885002 178.94779282 -19.60600321 178.9360883 -21.83398438 178.91943359 C-23.09940063 178.91704681 -24.36481689 178.91466003 -25.6685791 178.91220093 C-30.42957021 178.38687253 -33.81750859 176.96098857 -37.05859375 173.40625 C-39.76082151 166.09433958 -36.25571737 158.52394284 -33.33984375 151.75390625 C-32.96629761 150.86134628 -32.59275146 149.96878632 -32.20788574 149.04917908 C-31.02323198 146.22594501 -29.822412 143.40992741 -28.62109375 140.59375 C-27.81404148 138.67687936 -27.00804154 136.75956531 -26.203125 134.84179688 C-20.51166101 121.31238453 -20.51166101 121.31238453 -19.12109375 118.53125 C-17.93328567 107.20503751 -17.97490062 95.7911011 -17.95242882 84.41645813 C-17.94512993 81.48928133 -17.92937571 78.56225969 -17.91108704 75.63513184 C-17.85918499 67.32610966 -17.81057062 59.01718932 -17.79516602 50.70800781 C-17.78507051 45.59302121 -17.75573504 40.47845315 -17.71384621 35.3636322 C-17.70158416 33.42768011 -17.69640613 31.49166895 -17.69864464 29.55567932 C-17.70100539 26.85241916 -17.67878282 24.15036257 -17.65112305 21.44726562 C-17.65772446 20.65959808 -17.66432587 19.87193054 -17.67112732 19.06039429 C-17.57805221 13.49761546 -16.24848075 9.17257211 -13.12109375 4.53125 C-8.81979327 0.74847169 -5.6564718 0.02087121 0 0 Z " fill="#030303" transform="translate(41.12109375,46.46875)"/>
<path d="M0 0 C4.35130878 0.66215568 7.53027335 2.61816183 10.875 5.4375 C15.01282532 11.71097709 15.00020298 18.17572704 14.875 25.4375 C10.9634532 23.95791491 9.6475476 21.89792529 7.625 18.3125 C6.84382813 16.94738281 6.84382813 16.94738281 6.046875 15.5546875 C5.66015625 14.85601562 5.2734375 14.15734375 4.875 13.4375 C5.2359375 14.40171875 5.596875 15.3659375 5.96875 16.359375 C6.43783738 17.63529268 6.90656873 18.91134129 7.375 20.1875 C7.61347656 20.82171875 7.85195312 21.4559375 8.09765625 22.109375 C9.32301758 25.47036607 9.875 27.80621587 9.875 31.4375 C11.21461792 31.41393433 11.21461792 31.41393433 12.58129883 31.38989258 C15.89678756 31.33874561 19.21185675 31.30114188 22.52758789 31.27270508 C23.96222552 31.25762411 25.39681708 31.2371562 26.83129883 31.21118164 C28.89415859 31.17476563 30.95640858 31.15776757 33.01953125 31.14453125 C34.88121948 31.12096558 34.88121948 31.12096558 36.78051758 31.09692383 C39.875 31.4375 39.875 31.4375 41.75268555 32.7409668 C43.5964344 35.52804768 43.70210655 38.15252443 43.875 41.4375 C43.11810133 43.98343188 42.49326386 45.00580819 40.328125 46.51757812 C36.71565952 47.87225268 33.12318613 47.80316167 29.3125 47.84375 C28.48419678 47.85515015 27.65589355 47.86655029 26.80249023 47.8782959 C25.05425091 47.8971535 23.30594117 47.91024704 21.55761719 47.91796875 C18.88351262 47.93743802 16.21244931 47.99952733 13.5390625 48.0625 C11.83855988 48.07555614 10.13803534 48.08605864 8.4375 48.09375 C7.63948975 48.1184436 6.84147949 48.14313721 6.01928711 48.1685791 C3.75390625 48.15039062 3.75390625 48.15039062 -0.125 47.4375 C-3.02124422 44.16452276 -4.57575659 40.85089858 -5.828125 36.6953125 C-6.0859375 35.85742188 -6.34375 35.01953125 -6.609375 34.15625 C-6.86203125 33.3003125 -7.1146875 32.444375 -7.375 31.5625 C-7.643125 30.68335937 -7.91125 29.80421875 -8.1875 28.8984375 C-8.84219501 26.74729675 -9.48773528 24.59385567 -10.125 22.4375 C-9.874596 25.98091886 -9.59604064 29.52159091 -9.3125 33.0625 C-9.24224609 34.06152344 -9.17199219 35.06054688 -9.09960938 36.08984375 C-8.37945731 44.96193804 -8.37945731 44.96193804 -3.33178711 52.06030273 C-0.74184978 53.67661388 0.8273139 53.85677786 3.859375 53.94921875 C5.26123047 54.00239258 5.26123047 54.00239258 6.69140625 54.05664062 C8.14353516 54.09047852 8.14353516 54.09047852 9.625 54.125 C10.60855469 54.15916016 11.59210938 54.19332031 12.60546875 54.22851562 C15.02853199 54.31085273 17.45123998 54.38004838 19.875 54.4375 C19.875 55.0975 19.875 55.7575 19.875 56.4375 C21.17695313 56.37949219 22.47890625 56.32148438 23.8203125 56.26171875 C25.54683901 56.21480227 27.27340448 56.16930414 29 56.125 C29.8559375 56.08310547 30.711875 56.04121094 31.59375 55.99804688 C35.86101216 55.91598414 38.41571134 56.20177763 42.26953125 58.1796875 C46.41698271 62.30606746 47.18650918 68.37492119 48.4375 73.875 C48.87074585 75.6681665 48.87074585 75.6681665 49.31274414 77.49755859 C49.90146962 79.95115143 50.47983667 82.40725269 51.04785156 84.86572266 C51.81578137 88.1817832 52.61659309 91.48774519 53.4296875 94.79296875 C53.89242102 96.71571449 54.35345756 98.6388697 54.8125 100.5625 C55.02398682 101.43060303 55.23547363 102.29870605 55.45336914 103.19311523 C56.72420911 108.73324237 57.06372907 113.75275174 56.875 119.4375 C57.65875 119.39625 58.4425 119.355 59.25 119.3125 C61.875 119.4375 61.875 119.4375 63.875 121.4375 C63.33928571 124.97321429 63.33928571 124.97321429 61.875 126.4375 C60.46274954 126.5303726 59.04591066 126.55496772 57.63061523 126.55102539 C56.27932777 126.55091209 56.27932777 126.55091209 54.90074158 126.55079651 C53.92158279 126.54563522 52.94242401 126.54047394 51.93359375 126.53515625 C50.93618668 126.5337413 49.9387796 126.53232635 48.91114807 126.53086853 C45.71156876 126.52525114 42.51205831 126.51269571 39.3125 126.5 C37.14908955 126.49498724 34.98567801 126.49042395 32.82226562 126.48632812 C27.50648675 126.47527607 22.19074829 126.45852104 16.875 126.4375 C17.94901108 123.52232708 18.65310176 121.65939824 20.875 119.4375 C29.29 118.9425 29.29 118.9425 37.875 118.4375 C32.925 98.1425 32.925 98.1425 27.875 77.4375 C26.885 77.4375 25.895 77.4375 24.875 77.4375 C25.101875 78.18 25.32875 78.9225 25.5625 79.6875 C25.875 82.4375 25.875 82.4375 24.5625 84.75 C24.005625 85.306875 23.44875 85.86375 22.875 86.4375 C22.215 86.4375 21.555 86.4375 20.875 86.4375 C19.6484375 84.71484375 19.6484375 84.71484375 18.25 82.375 C12.17504502 73.0950328 4.67681753 68.1718513 -6.125 65.4375 C-10.11872965 64.98269356 -14.11317051 64.67952243 -18.125 64.4375 C-21.8359375 45.8828125 -21.8359375 45.8828125 -22.49267578 42.58056641 C-22.89287768 40.59130031 -23.30163487 38.60371986 -23.72216797 36.61865234 C-25.54387869 27.94547613 -27.33644744 18.13816307 -22.5078125 10.15234375 C-16.31611145 2.47393482 -9.28525041 1.29993506 0 0 Z " fill="#030303" transform="translate(158.125,92.5625)"/>
<path d="M0 0 C8.37695114 4.80128609 13.41923525 11.70995085 16.1875 20.9375 C17.0737872 29.80037195 15.96293398 37.17166191 10.89453125 44.7421875 C5.1960473 51.65339228 -1.62699465 56.17848555 -10.5625 57.4375 C-19.20620515 58.12350834 -26.74135176 55.92407576 -33.5625 50.4375 C-40.49733027 43.74128754 -43.5549277 38.26041905 -43.96264648 28.57397461 C-44.08209126 21.74220169 -43.76314949 16.05157557 -39.5625 10.4375 C-39.17320313 9.83808594 -38.78390625 9.23867187 -38.3828125 8.62109375 C-29.50195899 -3.54409907 -13.20814521 -6.07214607 0 0 Z " fill="#020202" transform="translate(159.5625,167.5625)"/>
<path d="M0 0 C1.98 0 3.96 0 6 0 C7.42283965 3.30399784 8.79184552 6.62760002 10.14794922 9.95947266 C11.05396262 12.12923198 12.01347439 14.2712284 12.97265625 16.41796875 C19.01119669 30.45299631 20.97023537 44.31253592 22.60302734 59.43017578 C23.17945115 64.61373597 23.88831723 69.7746631 24.625 74.9375 C24.73626221 75.76443359 24.84752441 76.59136719 24.9621582 77.44335938 C26.08430663 85.45511366 26.99491681 89.99491681 33 96 C12.21 96 -8.58 96 -30 96 C-28.515 95.01 -28.515 95.01 -27 94 C-23.40633302 90.9127054 -21.83912536 87.89275905 -20.046875 83.53125 C-19.78536148 82.90387939 -19.52384796 82.27650879 -19.25440979 81.63012695 C-18.40799891 79.5913007 -17.57716521 77.5467048 -16.75 75.5 C-15.59324859 72.64550774 -14.43557745 69.79139109 -13.27734375 66.9375 C-12.85288216 65.88592712 -12.85288216 65.88592712 -12.41984558 64.81311035 C-10.90084883 61.08185115 -9.29057714 57.45818921 -7.44140625 53.875 C0.81232582 37.31663178 -0.31463115 18.12383933 0 0 Z " fill="#FBFBFB" transform="translate(46,129)"/>
<path d="M0 0 C4.57058513 3.6564681 8.34038451 8.30215561 9.38671875 14.16796875 C9.67125639 19.86853321 8.34226448 24.37149963 5 29 C1.36297103 32.80580061 -2.73463296 36.47213991 -8.078125 37.3359375 C-14.83195675 37.45740929 -19.56204048 35.87385974 -24.76171875 31.52734375 C-29.17040348 27.01191121 -30.67543291 22.24545761 -31 16 C-30.74438379 9.92077965 -27.97465622 6.02706615 -23.859375 1.69921875 C-16.6141634 -4.92193051 -8.36912397 -3.92450446 0 0 Z " fill="#030303" transform="translate(64,3)"/>
<path d="M0 0 C3.88831288 2.23140868 5.98788525 5.53350962 8.13671875 9.421875 C9.79875016 15.76781312 9.23498593 20.55405569 6.1015625 26.21875 C3.43347393 30.03729877 0.28167388 32.56105662 -4.17578125 34.046875 C-10.71384966 34.78623653 -16.09504327 34.63317725 -21.515625 30.6484375 C-26.05789568 26.26648226 -27.40535388 21.64170458 -27.67578125 15.421875 C-27.44039109 9.74112589 -25.80951186 6.57058031 -21.6796875 2.61328125 C-15.1359892 -3.14713147 -7.79732572 -3.24760914 0 0 Z " fill="#020202" transform="translate(166.17578125,52.953125)"/>
<path d="M0 0 C2.88381579 2.58803981 3.8491179 4.19529549 4.5625 8 C3.78698584 12.13607554 2.38677089 13.54999553 -1 16 C-4.5 16.625 -4.5 16.625 -8 16 C-11.38677089 13.54999553 -12.78698584 12.13607554 -13.5625 8 C-12.87642343 4.34092496 -11.57265686 2.64832324 -9 0 C-5.77839187 -1.61080407 -3.42436421 -0.82657067 0 0 Z " fill="#F5F5F5" transform="translate(150,187)"/>
<path d="M0 0 C1.68624917 2.52937376 2.51250414 4.10214051 3.3125 6.9375 C3.51488281 7.60652344 3.71726563 8.27554688 3.92578125 8.96484375 C4 11 4 11 1 15 C0.67 10.05 0.34 5.1 0 0 Z " fill="#B3B3B3" transform="translate(147,112)"/>
</svg>
